<?xml version="1.0" encoding="UTF-8"?>
<svg id="a" xmlns="http://www.w3.org/2000/svg" version="1.1" viewBox="4 -249 2681 903" fill="#10172a">
  <path d="M 2269.0 654.0
C 2218.0 654.0 2181.0 644.0 2149.0 624.0
L 2149.0 459.0
C 2170.0 464.0 2191.0 467.0 2212.0 467.0
C 2251.0 467.0 2291.0 456.0 2331.0 424.0
L 2272.0 556.0
L 2085.0 0.0
L 2315.0 0.0
L 2383.0 292.0
L 2391.0 292.0
L 2455.0 0.0
L 2685.0 0.0
L 2504.0 450.0
C 2444.0 600.0 2390.0 654.0 2269.0 654.0
Z

M 31.0 500.0
L 31.0 0.0
L 261.0 0.0
L 261.0 500.0
L 31.0 500.0
Z

M 513.0 516.0
C 392.0 516.0 327.0 452.0 327.0 323.0
L 327.0 185.0
L 294.0 185.0
L 294.0 0.0
L 557.0 -132.0
L 557.0 283.0
C 557.0 315.0 578.0 326.0 602.0 326.0
C 612.0 326.0 623.0 324.0 633.0 321.0
L 633.0 486.0
C 601.0 506.0 564.0 516.0 513.0 516.0
Z

M 146.0 -23.0
C 55.0 -23.0 4.0 -64.0 4.0 -136.0
C 4.0 -208.0 55.0 -249.0 146.0 -249.0
C 236.0 -249.0 287.0 -208.0 287.0 -136.0
C 287.0 -64.0 236.0 -23.0 146.0 -23.0
Z

M 452.0 185.0
L 452.0 0.0
L 726.0 0.0
L 726.0 185.0
L 452.0 185.0
Z

M 787.0 516.0
C 695.0 516.0 646.0 452.0 669.0 362.0
C 694.0 263.0 789.0 215.0 1030.0 182.0
L 965.0 243.0
C 990.0 143.0 845.0 143.0 755.0 184.0
L 795.0 24.0
C 849.0 -2.0 915.0 -16.0 978.0 -16.0
C 1122.0 -16.0 1243.0 51.0 1198.0 231.0
L 1179.0 306.0
C 1170.0 339.0 1189.0 346.0 1212.0 343.0
L 1175.0 491.0
C 1159.0 502.0 1122.0 516.0 1074.0 516.0
C 993.0 516.0 945.0 484.0 939.0 434.0
L 932.0 434.0
C 902.0 483.0 841.0 516.0 787.0 516.0
Z

M 905.0 362.0
C 928.0 362.0 940.0 349.0 947.0 318.0
L 952.0 295.0
L 924.0 295.0
C 897.0 295.0 882.0 304.0 877.0 323.0
C 871.0 344.0 884.0 362.0 905.0 362.0
Z

M 1247.0 500.0
L 1247.0 -239.0
L 1477.0 -239.0
L 1477.0 500.0
L 1247.0 500.0
Z

M 1538.0 500.0
L 1538.0 0.0
L 1768.0 0.0
L 1768.0 500.0
L 1538.0 500.0
Z

M 1653.0 -23.0
C 1562.0 -23.0 1511.0 -64.0 1511.0 -136.0
C 1511.0 -208.0 1562.0 -249.0 1653.0 -249.0
C 1743.0 -249.0 1794.0 -208.0 1794.0 -136.0
C 1794.0 -64.0 1743.0 -23.0 1653.0 -23.0
Z

M 1807.0 185.0
L 1807.0 0.0
L 1926.0 -50.0
L 1926.0 185.0
L 1807.0 185.0
Z

M 1846.0 500.0
L 1846.0 -39.0
C 1846.0 -176.0 1941.0 -232.0 2043.0 -232.0
C 2080.0 -232.0 2118.0 -224.0 2152.0 -212.0
L 2152.0 -60.0
C 2143.0 -62.0 2134.0 -63.0 2126.0 -63.0
C 2099.0 -63.0 2076.0 -52.0 2076.0 -19.0
L 2076.0 500.0
L 1846.0 500.0
Z

M 1965.0 185.0
L 1965.0 0.0
L 2296.0 0.0
L 2296.0 185.0
L 1965.0 185.0
Z"/>
</svg>
