<?xml version="1.0" encoding="utf-8"?>
<!-- Generator: Adobe Illustrator 27.0.0, SVG Export Plug-In . SVG Version: 6.00 Build 0)  -->
<svg version="1.1" id="a" xmlns="http://www.w3.org/2000/svg" xmlns:xlink="http://www.w3.org/1999/xlink" x="0px" y="0px"
	 viewBox="0 0 400 400" style="enable-background:new 0 0 400 400;" xml:space="preserve">
<style type="text/css">
	.st0{fill-rule:evenodd;clip-rule:evenodd;fill:#FFFFFF;}
</style>
<rect y="0" width="400" height="400"/>
<path class="st0" d="M200.1,46.1C113.2,46.1,43,116.9,43,204.4c0,70,45,129.2,107.4,150.2c7.8,1.6,10.7-3.4,10.7-7.6
	c0-3.7-0.3-16.2-0.3-29.4c-43.7,9.4-52.8-18.9-52.8-18.9c-7-18.3-17.4-23.1-17.4-23.1c-14.3-9.7,1-9.7,1-9.7
	c15.9,1,24.2,16.2,24.2,16.2c14,24.1,36.7,17.3,45.8,13.1c1.3-10.2,5.5-17.3,9.9-21.2c-34.9-3.7-71.5-17.3-71.5-78.1
	c0-17.3,6.2-31.4,16.1-42.5c-1.6-3.9-7-20.2,1.6-41.9c0,0,13.3-4.2,43.2,16.2c12.8-3.5,26-5.2,39.3-5.2s26.8,1.8,39.3,5.2
	c29.9-20.4,43.2-16.2,43.2-16.2c8.6,21.8,3.1,38,1.6,41.9c10.1,11,16.1,25.2,16.1,42.5c0,60.8-36.7,74.2-71.8,78.1
	c5.7,5,10.7,14.4,10.7,29.4c0,21.2-0.3,38.3-0.3,43.5c0,4.2,2.9,9.2,10.7,7.6C312,333.6,357,274.4,357,204.4
	C357.3,116.9,286.8,46.1,200.1,46.1z"/>
</svg>
