<?xml version="1.0" encoding="utf-8"?>
<!-- Generator: Adobe Illustrator 27.0.0, SVG Export Plug-In . SVG Version: 6.00 Build 0)  -->
<svg version="1.1" id="a" xmlns="http://www.w3.org/2000/svg" xmlns:xlink="http://www.w3.org/1999/xlink" x="0px" y="0px"
	 viewBox="0 0 400 400" style="enable-background:new 0 0 400 400;" xml:space="preserve">
<style type="text/css">
	.st0{fill:#FF7B8B;}
	.st1{fill:#FFFFFF;}
</style>
<rect class="st0" width="400" height="400"/>
<path class="st1" d="M292.9,227.5c-3.4,0-5.5,2-5.5,4.9c0,9.1,21.3,5.5,21.3,19.6c0,7.5-6.3,12.7-14.8,12.7c-3.8,0-7.9-1.4-10.5-3.8
	l-4.7,3.8l-2-17.4c4.5,9.7,10.9,14.6,16.4,14.6c3.6,0,5.9-2.2,5.9-5.5c0-9.7-21.3-5.9-21.3-20c0-7.1,5.5-11.7,13.2-11.7
	c4,0,7.7,1.2,10.3,3.2l4.9-4l1.2,16.4C303.8,232.4,298.1,227.5,292.9,227.5z M265.5,237.2c3.4,0,6.3-3,6.3-6.5c0-3.4-3-6.3-6.3-6.3
	c-3.6,0-6.5,3-6.5,6.3C258.9,234.2,261.9,237.2,265.5,237.2z M238.8,263.7h21.7l-5.5-4.5v-34.2l-15.8,4.3l5.1,4v25.9L238.8,263.7z
	 M214.8,264.7c7.9,0,14.2-3.4,18.4-10.3l-1.8-1.4c-2.8,3.2-6.9,5.3-10.9,5.3c-7.5,0-12.3-6.3-12.3-16.2c0-9.1,3.2-14.8,7.9-14.8
	c4.5,0,7.3,4.9,7.3,12.8l-17.2,0.4v2.6H234c0-11.1-6.9-18.4-18-18.4c-11.3,0-20,7.5-20,20.2C196.1,257,204,264.7,214.8,264.7z
	 M194.7,259.9l-2-2c-1.4,1.6-3,2.4-4.9,2.4c-3.6,0-5.5-2.2-5.5-7.9v-38.9l-15.8,14.8h5.1V253c0,7.1,4.9,11.7,12.7,11.7
	C188.2,264.7,192.1,263.1,194.7,259.9z M166.2,259.9l-2-2c-1.4,1.6-3,2.4-4.9,2.4c-3.6,0-5.5-2.2-5.5-7.9v-38.9l-15.8,14.8h5.1V253
	c0,7.1,4.9,11.7,12.7,11.7C159.7,264.7,163.6,263.1,166.2,259.9z M150.4,228.3h41.3v-2.6h-41.3V228.3z M113.4,264.7
	c7.9,0,14.2-3.4,18.4-10.3L130,253c-2.8,3.2-6.9,5.3-10.9,5.3c-7.5,0-12.3-6.3-12.3-16.2c0-9.1,3.2-14.8,7.9-14.8
	c4.5,0,7.3,4.9,7.3,12.8l-17.2,0.4v2.6h27.7c0-11.1-6.9-18.4-18-18.4c-11.3,0-20,7.5-20,20.2C94.7,257,102.6,264.7,113.4,264.7z
	 M48,263.7h40.9v-7.5l-23.7,4.5V215l6.1-5.1H48l6.1,5.1v43.5L48,263.7z M322.6,211.3h-7.5l14.4-18.4l-16-32.4l-6.5-4.5h24.1
	l-5.5,4.5l10.3,20.6l9.7-20.4l-4.7-4.7H355l-6.3,4.7L322.6,211.3z M306.2,190.1l-2-2c-1.4,1.6-3,2.4-4.9,2.4c-3.6,0-5.5-2.2-5.5-7.9
	v-37.6c0-10.7-6.5-17.4-19-17.4c-11.3,0-19,5.9-19,14.2c0,4.9,3,7.7,6.9,7.7s6.9-2.8,6.9-6.9c0-4.3-3.8-7.5-9.5-6.3
	c3-4.3,8.1-6.3,14.4-6.3c9.3,0,14.2,4.3,14.2,12.5c0,4.9-1.8,8.3-10.9,16h5.1v24.7c0,7.1,4.9,11.7,12.7,11.7
	C299.7,194.9,303.6,193.3,306.2,190.1z M290.4,158.5h12.8v-2.6h-12.8V158.5z M252.2,193.9H274l-5.5-4.5v-34.2l-15.8,3.6l5.1,4v26.7
	L252.2,193.9z M249,190.1l-2-2c-1.4,1.6-3,2.4-4.9,2.4c-3.6,0-5.5-2.2-5.5-7.9v-38.9l-15.8,14.8h5.1v24.7c0,7.1,4.9,11.7,12.7,11.7
	C242.5,194.9,246.5,193.3,249,190.1z M233.2,158.5h12.8v-2.6h-12.8V158.5z M196.1,193.9h21.7l-5.5-4.5v-19.2
	c0-10.3-5.3-15.2-13.8-15.2c-9.5,0-14.6,6.3-14.6,15.8h2c0-6.9,3.6-11.3,8.9-11.3c4.5,0,6.9,3.6,6.9,10.5v19.4L196.1,193.9z
	 M169.6,193.9h21.7l-5.5-4.5v-34.2l-15.8,4.3l5.1,4v25.9L169.6,193.9z M145.1,194.9c7.9,0,14.2-3.4,18.4-10.3l-1.8-1.4
	c-2.8,3.2-6.9,5.3-10.9,5.3c-7.5,0-12.3-6.3-12.3-16.2c0-9.1,3.2-14.8,7.9-14.8c4.5,0,7.3,4.9,7.3,12.8l-17.2,0.4v2.6h27.7
	c0-11.1-6.9-18.4-18-18.4c-11.3,0-20,7.5-20,20.2C126.3,187.2,134.2,194.9,145.1,194.9z M106.1,194.3l16.2-3.8l-5.5-4.7v-47.8
	l-15.8,4.3l5.1,4V194.3z M97,190.7c-5.5,0-9.1-6.1-9.1-15.4c0-9.9,3.8-16.2,9.5-16.2c5.3,0,8.7,6.1,8.7,15.6
	C106.1,184.4,102.6,190.7,97,190.7z M93.5,194.9c10.1,0,15.2-6.9,15.2-20.2c0-13-5.1-19.8-14.8-19.8c-10.7,0-17.4,8.1-17.4,20.6
	C76.5,187.4,83.2,194.9,93.5,194.9z M48,193.9h23.3l-6.1-5.1v-43.5l6.1-5.1H48l6.1,5.1v43.5L48,193.9z"/>
</svg>
