<?xml version="1.0" encoding="UTF-8"?>
<svg id="a" xmlns="http://www.w3.org/2000/svg" version="1.1" viewBox="0 0 400 400">
  <!-- Generator: Adobe Illustrator 29.1.0, SVG Export Plug-In . SVG Version: 2.1.0 Build 142)  -->
  <rect width="400" height="400" fill="#fff"/>
  <path d="M 226.87802768581892 335.01882540780224
C 283.9998766314597 335.01882540780224 331.73183259973496 272.4195388920315 303.1709081269145 207.86402467264293
C 301.60592596402023 204.3428148061308 298.0847160975082 201.99534156178942 294.17226069027254 201.99534156178942
C 288.69482312014253 201.99534156178942 284.39112217218326 206.2990425097487 284.39112217218326 211.7764800798786
C 284.39112217218326 213.3414622427729 284.7823677129069 214.90644440566712 285.17361325363044 215.6889354871143
C 307.47460907487374 266.1596102404544 270.69752824685844 315.4565483716239 226.87802768581892 315.4565483716239
C 188.92721023563288 315.4565483716239 173.27738860669027 286.50437835808 158.41005805919468 259.5084360481538
C 156.45383035557686 255.59598064091813 156.45383035557686 252.46601631512956 158.80130359991824 248.55356090789394
C 165.84372333294246 234.4687214418455 172.4948975252431 216.862672109285 177.58108955464948 199.25662277672447
C 179.14607171754375 194.56167628804164 182.27603604333228 192.99669412514737 187.36222807273865 193.77918520659452
C 191.6659290206979 194.17043074731808 196.36087550938072 194.56167628804164 201.0558219980635 194.56167628804164
C 254.26521553646865 194.56167628804164 278.5224390613298 140.96103720891296 278.5224390613298 109.6613939510276
C 278.5224390613298 83.8391882632722 262.09012635093995 64.27691122709376 237.83290282607882 64.27691122709376
C 200.66457645733993 64.27691122709376 183.449772665503 108.09641178813337 169.75617874017814 155.04587667496136
C 167.7999510365603 160.9145597858149 162.71375900715393 162.8707874894327 158.80130359991824 158.17584100074995
C 146.67269183748766 144.09100153470146 143.54272751169913 122.96374233562887 151.75888386689402 99.88025543293844
C 153.71511157051185 94.40281786280855 149.80265616327623 86.96915258906068 142.3689908895284 86.96915258906068
C 138.06528994156918 86.96915258906068 134.54408007505708 89.31662583340216 132.97909791216279 93.62032678136131
C 120.4592406090087 128.44117990575882 129.4578880456507 162.8707874894327 154.8888481926826 181.25932790344038
C 158.80130359991824 183.99804668850533 160.3662857628125 186.73676547357027 158.80130359991824 191.43171196225313
C 155.67133927412974 203.95156926540727 151.75888386689402 215.6889354871143 147.45518291893484 226.25256508665058
C 145.49895521531698 231.73000265678053 141.58649980808127 232.12124819750412 137.67404440084562 227.81754724954484
C 130.24037912709787 219.9926364350735 120.85048614973226 214.51519886494359 108.72187438730168 214.51519886494359
C 88.37710626967618 214.51519886494359 72.7272846407335 230.55626603460982 72.7272846407335 251.29227969295889
C 72.7272846407335 271.63704781058436 88.37710626967618 287.28686943952704 109.11311992802524 287.28686943952704
C 119.67674952756153 287.28686943952704 128.67539696420357 283.3744140322914 136.10906223795132 277.5057309214379
C 140.80400872663415 273.9845210549258 144.32521859314625 274.37576659564934 147.06393737821122 279.0707130843321
C 162.71375900715393 306.45790093498186 183.449772665503 335.01882540780224 226.87802768581892 335.01882540780224
Z

M 109.11311992802524 267.7245924033487
C 99.33198140993602 267.7245924033487 92.28956167691183 260.68217267032446 92.28956167691183 251.29227969295889
C 92.28956167691183 241.51114117486972 99.33198140993602 234.07747590112194 108.72187438730168 234.07747590112194
C 116.93803074249655 234.07747590112194 123.19795939407368 239.94615901197542 129.06664250492713 248.55356090789394
C 131.8053612899921 252.46601631512956 131.8053612899921 256.37847172236525 128.28415142348 259.5084360481538
C 122.80671385335012 264.98587361828373 116.54678520177299 267.7245924033487 109.11311992802524 267.7245924033487
Z

M 222.18308119713612 273.9845210549258
C 225.31304552292468 279.0707130843321 229.6167464708839 278.6794675436086 232.74671079667246 273.5932755142022
L 256.22144324008644 232.90373927895124
C 257.0039343215336 231.73000265678053 257.3951798622572 230.16502049388623 257.3951798622572 228.2087927902684
C 257.3951798622572 222.73135522013848 253.09147891429794 218.4276542721792 247.614041344168 218.4276542721792
C 244.0928314776559 218.4276542721792 240.5716216111438 220.77512751652063 239.00663944824953 223.51384630158563
L 231.96421971522528 236.03370360473974
C 228.83425538943678 241.11989563414613 224.13930890075397 241.11989563414613 221.0093445749654 236.03370360473974
L 215.14066146411193 226.64381062737414
C 213.57567930121763 224.29633738303275 210.44571497542915 222.34010967941492 206.924505108917 222.34010967941492
C 201.44706753878708 222.34010967941492 197.1433665908278 226.64381062737414 197.1433665908278 232.12124819750412
C 197.1433665908278 234.07747590112194 197.5346121315514 235.6424580640162 198.7083487537221 237.59868576763404
L 222.18308119713612 273.9845210549258
Z

M 201.0558219980635 174.99939925186328
C 198.31710321299855 174.99939925186328 195.57838442793357 174.99939925186328 193.23091118359216 174.60815371113975
C 188.1447191541858 174.2169081704162 186.18849145056797 170.3044527631805 187.7534736134622 165.2182607337741
C 200.66457645733993 121.79000571345819 213.18443376049413 83.8391882632722 237.83290282607882 83.8391882632722
C 250.35276012923296 83.8391882632722 258.9601620251515 94.01157232208487 258.9601620251515 109.6613939510276
C 258.9601620251515 134.70110855733589 240.1803760704202 174.99939925186328 201.0558219980635 174.99939925186328
Z"/>
</svg>