<?xml version="1.0" encoding="UTF-8"?><svg id="a" xmlns="http://www.w3.org/2000/svg" viewBox="0 0 400 400"><defs><style>.b{fill:#fb3d4d;}</style></defs><path d="M400,400H0V0H400V400ZM232.93,146.83c-.79,4.41-1.62,8.9-2.4,13.41-2.13,12.27-4.4,24.51-6.29,36.82-1.21,7.89-1.9,15.86-2.7,23.8-1.53,15.25-2.57,30.51-1.71,45.86,.37,6.6,3.01,12.27,6.81,17.34,6.2,8.24,14.82,13.19,24.5,16.29,3.57,1.14,7.24,.79,10.79-.58,8.33-3.21,15.76-8.12,22.17-14.08,10.66-9.91,20.73-20.47,30.83-30.96,3.98-4.14,7.37-8.86,10.75-12.97-2.86-8.15-6.86-13.74-11.78-16.66-10.04,5.38-17.48,14.88-28.46,19.86-.5-1.52-1.05-2.42-1.05-3.31,0-4.33-.28-8.71,.31-12.97,2.08-14.98,4.45-29.91,6.78-44.86,2.2-14.13,4.54-28.23,6.67-42.37,.34-2.25,.22-4.7-.29-6.92-1.83-7.94-6.02-14.69-11.17-20.89-6.87-8.28-15.21-14.62-24.76-19.65-10.79-5.68-20.5-4.81-29.01,3.9-6.13,6.28-12.18,12.71-17.68,19.54-6.74,8.38-13.31,16.97-19.16,25.98-6.3,9.71-11.66,20.03-17.47,30.07-.57,.99-1.43,1.82-2.89,3.64-.17-2.12-.41-2.92-.27-3.66,1.11-5.87,2.17-11.75,3.49-17.58,2.24-9.9,4.67-19.75,7-29.63,1.12-4.76,.51-9.42-1.93-13.54-4.43-7.51-9.98-14.14-17.51-18.76-3.53-2.16-7.37-3.67-11.76-3.44-7.06,.37-13.07,3.59-19.05,6.8-16.01,8.6-30.56,19.32-44.2,31.26-3.46,3.02-6.46,6.56-9.65,9.84,2.46,6.71,4.94,12.55,10.74,16.45,9.29-3.33,17.02-9.84,27.26-12.13,0,1.74,.11,2.87-.02,3.96-.61,4.95-1.37,9.89-1.91,14.85-1.52,13.72-2.68,27.49-4.51,41.17-1.89,14.15-4.29,28.23-6.67,42.3-1.95,11.48-4.27,22.9-6.29,34.37-.65,3.7-.86,7.49-1.24,10.95,7.82,6.5,16.41,8.95,25.4,9.89,4.57,.48,9.66,.98,13.81-.51,10.73-3.86,21.06-8.82,31.6-13.36,.21-2.98,.53-5.29,.5-7.58-.1-8.83-.05-17.67-.55-26.48-.58-10.32,2.64-19.73,6.43-28.96,6.77-16.5,15.79-31.82,26.41-46.1,7.42-9.97,15.59-19.38,23.45-29.03,1.42-1.74,3.01-3.21,6.68-1.38Z"/><path class="b" d="M232.93,146.83c-3.67-1.83-5.26-.37-6.68,1.38-7.86,9.65-16.03,19.06-23.45,29.03-10.63,14.28-19.64,29.6-26.41,46.1-3.79,9.23-7.01,18.64-6.43,28.96,.5,8.81,.45,17.65,.55,26.48,.03,2.3-.29,4.6-.5,7.58-10.54,4.54-20.87,9.5-31.6,13.36-4.14,1.49-9.24,.98-13.81,.51-9-.94-17.58-3.39-25.4-9.89,.38-3.47,.59-7.25,1.24-10.95,2.02-11.47,4.34-22.89,6.29-34.37,2.39-14.07,4.78-28.16,6.67-42.3,1.83-13.68,2.99-27.45,4.51-41.17,.55-4.96,1.31-9.9,1.91-14.85,.13-1.09,.02-2.21,.02-3.96-10.23,2.29-17.97,8.79-27.26,12.13-5.8-3.91-8.28-9.75-10.74-16.45,3.19-3.27,6.19-6.81,9.65-9.84,13.65-11.94,28.19-22.66,44.2-31.26,5.98-3.21,11.99-6.43,19.05-6.8,4.39-.23,8.22,1.28,11.76,3.44,7.53,4.62,13.08,11.25,17.51,18.76,2.43,4.13,3.05,8.79,1.93,13.54-2.33,9.88-4.76,19.73-7,29.63-1.32,5.82-2.38,11.71-3.49,17.58-.14,.74,.1,1.54,.27,3.66,1.46-1.82,2.31-2.65,2.89-3.64,5.81-10.03,11.17-20.35,17.47-30.07,5.84-9.01,12.41-17.6,19.16-25.98,5.5-6.83,11.54-13.26,17.68-19.54,8.51-8.72,18.22-9.58,29.01-3.9,9.55,5.02,17.89,11.37,24.76,19.65,5.14,6.19,9.34,12.95,11.17,20.89,.51,2.22,.63,4.67,.29,6.92-2.13,14.14-4.47,28.24-6.67,42.37-2.33,14.94-4.69,29.88-6.78,44.86-.59,4.26-.31,8.65-.31,12.97,0,.9,.55,1.8,1.05,3.31,10.99-4.98,18.43-14.48,28.46-19.86,4.91,2.92,8.92,8.52,11.78,16.66-3.37,4.11-6.76,8.83-10.75,12.97-10.1,10.5-20.17,21.05-30.83,30.96-6.41,5.96-13.84,10.87-22.17,14.08-3.55,1.37-7.22,1.72-10.79,.58-9.68-3.1-18.3-8.04-24.5-16.29-3.81-5.06-6.45-10.74-6.81-17.34-.86-15.35,.17-30.61,1.71-45.86,.8-7.94,1.49-15.91,2.7-23.8,1.89-12.31,4.16-24.55,6.29-36.82,.78-4.5,1.61-9,2.4-13.41Z"/></svg>