<?xml version="1.0" encoding="UTF-8"?>
<svg id="a" xmlns="http://www.w3.org/2000/svg" version="1.1" viewBox="0 0 400 400">
  <!-- Generator: Adobe Illustrator 29.1.0, SVG Export Plug-In . SVG Version: 2.1.0 Build 142)  -->
  <rect width="400" height="400" fill="#000"/>
  <path fill="#cba45d" d="M 110.88369453439967 102.89654526464791
C 71.08576998794857 102.89654526464791 43.388565742783314 125.48455649371475 43.388565742783314 160.98000271081978
C 43.388565742783314 224.1726531730901 136.16075471930782 205.34931048220105 136.16075471930782 237.0800881611283
C 136.16075471930782 247.29847419332515 127.28689316503153 255.6345259564331 109.80807495206317 255.6345259564331
C 92.5981616346789 255.6345259564331 78.88401195988834 249.44971335799815 67.3211014497708 235.19775389203937
L 38.27937272668487 259.93700428577927
C 54.951476252900854 281.18049103692545 77.8083923775518 292.4744966514588 108.46355047414252 292.4744966514588
C 151.75723866318734 292.4744966514588 178.37882332601603 268.0041511533031 178.37882332601603 234.12213430970283
C 178.37882332601603 170.39167405626426 86.14444414065983 188.94611185156919 86.14444414065983 158.02204885939435
C 86.14444414065983 148.87928240953397 94.2115910081837 139.46761106408943 111.69040922115207 139.46761106408943
C 126.48017847827919 139.46761106408943 136.96746940606022 146.7280432448609 146.1102358559206 156.4086194858896
L 174.88305968342232 132.74498867448622
C 158.21095615720643 112.84602640126069 136.4296596148919 102.89654526464791 110.88369453439967 102.89654526464791
Z

M 204.7315030932606 106.66121380282573
L 204.7315030932606 288.9787330088652
L 246.94957169996889 288.9787330088652
L 246.94957169996886 202.93633721915944
L 304.2263144593884 288.9787330088652
L 360.69634253205544 288.9787330088652
L 293.4701186360232 195.9376391367565
L 356.66276909829344 106.66121380282573
L 307.99098299756616 106.66121380282573
L 246.94957169996894 193.49836795003517
L 246.94957169996889 106.66121380282573
L 204.7315030932606 106.66121380282573
Z"/>
</svg>