<?xml version="1.0" encoding="utf-8"?>
<!-- Generator: Adobe Illustrator 27.0.0, SVG Export Plug-In . SVG Version: 6.00 Build 0)  -->
<svg version="1.1" id="a" xmlns="http://www.w3.org/2000/svg" xmlns:xlink="http://www.w3.org/1999/xlink" x="0px" y="0px"
	 viewBox="0 0 400 400" style="enable-background:new 0 0 400 400;" xml:space="preserve">
<style type="text/css">
	.st0{fill-rule:evenodd;clip-rule:evenodd;fill:#000000;}
	.st1{fill-rule:evenodd;clip-rule:evenodd;fill:#FFFFFF;}
</style>
<rect class="st0" width="400" height="400"/>
<path class="st1" d="M 0.0 400.00000000000006
L 0.0 0.0
L 400.0 0.0
L 400.0 400.00000000000006
L 0.0 400.00000000000006
Z

M 199.136 307.680990966797
C 194.528 307.680990966797 190.207 303.35999096679706 190.207 298.17499096679705
C 190.207 293.2789909667971 193.953 288.9599909667971 199.136 288.9599909667971
C 204.321 288.9599909667971 208.928 292.99199096679706 208.928 298.46299096679707
C 208.928 303.07099096679707 204.321 307.680990966797 199.136 307.680990966797
Z

M 82.78399999999999 198.23899096679708
C 79.90499999999997 197.37599096679708 78.46300000000002 194.20699096679704 79.32799999999997 191.61599096679709
L 91.42500000000001 153.5989909667971
C 92.28899999999999 150.71999096679707 95.45500000000004 149.28099096679705 98.33600000000001 150.14499096679708
C 100.63999999999999 151.00799096679708 102.08000000000004 153.88799096679708 101.21500000000003 156.76799096679707
L 97.18400000000003 170.30399096679707
L 129.72899999999998 182.11199096679707
C 132.608 182.97599096679704 133.75900000000001 186.14499096679708 132.89499999999998 188.73599096679703
C 132.03300000000002 191.61599096679709 129.152 193.05699096679706 126.27300000000002 191.90399096679704
L 94.01600000000002 180.38499096679703
L 89.12099999999998 194.78399096679703
C 88.25599999999997 197.6639909667971 85.375 199.10299096679705 82.78399999999999 198.23899096679708
Z

M 167.743 276.28799096679705
C 166.304 276.28799096679705 164.0 275.1349909667971 163.135 273.11899096679707
C 162.27300000000002 271.10299096679705 162.561 269.0869909667971 164.287 267.3589909667971
C 165.43900000000002 266.2069909667971 178.113 260.44699096679705 192.801 251.23199096679707
C 207.489 241.43999096679704 223.32899999999998 228.47899096679708 223.32899999999998 211.19999096679703
C 223.32899999999998 198.52799096679706 215.553 185.85599096679704 199.136 185.85599096679704
C 183.873 185.85599096679704 173.503 195.07099096679707 173.503 208.89499096679708
C 173.503 216.09599096679705 178.113 225.59999096679707 187.039 225.59999096679707
C 194.528 225.59999096679707 195.105 219.83999096679707 194.528 219.2649909667971
C 191.93699999999998 217.53499096679707 189.92 214.94399096679706 189.92 211.48899096679708
C 189.92 206.59299096679706 193.953 202.27199096679703 199.136 202.27199096679703
C 203.16899999999998 202.27199096679703 209.21599999999998 204.86299096679704 209.21599999999998 214.94399096679706
C 209.21599999999998 229.63199096679705 197.409 235.96699096679708 187.61599999999999 235.96699096679708
C 172.641 235.96699096679708 162.561 222.14499096679708 162.561 209.18399096679707
C 162.561 189.31099096679708 179.265 175.77499096679708 200.0 175.77499096679708
C 222.75199999999998 175.77499096679708 234.849 193.92099096679704 234.849 211.48899096679708
C 234.849 238.55999096679705 204.89499999999998 255.55099096679706 185.887 265.92099096679704
L 236.28799999999998 265.92099096679704
C 239.169 265.92099096679704 241.47299999999998 268.22299096679706 241.47299999999998 271.10299096679705
C 241.47299999999998 274.27199096679703 239.169 276.28799096679705 236.001 276.28799096679705
L 167.743 276.28799096679705
Z

M 190.495 345.69399096679706
C 197.409 348.86299096679704 201.44 348.86299096679704 208.351 345.69399096679706
C 275.74399999999997 314.87899096679706 356.96000000000004 247.19999096679706 356.96000000000004 162.81699096679705
C 356.96000000000004 134.59299096679706 346.30300000000005 106.65499096679707 328.15900000000005 87.64799096679701
C 311.45700000000005 69.79099096679704 287.84099999999995 60.57599096679701 262.785 60.57599096679701
C 239.744 60.57599096679701 219.009 68.35199096679702 201.152 84.76799096679702
C 184.448 70.07999096679703 163.425 59.99899096679701 138.36700000000002 59.99899096679701
C 112.73700000000002 59.99899096679701 88.83100000000002 68.926990966797 71.55200000000002 86.78399096679703
C 53.69499999999999 105.79099096679704 43.04000000000002 133.72899096679708 43.04000000000002 162.23899096679708
C 43.04000000000002 244.60599096679704 119.93600000000004 313.43999096679704 190.495 345.69399096679706
Z

M 196.54399999999998 334.75199096679705
C 195.105 334.17499096679705 162.561 319.48699096679707 129.152 291.8399909667971
C 108.99099999999999 275.7099909667971 92.86400000000003 258.1449909667971 80.48000000000002 239.99899096679707
C 65.505 217.82399096679706 55.137 190.75199096679705 55.137 162.81699096679705
C 55.137 136.60899096679708 64.92700000000002 111.55099096679709 82.209 94.55999096679705
C 97.18400000000003 79.87199096679706 115.90300000000002 72.09599096679705 137.21500000000003 72.09599096679705
C 160.544 72.09599096679705 181.279 81.02399096679704 200.0 97.43999096679704
C 215.84 82.75199096679705 236.86499999999998 72.38499096679703 261.63100000000003 72.38499096679703
C 283.52000000000004 72.38499096679703 302.52900000000005 80.16099096679704 317.504 95.13499096679709
C 334.49600000000004 112.12799096679709 344.28900000000004 136.89499096679708 344.28900000000004 162.52799096679706
C 344.28900000000004 189.59999096679707 334.49600000000004 216.67099096679704 318.369 240.57699096679704
C 306.272 258.71999096679707 290.14500000000004 275.99899096679707 270.272 292.12899096679706
C 236.001 319.48699096679707 203.456 334.17499096679705 202.017 334.75199096679705
C 200.0 335.6159909667971 198.561 335.6159909667971 196.54399999999998 334.75199096679705
Z

M 199.136 324.959990966797
C 206.625 321.50299096679703 234.849 307.10299096679705 263.647 283.7749909667971
C 282.94300000000004 268.22299096679706 298.49600000000004 251.80699096679706 310.01500000000004 234.81699096679705
C 323.26400000000007 214.65499096679707 333.63100000000003 189.88799096679708 333.63100000000003 162.81699096679705
C 333.63100000000003 139.77499096679708 325.56800000000004 117.59899096679709 310.59200000000004 102.62499096679704
C 297.344 89.37499096679704 280.63899999999995 82.75199096679705 261.63100000000003 82.75199096679705
C 241.76 82.75199096679705 223.32899999999998 91.10299096679705 207.777 104.92699096679706
C 217.28 115.00799096679708 226.208 127.67999096679705 234.561 142.65499096679707
C 253.857 176.92699096679706 264.22499999999997 215.23199096679707 269.407 234.81699096679705
C 269.407 235.10299096679705 269.69699999999995 235.39199096679704 269.69699999999995 235.67999096679705
L 283.52000000000004 232.8009909667971
C 285.824 232.22299096679706 288.993 233.95099096679706 289.28000000000003 236.82999096679708
C 289.85499999999996 239.42399096679708 288.128 242.01499096679706 285.537 242.59299096679706
L 247.233 250.65499096679707
C 244.63899999999998 251.23199096679707 241.76 249.50299096679706 241.183 246.62299096679706
C 240.896 244.03099096679705 242.912 241.43999096679704 245.21599999999998 240.86299096679704
L 258.75199999999995 237.98299096679705
C 255.009 220.70399096679705 246.081 188.73599096679703 231.10299999999998 158.49599096679708
C 221.6 162.23899096679708 210.07999999999998 164.25499096679704 199.136 164.25499096679704
C 188.191 164.25499096679704 177.823 162.23899096679708 168.03300000000002 158.7839909667971
C 153.055 189.59999096679707 144.127 221.56699096679705 140.096 237.69699096679705
L 153.632 240.57699096679704
C 156.224 241.15199096679706 157.95300000000003 243.74299096679704 157.376 246.62299096679706
C 156.801 249.21599096679705 154.207 250.94399096679706 152.19299999999998 250.36899096679707
L 113.59899999999999 242.01499096679706
C 111.00800000000004 241.43999096679704 108.99099999999999 238.84699096679708 109.856 236.25499096679704
C 110.43299999999999 233.6639909667971 113.024 231.93699096679705 115.61599999999999 232.51199096679704
L 129.72899999999998 235.39199096679704
C 134.337 215.80699096679706 145.279 177.79099096679704 164.577 143.51899096679705
C 173.21599999999998 127.96699096679708 182.43099999999998 115.29699096679707 192.801 104.63899096679705
C 178.113 92.25499096679704 159.68 82.46299096679701 138.36700000000002 82.46299096679701
C 119.07100000000003 82.46299096679701 102.65700000000004 89.08699096679703 89.69600000000003 102.04699096679707
C 74.43299999999999 117.02399096679704 65.505 139.1999909667971 65.505 162.52799096679706
C 65.505 187.00799096679708 74.43299999999999 212.35299096679705 89.12099999999998 233.95099096679706
C 100.35300000000001 251.23199096679707 115.90300000000002 267.93399096679707 135.48900000000003 283.4859909667971
C 164.0 306.81399096679706 192.511 321.50299096679703 199.136 324.959990966797
Z

M 141.536 156.19099096679707
C 137.79200000000003 156.19099096679707 134.04899999999998 152.7359909667971 134.04899999999998 148.70299096679707
C 134.04899999999998 146.68699096679705 135.20100000000002 144.95999096679708 136.353 143.51899096679705
L 133.47199999999998 137.18399096679707
L 104.38400000000001 143.80699096679706
C 101.21500000000003 144.3849909667971 98.62400000000002 142.65499096679707 98.33600000000001 139.77499096679708
C 97.47199999999998 136.89499096679708 99.20100000000002 134.0149909667971 101.79200000000003 133.43999096679704
L 129.72899999999998 127.10299096679705
L 119.93600000000004 102.33599096679706
C 119.07100000000003 99.45599096679706 120.22300000000001 96.57599096679706 122.81700000000001 95.42399096679708
C 125.983 94.27099096679706 128.28700000000003 95.71299096679707 129.72899999999998 98.30399096679707
L 147.29500000000002 144.09599096679705
C 148.447 146.97599096679704 149.312 151.29499096679706 146.721 153.88799096679708
C 145.279 155.32699096679704 143.265 156.19099096679707 141.536 156.19099096679707
Z

M 158.24 119.90399096679704
C 153.34500000000003 119.90399096679704 149.312 115.58299096679707 149.312 110.40099096679705
C 149.312 105.50499096679704 153.055 101.18399096679707 158.24 101.18399096679707
C 163.425 101.18399096679707 167.45600000000002 105.21599096679705 167.45600000000002 110.68699096679705
C 167.45600000000002 115.29699096679707 163.425 119.90399096679704 158.24 119.90399096679704
Z

M 199.136 153.31099096679708
C 208.928 153.31099096679708 218.144 151.87199096679706 226.208 148.99199096679706
C 218.144 134.87899096679706 208.928 121.63199096679705 200.0 111.83999096679707
C 189.63299999999998 122.49499096679705 181.279 135.74299096679704 173.21599999999998 149.28099096679705
C 181.279 151.87199096679706 190.207 153.31099096679708 199.136 153.31099096679708
Z

M 284.67199999999997 212.35299096679705
C 282.08099999999996 213.50299096679709 279.2 212.35299096679705 278.048 209.75899096679706
L 264.512 179.51899096679705
C 263.647 176.92699096679706 264.512 174.04799096679704 267.103 172.60899096679708
L 303.68100000000004 154.75199096679705
C 305.12 154.17699096679706 306.272 154.17699096679706 307.711 154.46299096679707
C 309.153 155.04099096679704 310.01500000000004 155.90399096679704 310.88000000000005 157.34299096679706
L 321.824 182.97599096679704
C 322.97600000000006 185.56699096679705 321.824 188.73599096679703 319.521 189.88799096679708
C 316.927 191.04099096679704 313.761 189.88799096679708 312.60900000000004 187.29499096679706
L 303.68100000000004 166.55999096679705
L 294.752 170.87899096679706
L 299.07300000000004 180.67099096679704
C 300.225 183.55099096679703 299.07300000000004 186.43099096679708 296.479 187.58299096679707
C 293.888 188.73599096679703 291.007 187.58299096679707 289.85499999999996 184.99199096679706
L 285.537 175.48899096679708
L 276.031 179.80699096679706
L 287.26399999999995 205.72699096679708
C 288.70300000000003 208.03099096679705 287.26399999999995 211.19999096679703 284.67199999999997 212.35299096679705
Z

M 271.136 150.71999096679707
C 266.816 149.28099096679705 263.35999999999996 146.11199096679707 261.343 142.07999096679708
L 254.144 127.67999096679705
C 254.144 127.67999096679705 251.263 129.11899096679707 246.368 131.99899096679707
C 243.777 133.43999096679704 240.608 132.57599096679706 239.169 129.98299096679705
C 237.727 127.39199096679704 238.59199999999998 124.22299096679706 241.183 122.78399096679709
L 279.487 101.47199096679708
C 281.50399999999996 100.31999096679704 285.537 100.89499096679708 286.399 103.77499096679708
L 295.904 123.07299096679708
C 300.512 131.99899096679707 296.479 143.51899096679705 286.689 148.70299096679707
C 282.08099999999996 151.58299096679707 276.609 152.16099096679704 271.136 150.71999096679707
Z

M 282.08099999999996 139.77499096679708
C 286.112 137.47199096679708 289.28000000000003 132.28799096679705 286.689 127.67999096679705
L 279.777 113.28099096679705
L 263.07300000000004 122.49499096679705
L 270.559 137.47199096679708
C 272.57599999999996 141.50499096679704 277.761 141.79099096679704 282.08099999999996 139.77499096679708
Z"/>
</svg>
