<?xml version="1.0" encoding="utf-8"?>
<!-- Generator: Adobe Illustrator 27.0.0, SVG Export Plug-In . SVG Version: 6.00 Build 0)  -->
<svg version="1.1" id="a" xmlns="http://www.w3.org/2000/svg" xmlns:xlink="http://www.w3.org/1999/xlink" x="0px" y="0px"
	 viewBox="0 0 400 400" style="enable-background:new 0 0 400 400;" xml:space="preserve">
<style type="text/css">
	.st0{fill-rule:evenodd;clip-rule:evenodd;fill:#FDECEB;}
	.st1{fill-rule:evenodd;clip-rule:evenodd;fill:#E40045;}
</style>
<rect class="st0" width="400" height="400"/>
<path class="st1" d="M16,217.8c0,6.6,5.3,15.2,23,15.2c18.5,0,27.7-6,35.1-25.4l2.3-6h34.8v20.1c0,3.8-1.7,4.7-6.7,4.9l-5,0.2v5
	h46.9v-5l-5-0.2c-5-0.2-6.7-1.1-6.7-4.9v-53.6c0-3.3,1.7-4.5,7.5-4.8l5.9-0.3v-5H44.4v10h37.8v0.5c-18.8,4-22.7,8.3-25.5,22.9
	L53,211c-2,10.7-3.9,14-6.4,14c-2.1,0-3.4-1.3-7.2-7.9c-4.4-7.8-7.2-9.9-12.6-9.9C21.1,207.2,16,211.6,16,217.8L16,217.8z
	 M79.9,192.4c8.5-21.9,12.9-24.3,26.6-24.3h4.7v24.3H79.9z M152.6,211.6c0,13.6,5.4,20.9,25.5,20.9c15.8,0,22.9-4,25.9-10.3h0.2
	c2.8,6.8,9.9,10.3,23.9,10.3c17.3,0,24.1-4.8,26.6-11.1h0.2c3.8,7.3,11.1,11.6,23.9,11.6c8.4,0,14.2-2,18.8-8.6h0.2
	c1.7,5.6,5.1,8.2,14.1,8.2h2.9c8.7,0,14.1-1.8,19.3-6.4c5.2,4.4,12.4,6.8,20.7,6.8c16.2,0,25.4-10.3,25.4-19
	c0-5.4-2.1-9.5-12.2-16.6c-9.3-6.5-10.2-8.5-10.2-11.6c0-2.7,1.9-4.9,5.1-4.9c2.9,0,7.9,1.3,10.7,1.3c6.2,0,10.6-4,10.6-9.8
	c0-6-3.9-9.8-9.5-9.8c-6.5,0-14.2,2.5-25,23.5L335.9,213c-4.8,9.4-9,11.8-15.2,11.8c-3.5,0-4.6-1.4-4.6-5.1v-27.3H296v5.4h-0.2
	c-3.4-4.8-8.5-6.7-17-6.7c-16.4,0-26.4,8.7-26.4,20.9c0,8.4-5.6,12.7-16.5,12.7c-9,0-11.6-4.3-11.6-13.4v-11.8h6
	c18.3,0,27.5-10.8,27.5-24.5c0-13-5.9-22-23.3-22c-21.9,0-32,11.6-32,27.6v28.5c0,11.3-5.6,15.7-16.5,15.7c-9,0-11.6-4.3-11.6-13.4
	v-11.8h16.7v-7.2h-16.7v-14.2h-21.8V211.6z M224.3,189.9v-11.8c0-12.6,4.1-16.7,11.2-16.7c6,0,10.6,3.9,10.6,15.4
	c0,11.4-7,15.6-15.7,15.6H227C225,192.4,224.3,191.7,224.3,189.9L224.3,189.9z M273.5,212c0-8.5,4.4-13.4,10.9-13.4
	c6.5,0,10.9,5.4,10.9,13.4c0,8-4.4,13.4-10.9,13.4C277.8,225.4,273.5,220.6,273.5,212L273.5,212z M340.6,218.3
	c0-1.1,0.3-1.8,1.5-4.4l4.7-9c14.1,9.1,15.7,11.1,15.7,14.9c0,3.3-3.3,6.9-8.4,6.9C347.7,226.7,340.6,222.3,340.6,218.3L340.6,218.3
	z"/>
</svg>
