<?xml version="1.0" encoding="utf-8"?>
<!-- Generator: Adobe Illustrator 27.0.0, SVG Export Plug-In . SVG Version: 6.00 Build 0)  -->
<svg version="1.1" id="a" xmlns="http://www.w3.org/2000/svg" xmlns:xlink="http://www.w3.org/1999/xlink" x="0px" y="0px"
	 viewBox="0 0 400 400" style="enable-background:new 0 0 400 400;" xml:space="preserve">
<style type="text/css">
	.st0{fill:#FFFFFF;}
</style>
<image style="display:none;overflow:visible;" width="198" height="155" xlink:href="../../../../Downloads/czyk.png"  transform="matrix(2.0202 0 0 2.0202 -30 13.5843)">
</image>
<rect class="st0" width="400" height="400"/>
<path d="M48.2,277.3c0-42.5,19.6-59.4,47.7-59.1l0.8,33.6c-9.7-6.3-19.8,1.3-19.8,14.2c0,12.8,9.3,19.4,19.8,1.9v34.4
	c-8.1,9-17.4,13.2-26.7,13.2S48.2,306,48.2,277.3z"/>
<path d="M101.2,190.2l61.3-34.1l-10.6,34.1l39.6-17l4.1,38.7l19.8-50.7l15.7-5.1l-42.8-73.7h41l41.9,67.7l1.8-27.6h48.4l-8.8,37.8
	l57.1,40.5h-50.2l-35.9-29.5l16.6,29h-42.4l-16.6-28.1l-53,111.9l-39.6,18l25.3-52l-11-26.9l-0.5,26L98,282.3l23.9-70.9L101.6,222
	L101.2,190.2z M151.1,192.3L138.9,229l21.5-12.4L151.1,192.3z"/>
</svg>
