<?xml version="1.0" encoding="UTF-8"?>
<svg id="a" xmlns="http://www.w3.org/2000/svg" version="1.1" viewBox="0 0 400 400">
  <!-- Generator: Adobe Illustrator 29.1.0, SVG Export Plug-In . SVG Version: 2.1.0 Build 142)  -->
  <defs>
    <style>
      .st0 {
        fill: #232323;
      }

      .st1 {
        fill: #e0e2e1;
      }
    </style>
  </defs>
  <rect class="st0" width="400" height="400"/>
  <path class="st1" d="M272.7,251.3c6.3,0,12.6-5.7,12.6-12s-3.8-9.5-8.8-9.5-12.6,6.3-12.6,12.6,3.8,8.8,8.8,8.8ZM213.4,155.9h68.2l1.9-7.6h-50.5l-18.9,5.1-.6,2.5ZM164.1,265.8l3.8,28.4c5.1,2.5,12,4.4,17.7,4.4,20.2,0,32.8-18.3,42.9-61.9l19.6-87.1c9.5-42.3,19.6-42.9,25.3-42.9,8.8,0,15.2,5.1,20.2,14.5l10.1-21.5c-5.7-3.8-11.4-6.3-18.9-6.3-24.6,0-46.1,25.9-53,58.7l-21.5,103.5c-3.8,22.7-8.8,30.9-19.6,30.9s-19.6-6.9-26.5-20.8ZM130.7,174.3h48l-3.8,11.4-44.2-2.5v-8.8ZM104.8,105.4h92.2l-3.2,31.6c-5.7-17-12-22.7-26.5-22.7h-33.5c-.6,32.2-.6,74.5,0,116.8,0,6.9,5.7,13.3,15.2,18.3h-44.8c9.5-5.1,13.9-11.4,13.9-18.3.6-38.5.6-70.7,0-103.5,0-11.4-3.2-17-13.3-22.1Z"/>
</svg>