<?xml version="1.0" encoding="utf-8"?>
<!-- Generator: Adobe Illustrator 27.0.0, SVG Export Plug-In . SVG Version: 6.00 Build 0)  -->
<svg version="1.1" id="a" xmlns="http://www.w3.org/2000/svg" xmlns:xlink="http://www.w3.org/1999/xlink" x="0px" y="0px"
	 viewBox="0 0 400 400" style="enable-background:new 0 0 400 400;" xml:space="preserve">
<style type="text/css">
	.st0{fill:#FFFFFF;}
</style>
<path d="M400,400c-133.3,0-266.7,0-400,0C0,266.7,0,133.3,0,0c133.3,0,266.7,0,400,0C400,133.3,400,266.7,400,400z"/>
<path class="st0" d="M328.4,326.6c-21-31.4-41-61.3-61.4-91.8c27.2-14.9,54-29.6,82.1-45.1c-31-7.9-59.9-15.2-89.1-22.6
	c7.6-31.5,15-62.2,22.7-94.4c-30.8,20.1-60.2,39.3-90.1,58.8c-11.5-21.5-22.6-42.3-34.7-64.9c-4.2,27.7-8.1,53.1-12,78.8
	c-28.2,4.3-55.9,8.6-85.2,13.1c20.8,15.6,40.2,30.3,59.9,45.1c-13.7,24.4-27.1,48.1-41,72.7c26.3-4.4,51.6-8.6,77.2-12.9
	c3.7,26,7.2,51.1,11,77.8c12.8-17.7,24.5-33.8,36.4-50.2C245.3,302.8,286,314.5,328.4,326.6z"/>
</svg>
