<?xml version="1.0" encoding="UTF-8"?>
<svg id="a" xmlns="http://www.w3.org/2000/svg" version="1.1" viewBox="0 0 400 400">
  <!-- Generator: Adobe Illustrator 29.1.0, SVG Export Plug-In . SVG Version: 2.1.0 Build 142)  -->
  <rect width="400" height="400" fill="#fff"/>
  <path d="M 144.13213502468145 332.0651612314802
C 152.16506134971075 332.0651612314802 160.31142385456906 330.86211253606456 168.34779081830598 328.4869389345929
C 173.51746586373707 326.9642255319359 178.61495043482157 324.91903855382844 183.50276583978606 322.40638626058336
C 188.56931613175882 319.8043612789581 193.44337947164516 316.6867649788019 197.9874666779195 313.13948745077863
L 197.939350184774 313.09480110658853
L 194.6258053143196 310.10780222079063
C 192.92778717360983 308.57132626330326 191.54600359118615 307.22391759869896 190.6798123067976 306.3577158245582
C 182.96311005030196 312.1701714129318 174.51770569094353 316.45301134172877 165.57390173733572 319.08942173092566
C 157.88126297228894 321.3614600891867 150.1061327962772 322.41326753799854 142.46162101412807 322.2173399472046
C 135.026778398099 322.02829363382585 127.86348399616574 320.6636817756836 121.17109554807772 318.16479203726885
C 114.50620598526997 315.6762032354726 108.47033441057438 312.1220444300341 103.23192001925662 307.6020102254564
C 97.89038087448051 302.99262431200293 93.50097555351759 297.48267219634147 90.18399528923162 291.219933506864
C 89.35217367778651 291.4536661644328 87.56135269974124 291.8970889676259 84.77715219240028 292.2992450858322
C 83.08944547806117 292.546719318727 81.53579517385427 292.7048418427461 80.02682859139938 292.7838926150034
C 82.86258623059342 298.8575849911022 86.54047690760325 304.42252438757214 90.96082437499214 309.32753249632253
C 95.29179653156285 314.13284600057 100.32397715059216 318.29196979242386 105.91300101801535 321.68456543513565
C 117.09791429564858 328.4766379979745 130.31426248631104 332.0651612314802 144.13213502468145 332.0651612314802
Z

M 78.95439566740828 290.2987444519148
C 79.33593417774946 290.2987444519148 79.8068427540327 290.27468096046596 80.39117964283082 290.23687589369104
C 83.27849703631601 290.1406219278957 86.19674870891302 289.69722010420696 89.07375467602759 288.9272722958616
L 90.02931864879625 288.6557135920136
C 99.63308535938027 285.82339659152717 108.61470486951522 279.32006494657 116.72325181784649 269.3244430543981
C 121.24327553267206 263.75948267842386 125.29926932619148 257.49676496845063 129.121525217266 250.17535853225053
C 127.98035032495014 248.77638224604095 126.14484300271482 246.79650446486477 123.84873590812882 245.27035042350016
C 123.06160064087376 244.74100606038667 122.24009045579919 244.27354074524905 121.3326482210522 243.8438804968863
C 117.56538485566224 251.35090309750979 113.57126486524264 257.6686290677958 109.1199804963038 263.1545176920084
C 102.98787069044111 270.7062371265741 95.9620654700335 276.078710550462 88.79533567426871 278.697917746121
C 87.81914884875883 279.0485272222263 86.82233392563168 279.351009715434 85.74302759153953 279.6225474397777
C 84.22374958271404 280.01440262136555 82.80758846003278 280.27219877038317 81.4154908288003 280.41311810086427
L 81.22300125427593 280.42685967619036
L 81.1336338107719 280.4371815923131
L 80.58710461118667 280.4612450837619
C 80.20213070701399 280.48874921391837 79.81027814786424 280.4921688731216 79.4287422599611 280.49560951182923
L 79.03688970081129 280.49905015053685
C 77.8716513170466 280.4921688731216 76.70985094955148 280.4303003148979 75.76459840315346 280.32374541248413
C 75.41743218819371 280.29282162312444 75.16994746554667 280.26187685426044 74.96027567698867 280.2240717874855
L 74.35187529674172 280.1346990991054
C 72.32044300615053 279.78066996379675 70.37494014279378 279.2100694054486 68.56692908340074 278.4435622358109
C 58.34101648358664 274.0713286391295 52.13328474320302 263.67355062875123 53.470387226312795 253.15547614063325
C 54.43626393667111 245.58313385332633 58.47507027128077 239.46821675124946 64.27720263231248 236.79401178502985
C 67.51855965085849 235.3056733001923 70.92146934237896 235.06161872650074 74.11814001673488 236.08593253490824
C 76.17019778250534 236.74932544083975 78.4456794019121 235.9346912883044 79.64872809732776 234.10605475373208
C 80.49429915141309 232.81707400864386 80.68334808722989 231.2462336230892 80.16432039536309 229.79570020502652
C 79.63154063841807 228.30392108148138 78.44911479574364 227.1696222217046 76.91952536054751 226.6849642027812
C 74.73341380708291 225.9975078054008 72.47855766285545 225.65377960671063 70.19276461707807 225.65377960671063
L 70.19963802717913 225.6469088190476
C 69.66342287640259 225.6469088190476 69.12720772562608 225.6640910330812 68.59098995241155 225.70533673856372
C 65.73460946047625 225.90813511702066 62.90572654260228 226.6437184972987 60.18683654341167 227.8914535369044
C 51.294587754828285 231.9886877910303 45.15217537332339 240.97374793987282 43.76007614404277 251.92492331506116
C 41.873008288979996 266.7533628416369 50.497138438764594 281.3583706472623 64.72748573341647 287.4423639599795
C 67.17483145216832 288.4907307700837 72.27231864569089 290.25061746901713 78.92346138829646 290.2677996830508
L 78.95439566740828 290.2677996830508
L 78.95439566740828 290.2987444519148
Z

M 124.01028858110323 294.57472408280086
C 132.9850320586991 293.36823474867765 140.4679911678737 287.3117455661169 144.26962420620697 277.7904702664978
C 148.68997429603397 266.69835458132405 147.62785542085155 250.34722263159563 135.5801757629092 239.04199714159432
L 135.42206372864226 238.88387461757526
L 134.71054383981314 238.23079313801432
C 133.8168589150203 237.4333411995126 132.3972597760695 236.274978848287 130.54800038875598 235.04787715117467
L 130.2214544040994 234.8347568565949
L 129.85023256500497 234.5838419849925
L 128.27939217945024 233.63514879988685
C 128.09721665373456 233.52172310981007 127.90816509547972 233.40828692998107 127.73286560230312 233.3154840926455
C 127.20352123918966 233.00613081177474 126.7635495644563 232.76895751549839 126.39232248048577 232.57302992470443
L 126.38545169282278 232.60396420381628
C 114.99773479185646 226.78807846648735 102.6475831304585 227.69208530740292 92.22230623479999 235.46378533445917
C 81.09238548285137 243.7648192348768 72.94259020659959 260.03692139185216 75.38305989281227 277.76984741375657
C 76.5414248664759 277.9210886603604 79.37030647313091 278.19606702341173 82.68384609870922 277.80079218262057
C 83.66347356292673 277.6804747253764 84.55029032249446 277.4914284119977 85.29961790053662 277.2920601824962
C 83.07226064158951 263.0857888358738 89.53091380967066 249.76974079583232 98.12067813821777 243.36609326562595
C 105.35959840832906 237.96956684004124 113.72250086697035 237.29929265669455 121.70731069885423 241.27966058203594
L 122.37414424349333 241.63714084580434
C 123.88311082594825 242.44146357196914 125.3748899494934 243.39015675707472 126.8460462202973 244.52445561685153
C 128.14877378558768 245.54188814784385 129.31745280805995 246.62464036551967 130.3417613715914 247.762379864004
L 130.3486374041305 247.76926114141924
L 130.40019453598362 247.83112969964293
C 130.82641939051487 248.30889595139905 131.2113932946875 248.78668318265943 131.58262562353408 249.27821198924585
C 137.63223352867968 257.1324139170192 137.91409316914613 267.1108326156532 135.11615108647914 274.1366378360608
C 132.69630163056962 280.2034489347443 128.2381464739678 283.9844591203364 122.81067527951916 284.78191105883815
C 120.55238374146018 285.11531734140556 118.79936783018972 286.8958268930802 118.57250596028396 289.164445592138
C 118.26658807324476 292.2786222330909 120.90985876035244 294.9906427558376 124.01028858110323 294.57472408280086
Z

M 135.69017130403054 235.7765792540375
C 140.3545654777969 224.12075477768298 144.34868546821653 210.65691661949737 147.89939314519526 194.62543888725816
C 151.0204510635634 180.52570146354523 153.40248496294583 166.2506697915318 155.502669711614 153.65647404619446
L 155.7810887133729 152.0100130373378
L 150.5426638323029 144.56829963364578
C 149.44617003930105 143.0043352806302 148.51123940902582 141.70847850300288 147.7653446023772 140.7151042185833
L 145.84390523046935 152.04782334898883
C 143.84340459655192 164.04394063020203 141.57479638724624 177.63838669249813 138.62561305797533 191.14002991745863
C 135.29144533477967 206.40844111876768 131.59636719886012 219.20200509360657 127.32382820668164 230.23911251846746
C 128.48906659044633 230.84407750488288 129.7849233680736 231.59340246048694 131.17701837686806 232.47334580995368
C 132.7891044679052 233.48734819199063 134.30494708289913 234.60102419902614 135.69017130403054 235.7765792540375
Z

M 209.0245845925326 302.99950558941805
C 215.00889379049906 296.5442799478543 220.18200947463765 289.15756431472283 224.3960995677957 281.04558721743615
C 228.919574411081 272.33550543164483 232.3877801873426 262.69393365428596 234.70108523059042 252.3855283322879
C 239.8535675722357 229.43478979230272 239.40328447113174 203.0089641986407 233.36741814131227 173.84362444182784
C 233.05461373198173 172.3243516778784 232.70402523538073 170.71913637450425 232.2606024321875 168.79426685364092
C 231.1469264251521 170.33072183162403 230.16730945068676 171.75032097057482 229.34579402073612 173.01524871396634
C 226.32443070687088 177.66589082265452 224.73982776648586 180.29196880597644 224.72952682986744 180.30572087105463
L 224.71234461583376 180.33665515016648
L 224.6264125661613 180.2782167408982
C 229.57608603959733 206.54937093900094 229.6654587279775 230.31129250306182 224.89450965179734 250.91092093302427
C 222.74620840998367 260.18816263845605 219.59078606354822 268.8535371005529 215.5141746621637 276.6699129820471
C 211.71254162383036 283.96039562888757 207.0722109415128 290.5874643902921 201.72380100907367 296.3655555505983
L 201.71348958270303 296.3621149118907
C 202.67248370442712 297.4104817219949 204.2776990078012 299.0466313044809 206.52911451332113 300.93369575856934
L 209.0245845925326 302.99950558941805
Z

M 255.86785260068916 332.06172059277264
C 269.6857303839356 332.06172059277264 282.9020838194742 328.4731973592669 294.08699185223145 321.6811247964281
C 299.6760157196544 318.28852915371624 304.7047609448523 314.1294263413667 309.0357488360512 309.324091857615
C 313.45608843612604 304.4191047283689 317.13398435801184 298.8541443523946 319.9663013584983 292.78045197629586
C 318.4676514472901 292.7014012040385 316.91743391447676 292.54327868001945 315.23315734909306 292.2958044471246
C 312.44552669279665 291.8936483289183 310.65125458629154 291.45022552572516 309.81599758101504 291.21649286815637
C 306.4990330513572 297.47923155763385 302.10961724064214 302.99262431200293 296.7680885856182 307.6020102254564
C 291.5296532147961 312.1220444300341 285.49378688497666 315.67962289467584 278.8289130567972 318.16823267597647
C 272.13651411895705 320.66712241439114 264.97323020677584 322.0317342725334 257.53494695203915 322.22078058591217
L 255.73037390891568 322.244844077361
C 248.66676362173317 322.244844077361 241.5068993687553 321.18615535113406 234.41234431270883 319.0962820288365
C 225.73664793448916 316.5286424547828 217.5490397241484 312.4417091372755 210.07983268005202 306.94549859694007
C 209.25487661139377 306.34053361052463 208.37837390063467 305.663399129267 207.3196956641599 304.8075192712492
C 204.75547574930954 302.74515007910804 202.28406916154688 300.5074761489142 199.9707850978033 298.1563660388914
L 199.19739665075033 297.33829124764844
C 193.708056898078 291.587725197003 188.93710782189785 284.96407609480167 185.01516781607248 277.6564112339276
C 180.81480880848832 269.82285313839975 177.55283155963915 261.1162119913161 175.31515762944537 251.7805633458725
C 170.34141017480817 230.9987489004422 170.35516223988645 206.96871976099303 175.363284612343 180.35727800290772
C 174.2049222611174 178.41177513955103 172.45533649880247 175.56226543527876 170.6920196509136 173.03930171566304
L 167.72220297914933 168.84238334678645
C 167.31660622223546 170.60227004571985 166.95912595846707 172.24186026691348 166.63257997381044 173.8470650805354
C 160.45922446246533 203.6654863169092 160.1258076901458 230.60003342094345 165.64952236063755 253.9048010962373
C 168.1209289484002 264.3403841733904 171.79194359287087 274.0713286391295 176.55602188138806 282.8260967691108
C 180.990113546541 290.97587893317234 186.41070346357452 298.3591749071005 192.66656087563678 304.7662525862624
L 192.71811800748992 304.8178202078676
L 192.70436594241164 304.8178202078676
L 192.93810908973265 305.0515528654364
C 194.97297415171735 307.11736269628517 197.15565031135046 309.1350455442362 199.42768866961157 311.0461734897735
L 199.98109652417384 311.53426165765234
L 199.99140795054453 311.53426165765234
L 200.00171937691513 311.5308419984491
L 200.01203080328577 311.5308419984491
L 200.0189015909488 311.53770229635995
C 204.82078494624085 315.50433913612744 210.01108284441307 318.97942618980426 215.4385540388617 321.85987017318837
C 220.65291542848286 324.6268779767435 226.10443962462816 326.8576706295221 231.64533650915362 328.49382021200813
C 239.69544504821667 330.86211253606456 247.84524819178262 332.06172059277264 255.86785260068916 332.06172059277264
Z

M 199.8504781303113 271.32494368831556
C 206.8109741537876 271.32494368831556 214.30081454037744 264.36444766483925 214.30081454037744 249.08228439845197
C 214.30081454037744 243.39359739578234 213.6099175042894 237.3749132799965 212.24875677460693 231.19467649123612
C 210.98039888225998 225.440669801883 209.08645315075628 219.3429349138398 206.61504656299365 213.07332543669932
L 205.35012930935426 209.95914879574642
C 203.7896003501702 206.25031859474865 201.9815971580913 202.35932335778733 199.97421524675872 198.39269700777197
L 199.96390382038814 198.37207415503073
L 199.0324033390683 196.57437189957025
C 194.39551329545836 187.60994509322114 188.57275677046638 177.91337554530153 181.2341576304805 166.92438461358614
L 181.05885289242772 166.66658846456852
L 179.10991988011554 163.7552102020725
L 175.63139218773128 158.66115577994344
L 171.9363140518117 153.36086758552585
L 171.9363140518117 153.42617153758104
L 171.881316281251 153.34711552044766
C 167.8837556521238 147.6859116684302 163.81745567710982 142.07970558697343 159.88176360620636 136.6591104250639
L 159.816454409275 136.56974298155967
L 159.80614298290445 136.5800544079304
L 159.78552013016318 136.54568473498693
L 159.6514610975929 136.37037999693428
C 157.3106729036929 133.34557079948547 155.58172048387135 130.92916198228352 154.5402244614302 129.43738285873832
L 149.7039661883188 122.50782111437388
L 149.43242846397507 122.10565975129157
L 149.3464964143025 121.97504135742884
C 145.7270389016849 116.6369428513604 143.52718052801808 111.25416062353975 142.9840840998264 106.4041555302262
C 142.51317814598124 102.18661168617035 143.31406023343837 98.61871392784383 145.23894024405385 96.35698175107734
C 145.64453700096777 95.88263515852452 146.7135371535654 94.78270597169109 147.92345663664406 94.78270597169109
C 148.2259391298518 94.78270597169109 148.51811019668887 94.85145056245398 148.78621777207715 94.99238038268714
C 150.4498609949674 95.81045255149218 151.77665729658264 98.4777841076106 152.42285749872835 102.31035404749389
C 153.23406150230832 107.10879938651624 152.93157900910063 113.48152050492496 151.54979542667687 120.73762298906985
L 156.61634571864948 127.99028483450712
C 157.48253700303803 129.23801987411287 158.420918761773 130.5407526842793 159.33179639035154 131.7609835937286
C 159.84738868838693 129.05927974222868 160.27704893674962 126.90754310658349 160.68952697107875 124.98953912850715
C 166.82850756460445 96.40166547282934 157.4447319362631 88.34467696757014 153.12406596118697 86.20668715212707
C 147.94407948938533 83.64934982591092 141.9254058633516 85.1411302606752 137.78691541399112 90.00488348540989
C 131.94353603625794 96.86913603284302 129.55462610433636 111.11666881957615 142.04914297979903 128.67087044422448
L 147.55910558521268 136.33256968528337
L 147.58316907666145 136.3566331767322
C 147.77909666745538 136.5938064730085 149.5802290718713 138.77304199393404 152.6119143018593 143.12120160941458
L 157.6990874465732 150.3463698144476
C 161.74820520755347 155.9594519284435 165.075491653334 160.66165641386084 168.17592671896088 165.14730521086688
L 168.50246221386527 165.61821116471214
C 171.36228334450814 169.76701304044323 173.84056071993382 173.45865053765516 176.0782346501276 176.8993731632646
L 178.31590858032146 180.37103006798594
C 185.0254792424431 190.93036075133867 190.2432707810197 200.31757701838745 194.26145426288815 209.06889401990907
L 194.51925041190577 209.64292472721257
L 194.64642816706078 209.9316551553421
C 196.42006693107237 213.84671388375227 197.9565323988076 217.65178756079314 199.21801950349158 221.23687015559128
L 199.99140795054453 223.6017218409401
L 200.00859016457812 223.57078756182827
L 200.03265365602698 223.64296754642257
C 203.04371603327382 232.8617603528339 204.50799102666244 241.1834171059928 204.50799102666244 249.08228439845197
C 204.50799102666244 257.95048870826224 201.22195028636446 261.53213066435274 199.85391876901886 261.53213066435274
C 198.74711354964646 261.53213066435274 195.54012358160568 258.4729413042084 195.5332527939427 249.11322916731592
L 195.49543723741567 249.11322916731592
L 195.49543723741567 249.08228439845197
C 195.49543723741567 242.4964613425298 196.5644373900132 235.37785328478662 198.6714929263445 227.9223878160163
C 198.02184159573895 225.70190658960829 196.71567863661713 221.42248632001457 195.26170457984688 217.6689697748268
C 194.61206373899356 215.98814433790287 193.9761644734663 214.45511950887524 193.3746401257584 213.10425971581117
C 190.91354496436642 219.36011712787345 189.02303987157038 225.440669801883 187.758122617931 231.1774942772024
C 186.39695139849633 237.35084978854763 185.7026242134529 243.36609326562595 185.7026242134529 249.05136060909223
L 185.73355849256473 249.05136060909223
L 185.73355849256473 249.08228439845197
C 185.73355849256473 255.3793875159967 186.96754146709225 260.76904315391835 189.3014588733293 264.66004888063173
C 191.84161529673077 268.8947828060354 195.6879346792542 271.32494368831556 199.8504781303113 271.32494368831556
Z

M 97.31292001822149 180.2060367563039
C 111.99354844714888 184.04548535116425 125.64299752488168 179.9138656894668 133.82372970268332 169.14830647870173
C 141.62292337014387 158.88801764984925 142.51317814598124 145.11826160462442 136.08889727328145 134.0742781472244
C 127.74661242250525 119.71674981936985 113.54376597996222 118.39683479516987 103.87812546627842 123.24339924977596
C 99.88400547585881 125.25077591623233 96.42953603004722 128.39245144246564 94.14718100053939 132.09784100475576
C 91.64828077237252 136.15039415956767 90.61365553759431 140.7185448572909 91.14987068837087 145.3038777690477
C 91.33548685279416 146.86440148335566 92.22230623479999 148.21181539283612 93.58690760319011 149.00239129879867
C 94.94119230033358 149.78609117222226 96.54296696500008 149.88233464826544 97.97631292415304 149.26706348035543
C 99.95619070532922 148.42493044253968 101.13174051546454 146.34537379148884 100.89800261301963 144.09738843492443
C 100.6367710701705 141.56067789510655 101.28298176206837 139.03771417549092 102.76444945924294 136.8069162778362
C 104.08092908961146 134.8270437415361 106.0367433793388 133.1187141744557 108.27784745848804 131.99472149617355
C 113.7293768995095 129.2517719391911 122.06822635645413 129.44081825256978 127.61943466735025 138.9895871925932
C 132.0466502999641 146.61004597304554 131.4210729505596 156.11756396271042 126.02453603522284 163.2155544125884
C 120.22240236297209 170.83944334199626 110.66332199657818 173.57895750514714 99.79119739364714 170.72601765191948
C 88.30724226151378 167.72870733975094 79.7827818850219 158.75052846832358 76.40393306251228 146.09445367501036
C 71.98015020129182 129.49238062929902 77.72728610298186 110.82106498134556 91.40079604972553 97.36754087196857
C 108.27784745848804 80.76547044869534 132.9437863532166 74.75710103732763 155.7742074359577 81.69009883113307
C 162.60409555532357 83.75934274459428 169.19335924995323 86.93195386115855 175.35984397363544 91.11856473732155
C 181.44726743530802 95.2536145479744 187.19784397570564 100.42672236479888 192.44656979339405 106.49696361243787
L 193.8180524391994 108.09873565466631
C 195.921667336823 110.63888683319175 198.01153016936834 113.42308734053267 200.0292130173194 116.37227591467968
L 201.17383379321896 118.10122833450129
C 209.02802523124018 130.06984148555807 215.36637405426742 144.35862522264966 220.0135650344958 160.57228372548073
L 222.04501043727726 157.6093483311316
C 224.24485832119186 154.4023636079671 226.64065477540467 151.0544490645692 227.1218826453727 150.3807447322671
C 221.80439650229323 134.24614224656943 214.7579684291444 120.03297913277981 206.17507488826033 108.13654596631733
C 204.18832631942112 105.37640895042523 202.0984634868757 102.72282683694692 199.96734445909576 100.25485826545372
C 194.1067828673288 93.4387300784802 187.6481270768096 87.62284827480835 180.77700374171343 82.96533013358112
C 173.82681914460775 78.25281684423129 166.37135367583736 74.671168987655 158.61684635256694 72.32007166201777
C 132.34569215446427 64.34557423991873 103.9606221221195 71.26826339369404 84.52966746975324 90.38642199575105
C 68.34350785220252 106.3147880867221 61.59955964982336 128.62961949386602 66.93422013962234 148.62085278845757
C 71.18270088522812 164.5320287980809 82.53604286837492 176.34253515974692 97.31292001822149 180.2060367563039
Z

M 275.9862741401879 294.54377931393685
C 277.4161742157572 294.7328466068199 278.83921399341557 294.25850001426716 279.894462080935 293.2341757161074
C 280.9978371513521 292.165186053262 281.54435323874714 290.6768370786723 281.3862516942323 289.1541236760153
C 281.1628199732819 286.9267716619442 279.43387804321264 285.1393808328544 277.18244155818843 284.8059745502869
C 274.4670013762385 284.4037974525763 272.01621764121717 283.27293923150717 269.8919798908523 281.44774333564243
C 267.74711928774616 279.6053652257441 266.05252080623984 277.14770021330753 264.8529127495317 274.1435191134759
C 263.40238982122116 270.5000085991617 262.8455518177034 266.2137070521528 263.28895364139214 262.0683458151293
C 263.7873637253939 257.4073922800705 265.5197462941709 253.0111161714446 268.3005166525563 249.35384310229995
C 268.77486324510915 248.73169590185086 269.20796413217954 248.2023410489852 269.6273024644195 247.73831637255518
C 270.6825505519388 246.56963210520684 271.858095117198 245.47657895091254 273.126453009545 244.49696197644724
C 274.53231057316987 243.410779609816 276.0412614209964 242.43459278430612 277.6121018065512 241.59933577902945
L 278.2995582039315 241.22810345018289
C 286.3428064450836 237.2339834597632 294.7229016075107 237.98330841536733 301.89650743581467 243.33859962522163
C 306.28934290573295 246.61431844939693 310.0084845331013 251.60181796911218 312.3664759205393 257.3833287886217
C 314.9512977086265 263.7182369729413 315.765931861162 270.5893603080375 314.72444632847294 277.26113639313644
C 315.6181312532657 277.4914284119977 316.47059145208027 277.6564112339276 317.3230306713906 277.76296613634133
C 320.6743806086199 278.1685838727596 323.4963756929835 277.88328359358553 324.5791279106594 277.73548298568926
C 325.7271893252665 269.4000741674522 324.5756872719518 260.8790386950397 321.2518414648789 253.09016694370195
C 318.21327495747585 245.968107757499 313.4182833693511 239.7191421126041 307.7501877501662 235.49127897486346
C 302.59426476981344 231.64495959234006 296.9743171130307 229.45197200633632 291.05188696304003 228.97075462612054
C 290.233812171797 228.90544542918917 289.4122967418465 228.8710810011219 288.59422195060347 228.8710810011219
C 283.5517351500796 228.8710810011219 278.52643056358943 230.13255761605365 273.6317443709619 232.63489848292818
L 273.30175774759766 232.79989179461026
C 272.9442879735815 232.97862668161835 272.57649628344245 233.16424284604165 272.21558587071866 233.36704122449862
L 271.8546544784905 233.58703230674138
C 271.23938855545657 233.94450208075762 270.7203556187137 234.26073663904353 270.16351761519593 234.61133562539672
L 269.71667515279955 234.90694733094142
L 269.5757348428142 234.99630952956943
L 269.5207475620057 235.03412508609645
C 268.6614270652801 235.61158594235545 267.8777167021045 236.1718645845808 267.1352730239156 236.75276607954737
C 266.554371528949 237.20304918065136 266.0112751007573 237.6842665608672 265.48538186610347 238.1483017270494
L 265.33069998079213 238.2823502698674
C 259.41857076741996 243.4864002331179 255.51382346538048 250.30939658531645 254.0323557682059 258.0157979051935
C 252.74337502311766 264.72535807756304 253.35520030744397 271.74086236135224 255.7544374003645 277.76984741375657
C 257.6311799383302 282.478927931713 260.3844461665592 286.34587016697765 263.9317236945825 289.2710004945518
C 267.3930691729332 292.12394034777947 271.56249390140556 293.94569560493665 275.9862741401879 294.54377931393685
Z

M 179.99330386828993 160.55166087273946
C 184.57519614133915 144.56142360110664 190.81386084961568 130.43075714315796 198.53400374481885 118.55494682943663
C 198.1112142841191 117.89842995604431 197.23471157336002 116.5922617520464 195.45419153193322 114.07616882009376
C 194.47113391876027 112.68063317259168 193.43994932268964 111.35728013212213 192.3881418738779 110.14392001033582
C 184.46864123892541 121.59694348579535 177.9103118234075 135.11233353095793 172.89187802458034 150.31543553533572
L 177.704072806243 157.21749314954377
L 179.99330386828993 160.55166087273946
Z

M 321.0490325966698 290.30218509062234
L 321.0490325966698 290.27124032175834
L 321.07997736553375 290.27124032175834
C 327.7483128119252 290.25061746901713 332.8354859566391 288.4941714087913 335.2759477755378 287.4492452373947
C 349.50630359311333 281.3686925633851 358.12699171101997 266.7568034803445 356.24336789563927 251.92492331506116
C 354.851272886845 240.98061872753584 348.7088516546115 231.99899921740086 339.8166048328568 227.90176496327504
C 337.09770303269477 226.6471591360063 334.26882667091604 225.91157575572825 331.41244617898064 225.70877737727133
C 328.5766885397866 225.50941963752192 325.7718756694567 225.83939577113392 323.07015608332847 226.69183499044422
C 321.54744268067145 227.1696222217046 320.365016837997 228.30049093252595 319.83224232592806 229.7922700560711
C 319.3132093891852 231.2462336230892 319.50225570256396 232.82051464735147 320.3478346239634 234.11293603114729
C 321.55088331937907 235.9346912883044 323.8229216776401 236.75276607954737 325.87843057187047 236.09280332257129
C 329.07509862378845 235.05818857754525 332.47799520311855 235.3056733001923 335.71937057873083 236.8008825726929
C 341.5214832714771 239.47165738995704 345.56028960608694 245.5865744920339 346.5261650052262 253.16235741804843
C 347.86327273321206 263.67699126745885 341.65554230404746 274.07476927783705 331.42962839301435 278.45042253372173
C 329.6284959885985 279.2203913215714 327.6933045516123 279.784089623 325.67562170366125 280.1312584603978
L 325.65155821221265 280.14158037652055
L 324.905673895316 280.2549955768452
L 324.2353997119692 280.3340673286069
C 323.5479433145888 280.4062368234491 322.4308266688457 280.4921688731216 321.0112275298949 280.5024907892444
C 320.492194593152 280.5024907892444 320.0006657865657 280.5024907892444 319.48507348853025 280.4715460203804
L 318.8388627966324 280.4406222310207
L 318.64981648325363 280.42344001698706
L 318.58794792503 280.4165587395719
C 317.2680224110777 280.29282162312444 315.848423272127 280.0350254741068 314.25354037462785 279.63284837639617
C 313.1742287956595 279.3578700133449 312.1774086276563 279.0553875201372 311.21153322851706 278.7013583848285
C 304.037927400213 276.0890114870805 297.0121221798055 270.7165380631925 290.88688316160585 263.16483960813116
C 286.4424800700822 257.6926925592446 282.444919440955 251.371525950251 278.6673498940705 243.84731064584173
C 277.8114700360526 244.25291789250778 276.96247145545 244.73413527272365 276.14439666420697 245.27379106220772
C 273.7073545045116 246.89961872857094 271.8065484750971 249.04103869296944 270.8784781427328 250.17877819145383
L 270.8819187814404 250.1650366161278
C 274.63542483687604 257.37302785200325 278.8082902040559 263.81793157744426 283.2801764462316 269.3244430543981
C 291.39561516173023 279.32006494657 300.3806543310684 285.82339659152717 309.9810013824492 288.6557135920136
L 310.9296735880505 288.9307129345692
C 313.7791937820748 289.69377946549935 316.70432410964906 290.13376162998486 319.6260137985158 290.24031653239865
C 320.24472036025713 290.28156223788113 320.73280852813605 290.29530381320717 321.0490325966698 290.30218509062234
Z

M 264.30983730084426 235.76969797662235
C 265.24820856982717 234.96881588916514 266.78466354781017 233.75889640608648 268.81266831188407 232.47334580995368
C 270.6619276991976 231.31154282002052 271.9302855915446 230.62065627368472 272.6727292697335 230.23911251846746
C 268.4001902775549 219.18825302852838 264.70167150292787 206.39468905368946 261.37094441843976 191.12971849108797
C 258.4251912381243 177.6349460537905 256.15659351857073 164.04049999149447 254.15265224594577 152.04782334898883
L 252.23122336379004 140.69448136584197
C 251.34783937561576 141.88034260234792 250.49881981550868 143.06276844502236 249.62919838216484 144.30706284592043
L 244.21547925279438 151.99970161096724
L 244.34609764665692 152.7730900580202
L 244.49389825455324 153.66334483385754
C 246.59407251346926 166.24035836516123 248.97266577414416 180.49820782314097 252.10060496992742 194.62543888725816
C 255.65132313665833 210.65691661949737 259.6454431270779 224.11387350026783 264.30983730084426 235.76969797662235
Z

M 206.71129003903687 206.98934261373427
C 210.78791193017364 198.41676049922083 215.9747691896382 189.25983625103316 222.56748401272773 178.9961172732252
L 223.91833331603965 176.90281380197223
C 226.27630372397326 173.28335628935463 228.75115095044347 169.59514894109813 231.4940952625498 165.62165180341975
L 232.10936118558368 164.73482717653783
C 235.05855500460672 160.4794808881451 238.23804084249093 155.99382160138683 242.1084237164632 150.62478881620655
L 242.10154243904793 150.61791278366735
L 242.1153049938783 150.59728993092614
L 247.5599479126085 142.8634054603969
C 250.70850996113302 138.37088063085173 252.5130830042566 136.1950805037577 252.58869313780633 136.1057078153775
L 252.60587535184004 136.08852560134392
L 252.61963790667028 136.09539638900696
L 257.94742498636833 128.67087044422448
C 270.44881789437 111.13041826221627 268.0599027175724 96.87944745921362 262.2165233398391 90.00488348540989
C 258.07804338023084 85.1480049819952 252.05935926444488 83.65966125228158 246.87937279264327 86.20668715212707
C 242.5552661788595 88.34124026251965 233.16460927310305 96.39479206272824 239.30703050533643 124.98953912850715
C 239.72638981708062 126.94191802440298 240.159490704151 129.09365466004817 240.6647610860635 131.75067216735795
C 241.5997126958431 130.49606634008921 242.6033931617572 129.11084211895786 243.56238728348123 127.73592932419717
L 248.44677253949044 120.73074695653077
C 247.06497846731446 113.47808511109343 246.7624959741067 107.10536137024678 247.57371046743893 102.30347801495475
C 248.49145888368045 96.86569801657345 250.42320968195895 95.37391889302836 251.21033970433803 94.98550697258611
C 251.49563998351198 94.85145056245398 251.77749962397854 94.78614398796077 252.0731008397711 94.78614398796077
C 253.2898911105127 94.78614398796077 254.35546111415488 95.879199764693 254.75761723236133 96.3501057185382
C 256.6687451778985 98.59465305883316 257.4730783938154 102.13161391560959 257.02623593141914 106.30791205418308
C 256.51406329258714 111.09948398310445 254.3726433281886 116.42726844036429 250.83224707758052 121.71724520841133
L 250.43009095937418 122.30845812974849
L 245.6316377530376 129.1692752833501
C 243.00898991867115 132.94685007511066 240.44477000382076 136.20539193012826 240.42072749187628 136.23632620924013
L 229.87512789409746 150.86883814502198
L 229.5313996954073 151.36036695160846
L 228.11868183387173 153.34023948790852
L 224.13144312086717 159.03237761903785
L 220.9003896613777 163.74489877570196
L 220.9003896613777 163.76208098973555
L 220.8935083839625 163.76895177739857
C 212.79872399046158 175.68945368018592 206.42600024961493 186.12503675733905 201.41787787715836 195.67724633606994
C 201.73754258439968 196.32001638926025 203.32900582269568 199.4823200131108 204.97890747025983 203.11551910105447
L 206.71129003903687 206.98934261373427
Z

M 302.69051873560875 180.19916596864084
C 317.4605093631642 176.34253515974692 328.8104211973555 164.53546943678847 333.0554770388819 148.61397675591843
C 338.39700569390595 128.6261841000345 331.6565007526723 106.3147880867221 315.46689000666186 90.37954727443099
C 296.0359458440479 71.26482619693644 267.64742468324334 64.34213687925876 241.3797216136003 72.31319726850245
C 233.99986627837973 74.55430134765157 226.88470934909628 77.905651284881 220.2335561167386 82.28131175247034
C 213.65804448718708 86.60541181015896 207.4468734193149 91.98475864414803 201.7684768635116 98.26467168034509
C 203.07120967367803 99.780514295339 204.34987899239553 101.35822546855672 205.57355054055242 102.95312410068408
L 207.93840222590129 106.05355392143497
C 213.14245218915178 100.10361964128799 218.83459032028114 95.03362871060773 224.84982330760732 90.97419821203778
C 230.9509988343582 86.85633323785657 237.47153367285324 83.73184385931398 244.2292208281204 81.68322410981301
C 267.06996382698424 74.750226971617 291.7359027217128 80.75859572737528 308.5957666715657 97.36066746186748
C 322.2761447835343 110.81418894880642 328.0232911749765 129.48550459675988 323.59262965877895 146.08757764247127
C 320.2172162301008 158.74021704195297 311.6962017371925 167.72182606233574 300.212230870431 170.72601765191948
C 289.33324596958914 173.57208671748415 279.7707249644876 170.83257255433324 273.97889222885533 163.2086836249254
C 268.5789356543153 156.1072525363398 267.9533478151585 146.599734546675 272.3840093313562 138.98271640493016
C 277.9352071525001 129.43394746490685 286.27405660944464 129.244895906652 291.7255808055901 131.98784546363441
C 293.96669537449156 133.11527353574814 295.92250966421886 134.8270437415361 297.2389945394634 136.80348088400467
C 298.720462236638 139.0342735367832 299.3666729285359 141.55380186256752 299.10543614081064 144.09051764726144
C 298.87514412194946 146.34193839765737 300.04380740979354 148.42148980383217 302.02024455226206 149.26706348035543
C 303.4604665439541 149.87889925443392 305.065671357576 149.77922038455927 306.4199612995957 148.9955152662596
C 307.7776918803228 148.2083799990046 308.66451650720467 146.85753069569262 308.8466815431682 145.29700173650855
C 309.38633733265226 140.71166882475177 308.35171209787404 136.1469587657361 305.8562629981669 132.09440036604826
C 303.573902723783 128.38901080375803 300.11943852284753 125.2438998836933 296.1287381916311 123.24339924977596
C 292.92176920309487 121.63131315873864 289.212928512345 120.69981267741883 285.3803716846519 120.70324807125041
C 277.67741100348246 120.70324807125041 269.4898027931416 124.47394683047185 263.9145414805489 134.06740211468525
C 257.4902606078491 145.12170224333192 258.3805258734385 158.88801764984925 266.17969856139484 169.14142520128655
C 274.3570058351171 179.90012411414074 288.0030195190184 184.031733286086 302.69051873560875 180.19916596864084
Z"/>
</svg>