<?xml version="1.0" encoding="UTF-8"?>
<svg id="a" xmlns="http://www.w3.org/2000/svg" version="1.1" viewBox="0 0 400 400">
  <!-- Generator: Adobe Illustrator 29.1.0, SVG Export Plug-In . SVG Version: 2.1.0 Build 142)  -->
  <rect width="400" height="400" fill="#e6e6e6"/>
  <g display="none" opacity=".7">
    <path d="M294.1,211.3c20.7,34.3-3,99.6-65.6,99.6s-70.5-89.6-115.2-89.6-22.6,12.2-22.6,24.5,13.3,23.4,23.4,23.4c64,0,61.8-180.8,127.4-180.8s27.8,13.5,27.8,31c0,29.6-25.6,67.5-64.8,67.5s-75.1-24.8-58.3-74.9" display="none" fill="none" stroke="#bf00b7" stroke-linecap="round" stroke-miterlimit="10" stroke-width="20"/>
  </g>
  <polyline points="211.6 229.7 229.5 257.3 247.7 227.9" display="none" fill="none" stroke="#bf00b7" stroke-linecap="round" stroke-linejoin="round" stroke-width="20"/>
  <path d="M228.5,321.4c-42.2,0-62.2-26.3-77.2-50.3-2-3.2-6.4-3.9-9.4-1.5-7.9,6.4-17,10.2-27.7,10.2-16.1,0-33.4-12.8-33.4-33.4s2.9-17,8-23.2c6-7.3,14.7-11.3,24.6-11.3s20.8,4.6,28.4,11.5,7.3,1.7,8.9-1.7c3.8-8.6,7.4-18,10.9-27.8s-.1-7.2-3.2-9.3c-6.3-4.1-11.6-9.2-15.8-15-8.1-11.2-15.6-30.7-5.9-59.8,1.7-5.1,7.1-8.2,12.2-6.8s8.7,7.4,6.8,12.8c-5.7,17.1-4.7,31.2,3.1,42.1,1.6,2.3,3.6,4.4,5.9,6.4s6.8,1.2,8-2.1c15.3-43.1,32.9-83.2,68.9-83.2s37.8,16.1,37.8,41-7.5,36.7-20.1,51.4c-14.5,16.9-33.9,26.1-54.7,26.1s-10.5-.4-15.5-1.3-7.6,1.5-9,5.2c-5.3,14.8-11,29.1-17.6,41.4s-1.4,5.9.2,8.5.8,1.2,1.1,1.8c14.4,23.7,29.4,48.2,64.7,48.2s48.2-19.2,54.7-30.7c10.1-17.8,11-39.4,2.3-53.8-2.9-4.7-1.3-10.9,3.4-13.7,4.7-2.9,10.9-1.3,13.7,3.4,12.5,20.6,11.6,49.7-2.1,73.9-14.7,26-41,40.9-72.1,40.9ZM113.4,231.8c-9.9,0-12.6,9.1-12.6,14.5,0,10,9.2,13.4,13.4,13.4,6.3,0,11.9-2.7,17-7.4s3.3-7.5.7-10.5c-5.6-6.4-11.3-9.9-18.5-9.9ZM191.2,169.9c-1.1,3.2.9,6.7,4.3,7.1s6,.6,9.1.6c14.9,0,28.9-6.8,39.5-19.2,9.4-11,15.3-25.7,15.3-38.4s-6-21-17.8-21c-23.1,0-37.4,34.1-50.4,70.9Z"/>
  <path d="M229,267.7c-3.4,0-6.5-1.7-8.4-4.6l-17.7-27.3c-2.9-4.5-2.1-10.6,2.2-13.7s11.3-2.2,14.4,2.6l4.8,7.5c2.1,3.2,6.8,3.1,8.8,0l5.4-8.7c2.8-4.5,8.7-6.4,13.4-3.9s6.8,9.2,3.8,14.1l-18.2,29.4c-1.8,2.9-5,4.7-8.4,4.7,0,0,0,0-.1,0Z"/>
</svg>