<?xml version="1.0" encoding="UTF-8"?><svg id="a" xmlns="http://www.w3.org/2000/svg" viewBox="0 0 400 400"><defs><style>.b{fill:#02a73c;}.c{fill:#020402;}</style></defs><path class="b" d="M400,400H0V0H400V400ZM115.48,120.51c-1.34-1.82-2.17-2.84-2.88-3.94-2.34-3.64-4.57-7.35-6.98-10.95-5.03-7.52-13.18-7.13-17.34,.78-.62,1.18-1.18,2.39-1.75,3.59-5.11,10.85-10.35,21.6-18.04,30.97-2.76,3.36-2.29,7.66,.7,11.46,2.52,3.2,6.07,3.87,10.33,1.91,3.6-1.65,6.3-4.33,8.29-7.7,2.79-4.73,5.46-9.53,8.22-14.27,.62-1.06,1.43-1.99,2.42-3.35,1.39,2.16,2.45,3.84,3.54,5.5,1.64,2.51,3.15,5.11,4.97,7.48,4.22,5.49,10.17,5.73,14.96,.66,1.14-1.2,2.09-2.59,3.04-3.94,3.74-5.3,7.44-10.64,11.19-15.94,.93-1.32,2-2.54,3.44-4.34,1.01,2.45,1.88,4.22,2.49,6.07,4.03,12.33,8.04,24.67,11.97,37.03,1.46,4.6,2.51,9.33,4.12,13.87,1.8,5.08,5.91,7.18,10.55,5.87,5.38-1.52,7.58-4.93,6.7-10.49-.23-1.48-.59-2.94-.96-4.38-6.06-23.56-14.09-46.47-23.04-69.07-.55-1.39-1.12-2.8-1.91-4.06-3.67-5.85-11.3-6.26-15.56-.83-1.02,1.3-1.82,2.78-2.73,4.17-5.11,7.77-10.23,15.54-15.73,23.9Zm-.37,150.27c-.9,2.97-1.75,5.16-2.22,7.43-1.01,4.87,.43,7.6,4.89,9.64,1.05,.48,2.16,.95,3.29,1.14,4.2,.71,6.64,3.32,8.44,7,5.33,10.92,10.79,21.77,16.25,32.62,.89,1.76,1.82,3.6,3.13,5.04,2.63,2.88,7.08,3.55,10.59,1.94,3.17-1.45,4.99-4.61,4.57-8.66-.2-1.94-.84-3.91-1.67-5.69-3.81-8.14-7.76-16.21-11.64-24.32-.67-1.4-1.24-2.85-2.2-5.07,2.93,0,4.9,.05,6.88,0,7.65-.24,15.31-.39,22.95-.83,5.85-.33,8.44-3.27,8.46-8.95,.02-5.6-2.67-8.41-8.56-8.86-1.33-.1-2.66-.06-4-.04-9.66,.09-19.32,.22-28.97,.26-1.69,0-3.39-.3-6.12-.57,2.73-3.28,4.71-5.69,6.72-8.07,6.44-7.65,12.81-15.36,17.59-24.2,1.1-2.03,2.2-4.17,2.69-6.4,1.4-6.34-3.88-11.57-10.29-10.49-3.66,.62-5.76,3.02-7.38,6.11-4.66,8.93-10.92,16.7-17.61,24.16-.71,.79-1.64,1.38-2.59,2.15-.65-.81-1.09-1.29-1.46-1.83-2.33-3.45-4.45-7.06-7.01-10.33-2.87-3.67-7.74-4.28-11.71-1.91-4.05,2.41-5.38,6.65-3.4,11.25,.65,1.52,1.57,2.93,2.43,4.35,2.65,4.41,5.32,8.81,7.94,13.15ZM263.68,103.02c-1.88-1.22-3.34-1.97-4.56-3-7.49-6.36-15.04-12.66-22.35-19.22-5.08-4.56-9.71-9.61-14.72-14.26-3.39-3.14-7.45-3.56-11.08-1.63-3.95,2.09-4.9,5.62-4.66,9.7,.04,.66,.18,1.32,.27,1.98,2.52,18.31,5.02,36.63,7.59,54.93,.53,3.79,.99,7.63,2.05,11.29,1.29,4.46,5.3,6.62,9.74,5.88,4.34-.73,7-3.62,7.12-8.3,.07-2.98-.26-5.98-.64-8.95-1.13-8.92-2.42-17.81-3.52-26.73-.18-1.48-.84-3.26,1.06-4.82,1.37,1.08,2.63,2.1,3.91,3.1,10.21,8.05,20.42,16.08,30.62,24.14,7.13,5.63,14.59,1.07,15.81-6.19,.3-1.8,.46-3.63,.6-5.46,.93-12.12,1.88-24.25,2.72-36.38,.29-4.15,.62-8.34,.33-12.47-.38-5.35-3.78-7.93-9.14-7.64-5.26,.29-8.23,3.27-8.66,9.06-.5,6.64-.74,13.31-1.19,19.95-.32,4.77-.8,9.53-1.27,15Zm14.25,120.98c-2.36-1.93-4.26-3.47-6.14-5.04-4.85-4.06-9.6-8.26-14.56-12.18-4.68-3.7-9.65-3.42-12.97,.41-3.43,3.95-2.86,9.17,1.48,13.35,.6,.58,1.24,1.12,1.86,1.66,6.01,5.27,12.02,10.54,18.05,15.8,5.16,4.5,5.32,5.15,2.81,11.53-6.65,16.88-13.32,33.76-19.92,50.66-.72,1.84-1.36,3.79-1.58,5.74-.51,4.45,1.44,7.56,5.35,9.1,3.74,1.47,7.72,.46,10.24-2.88,1.08-1.43,1.88-3.15,2.54-4.83,5.71-14.56,11.32-29.17,17.07-43.72,1.59-4.02,3.1-8.16,5.39-11.78,2.89-4.55,5.61-8.91,5.55-14.57-.02-1.56,.96-3.16,1.56-4.7,2.71-6.98,5.49-13.94,8.17-20.93,.65-1.7,1.25-3.47,1.51-5.26,.61-4.27-1.35-7.67-5.11-9.33-3.7-1.63-7.68-.8-10.36,2.49-1.24,1.52-2.17,3.36-2.93,5.18-2,4.75-3.81,9.59-5.74,14.37-.6,1.49-1.33,2.93-2.26,4.95Z"/><path class="c" d="M115.48,120.51c5.5-8.36,10.62-16.12,15.73-23.9,.91-1.39,1.71-2.87,2.73-4.17,4.26-5.43,11.89-5.02,15.56,.83,.79,1.26,1.36,2.67,1.91,4.06,8.95,22.6,16.98,45.5,23.04,69.07,.37,1.45,.73,2.91,.96,4.38,.88,5.56-1.31,8.96-6.7,10.49-4.64,1.31-8.74-.79-10.55-5.87-1.61-4.54-2.66-9.28-4.12-13.87-3.94-12.36-7.94-24.7-11.97-37.03-.61-1.85-1.48-3.62-2.49-6.07-1.44,1.8-2.51,3.03-3.44,4.34-3.75,5.3-7.45,10.63-11.19,15.94-.96,1.36-1.91,2.74-3.04,3.94-4.79,5.06-10.74,4.83-14.96-.66-1.82-2.37-3.33-4.98-4.97-7.48-1.09-1.66-2.15-3.34-3.54-5.5-.99,1.35-1.8,2.29-2.42,3.35-2.77,4.74-5.44,9.54-8.22,14.27-1.99,3.37-4.68,6.05-8.29,7.7-4.26,1.95-7.81,1.28-10.33-1.91-2.99-3.79-3.47-8.09-.7-11.46,7.69-9.36,12.93-20.12,18.04-30.97,.57-1.2,1.13-2.41,1.75-3.59,4.16-7.91,12.31-8.3,17.34-.78,2.4,3.6,4.63,7.31,6.98,10.95,.71,1.1,1.54,2.12,2.88,3.94Z"/><path class="c" d="M115.12,270.79c-2.62-4.34-5.3-8.74-7.94-13.15-.85-1.43-1.77-2.84-2.43-4.35-1.98-4.6-.65-8.84,3.4-11.25,3.98-2.37,8.84-1.76,11.71,1.91,2.56,3.27,4.68,6.88,7.01,10.33,.36,.54,.81,1.02,1.46,1.83,.94-.78,1.88-1.36,2.59-2.15,6.69-7.46,12.95-15.23,17.61-24.16,1.62-3.09,3.71-5.49,7.38-6.11,6.41-1.08,11.69,4.16,10.29,10.49-.49,2.23-1.6,4.37-2.69,6.4-4.78,8.85-11.15,16.56-17.59,24.2-2.01,2.38-3.99,4.79-6.72,8.07,2.73,.27,4.43,.58,6.12,.57,9.66-.05,19.32-.17,28.97-.26,1.33-.01,2.67-.06,4,.04,5.89,.46,8.57,3.26,8.56,8.86-.02,5.69-2.61,8.62-8.46,8.95-7.64,.44-15.3,.59-22.95,.83-1.97,.06-3.95,0-6.88,0,.96,2.22,1.53,3.67,2.2,5.07,3.88,8.11,7.83,16.18,11.64,24.32,.83,1.78,1.47,3.75,1.67,5.69,.42,4.05-1.4,7.21-4.57,8.66-3.51,1.61-7.96,.94-10.59-1.94-1.31-1.44-2.24-3.27-3.13-5.04-5.46-10.85-10.92-21.71-16.25-32.62-1.8-3.68-4.24-6.29-8.44-7-1.13-.19-2.24-.66-3.29-1.14-4.46-2.04-5.9-4.77-4.89-9.64,.47-2.27,1.31-4.45,2.22-7.43Z"/><path class="c" d="M263.68,103.02c.47-5.47,.95-10.23,1.27-15,.45-6.65,.7-13.31,1.19-19.95,.43-5.79,3.4-8.78,8.66-9.06,5.36-.29,8.76,2.29,9.14,7.64,.29,4.13-.04,8.32-.33,12.47-.84,12.13-1.79,24.25-2.72,36.38-.14,1.83-.3,3.66-.6,5.46-1.22,7.25-8.68,11.82-15.81,6.19-10.19-8.06-20.41-16.09-30.62-24.14-1.27-1-2.54-2.01-3.91-3.1-1.89,1.56-1.24,3.34-1.06,4.82,1.11,8.92,2.39,17.81,3.52,26.73,.38,2.97,.71,5.97,.64,8.95-.12,4.68-2.77,7.57-7.12,8.3-4.44,.74-8.44-1.42-9.74-5.88-1.06-3.65-1.52-7.5-2.05-11.29-2.57-18.31-5.07-36.62-7.59-54.93-.09-.66-.23-1.32-.27-1.98-.24-4.09,.71-7.62,4.66-9.7,3.64-1.92,7.7-1.51,11.08,1.63,5.01,4.64,9.64,9.7,14.72,14.26,7.31,6.56,14.86,12.86,22.35,19.22,1.22,1.03,2.68,1.78,4.56,3Z"/><path class="c" d="M277.93,224c.93-2.02,1.66-3.46,2.26-4.95,1.93-4.78,3.74-9.62,5.74-14.37,.77-1.82,1.7-3.66,2.93-5.18,2.68-3.28,6.66-4.12,10.36-2.49,3.76,1.66,5.72,5.06,5.11,9.33-.25,1.79-.86,3.56-1.51,5.26-2.68,6.99-5.46,13.95-8.17,20.93-.6,1.55-1.58,3.14-1.56,4.7,.06,5.66-2.66,10.02-5.55,14.57-2.29,3.61-3.81,7.76-5.39,11.78-5.74,14.55-11.35,29.15-17.07,43.72-.66,1.69-1.45,3.4-2.54,4.83-2.52,3.34-6.5,4.35-10.24,2.88-3.91-1.54-5.86-4.65-5.35-9.1,.22-1.95,.86-3.89,1.58-5.74,6.61-16.9,13.27-33.78,19.92-50.66,2.51-6.38,2.35-7.03-2.81-11.53-6.03-5.25-12.03-10.53-18.05-15.8-.63-.55-1.26-1.09-1.86-1.66-4.34-4.18-4.91-9.39-1.48-13.35,3.32-3.82,8.29-4.11,12.97-.41,4.96,3.93,9.71,8.12,14.56,12.18,1.88,1.57,3.78,3.11,6.14,5.04Z"/></svg>