<?xml version="1.0" encoding="UTF-8"?><svg id="a" xmlns="http://www.w3.org/2000/svg" viewBox="0 0 400 400"><defs><style>.b{fill:#fff;}.c{fill:#143755;}</style></defs><rect class="b" x="0" y="0" width="400" height="400"/><path class="c" d="M354.11,183.73h21.88v10.94h-10.98v10.91h10.98v32.86h-21.88v-10.91h10.91v-10.98h-10.91v-32.83Zm-32.83,0h21.88v10.94h-10.91v21.88h-10.98v-32.83Zm-43.77,0h10.98v21.85h10.91v-21.85h10.94v32.83h-32.83v-32.83Zm-32.83,10.34h10.98v10.98h-10.98v-10.98Zm21.88,44.3l-.07-10.91h-21.81v-10.91h21.88v-32.83h-32.79v54.64h32.79Zm-65.62-65.55h10.98v10.91h10.91v10.94h-10.91v10.98h-10.98v-32.83Zm-21.92-10.84h10.98v10.94h-10.98v-10.94Zm0,21.74h10.98v21.85h-10.98v-21.85Zm-43.73,0h32.83v32.83h-10.94v-21.88h-10.91v21.88h-10.98v-32.83Zm-32.76,11.51h10.91v10.94h-10.91v-10.94Zm21.85,21.32v-32.83h-32.83v32.83h32.83ZM26,172.82h54.71v43.73h-10.98v-32.83h-10.91v32.83h-10.94v-32.83h-10.91v32.83h-10.98v-43.73Z"/></svg>