<?xml version="1.0" encoding="UTF-8"?>
<svg id="a" xmlns="http://www.w3.org/2000/svg" version="1.1" viewBox="0 0 400 400">
  <!-- Generator: Adobe Illustrator 29.1.0, SVG Export Plug-In . SVG Version: 2.1.0 Build 142)  -->
  <rect y="0" width="400" height="400"/>
  <polygon points="40.4 229 53.4 229 53.4 195.6 74.6 222.1 96 196.1 96 228.9 108.9 228.9 108.9 169.6 100.8 169.6 75 203.3 48.6 169.9 40.4 169.9 40.4 229" fill="#fff"/>
  <path d="M339.9,219.5c-6.6,0-11.5-5.5-11.5-12.6s4.9-12,11.5-12,11.5,5.5,11.5,12-4.9,12.6-11.5,12.6ZM339.9,231c13.1,0,24-10.4,24-24s-10.9-23.5-24-23.5-24,10.4-24,23.5,10.9,24,24,24ZM280.9,193.9v11.5h27.9v-11.5h-27.9ZM272.2,168.7v59.6h13.7v-48.1h24.6v-11.5h-38.2ZM214.2,185.1l19.1,41-8.7,20.2h13.1l27.3-61.2h-13.1l-12,27.9-13.1-27.9h-12.6ZM162.9,168.7v11.5h19.7v48.1h13.7v-48.1h19.7v-11.5h-53ZM142.7,219.5c-6.6,0-11.5-5.5-11.5-12.6s4.9-12,11.5-12,11.5,5.5,11.5,12-4.9,12.6-11.5,12.6ZM142.7,231c13.1,0,24-10.4,24-24s-10.9-23.5-24-23.5-24,10.4-24,23.5,10.9,24,24,24ZM40,228.8h13.7v-33.3l20.8,25.1,21.3-25.1v33.3h13.7v-59.6h-8.2l-26.8,33.3-26.2-33.3h-8.2v59.6Z" fill="#fff"/>
</svg>