<?xml version="1.0" encoding="UTF-8"?><svg id="a" xmlns="http://www.w3.org/2000/svg" viewBox="0 0 400 400"><defs><style>.b{fill:#fac602;}.c{fill:#fac601;}.d{fill:#f8c503;}.e{fill:#f5c203;}.f{fill:#f6c304;}.g{fill:#f6c305;}.h{fill:#fbc601;}.i{fill:#efbe08;}.j{fill:#fcc800;}.k{fill:#fdc800;}.l{fill:#fbc701;}.m{fill:#20150b;}</style></defs><path class="k" d="M400,400H0V0H400V400Zm-92.33-80.04c12.98-59.47,25.87-118.55,38.77-177.69-54.21-31.19-107.95-62.11-161.7-93.03-46.42,41.67-92.49,83.03-138.75,124.56,25.35,55.26,50.61,110.34,75.96,165.6,62.06-6.49,123.62-12.94,185.72-19.44Z"/><path class="m" d="M307.67,319.96c-62.09,6.5-123.66,12.94-185.72,19.44-25.35-55.26-50.61-110.34-75.96-165.6,46.27-41.54,92.33-82.89,138.75-124.56,53.75,30.92,107.49,61.84,161.7,93.03-12.9,59.14-25.8,118.22-38.77,177.69Zm-.11-84.1c-2.45-13.08-5.24-26.05-7.19-39.16-1.26-8.42-4.63-15.41-10.18-21.69-5.5-6.23-10.68-12.75-16.02-19.13-8.1-9.68-16.21-19.34-24.35-29.06-36.09,9.81-71.82,19.52-107.33,29.18-3.44,40.17-6.81,79.52-10.21,119.15,29.51,10.73,58.78,21.38,88.63,32.24,17.65-8.84,35.63-17.73,53.46-26.9,2.71-1.39,5.28-3.7,7.03-6.2,8.76-12.52,17.23-25.25,26.16-38.43ZM141.45,98.22c-20.43,43.72-40.77,87.25-61.15,130.88,15.38,14.16,30.31,27.9,45.24,41.65l1.21-.78c3.41-39.5,6.81-78.99,10.23-118.68,38.46-10.43,76.66-20.79,115.05-31.2,14.02,16.8,27.96,33.5,41.9,50.2l1.26-.76c-3.49-18.15-6.98-36.31-10.47-54.47-47.87-5.63-95.22-11.2-143.27-16.85Zm-66.13,124.11l1.51,.04c17.56-37.59,35.12-75.17,52.68-112.76l-1.46-.92c-24.72,22.17-49.44,44.35-74.34,66.68,7.28,15.82,14.45,31.38,21.61,46.94Zm194.61-114.94l.37-1.59c-28.18-16.22-56.36-32.43-84.72-48.75-12.88,11.58-25.63,23.05-38.39,34.52l.53,1.43c40.74,4.8,81.47,9.59,122.21,14.39ZM88.3,245.12l-1.97,1.41c13.18,28.74,26.37,57.47,39.52,86.14,17.11-1.79,33.55-3.51,49.99-5.23l.77-1.35c-29.4-27.03-58.34-54.56-88.31-80.97Zm251.04-99.64l-46.69-26.79-1.01,.77c.77,4.19,1.54,8.39,2.33,12.58,2.46,13.2,5.25,26.35,7.31,39.61,2.4,15.42,14.85,23.85,23.36,35.02,.12,.16,.62,.02,1.3,.02,4.44-20.3,8.9-40.66,13.39-61.2Zm-81.13,173.35c15.61-1.65,30.04-3.18,44.22-4.68,3.38-15.4,6.56-29.87,9.73-44.34l-1.22-1.11c-9.47,5.05-18.97,10.05-28.37,15.23-1.38,.76-2.41,2.3-3.36,3.65-6.13,8.7-12.2,17.44-18.24,26.21-.91,1.32-1.55,2.82-2.75,5.05Zm-73.58,6.5c9.19-4.6,18.14-9.07,27.09-13.55l-.41-1.53c-22.3-8.11-44.61-16.22-66.91-24.32l-.94,1.39c13.67,12.62,27.34,25.24,41.18,38.02Zm84.23-33.71l-.83-1.14c-12.59,6.3-25.18,12.6-37.78,18.91l.28,1.32c6.58,2.49,13.15,4.99,19.97,7.57,6.23-9.05,12.3-17.86,18.36-26.66Zm39.39-94.68l-1.63,.73c1.85,9.76,3.7,19.52,5.55,29.28l1.42,.48c2.97-4.34,5.93-8.68,8.98-13.14-4.99-6.05-9.65-11.7-14.31-17.35Zm1.28,49.68l-1.6-.4c-5.75,8.29-11.51,16.58-17.26,24.87l1.12,.89c6.85-3.51,13.7-7.02,20.73-10.62-1.06-5.22-2.03-9.98-2.99-14.74Zm-105.72,75.88l.56,1.85c10.24-1.01,20.48-2.02,30.73-3.03,.07-.68,.15-1.36,.22-2.03-4.77-1.86-9.54-3.71-14.22-5.53-5.97,3.02-11.63,5.89-17.29,8.75Zm116.56-91.28l-1.54-.77c-1.64,2.3-3.28,4.6-4.88,6.86,.79,3.01,1.5,5.72,2.21,8.43l1.39-.04c.94-4.83,1.89-9.65,2.83-14.48Z"/><path class="j" d="M307.56,235.86c-8.93,13.18-17.39,25.91-26.16,38.43-1.75,2.5-4.32,4.81-7.03,6.2-17.83,9.16-35.8,18.05-53.46,26.9-29.86-10.86-59.13-21.51-88.63-32.24,3.4-39.63,6.77-78.98,10.21-119.15,35.52-9.65,71.24-19.37,107.33-29.18,8.15,9.72,16.26,19.38,24.35,29.06,5.34,6.38,10.52,12.9,16.02,19.13,5.55,6.28,8.92,13.27,10.18,21.69,1.95,13.1,4.75,26.08,7.19,39.16Z"/><path class="l" d="M141.45,98.22c48.05,5.65,95.4,11.22,143.27,16.85,3.49,18.16,6.98,36.31,10.47,54.47l-1.26,.76c-13.94-16.7-27.88-33.4-41.9-50.2-38.39,10.41-76.59,20.77-115.05,31.2-3.42,39.68-6.83,79.18-10.23,118.68l-1.21,.78c-14.93-13.74-29.86-27.49-45.24-41.65,20.38-43.63,40.72-87.15,61.15-130.88Z"/><path class="l" d="M75.33,222.33c-7.17-15.56-14.33-31.13-21.61-46.94,24.9-22.33,49.62-44.51,74.34-66.68l1.46,.92c-17.56,37.59-35.12,75.17-52.68,112.76l-1.51-.04Z"/><path class="c" d="M269.93,107.39c-40.74-4.8-81.47-9.59-122.21-14.39l-.53-1.43c12.76-11.47,25.51-22.94,38.39-34.52,28.36,16.32,56.54,32.53,84.72,48.75l-.37,1.59Z"/><path class="h" d="M88.3,245.12c29.97,26.41,58.91,53.94,88.31,80.97l-.77,1.35c-16.44,1.72-32.88,3.44-49.99,5.23-13.15-28.67-26.34-57.41-39.52-86.14l1.97-1.41Z"/><path class="l" d="M339.34,145.48c-4.49,20.54-8.95,40.9-13.39,61.2-.68,0-1.18,.14-1.3-.02-8.52-11.17-20.96-19.6-23.36-35.02-2.07-13.26-4.85-26.41-7.31-39.61-.78-4.19-1.55-8.39-2.33-12.58l1.01-.77,46.69,26.79Z"/><path class="c" d="M258.21,318.83c1.2-2.22,1.84-3.73,2.75-5.05,6.04-8.76,12.12-17.5,18.24-26.21,.95-1.35,1.99-2.89,3.36-3.65,9.4-5.18,18.9-10.18,28.37-15.23l1.22,1.11c-3.18,14.47-6.35,28.94-9.73,44.34-14.17,1.5-28.61,3.03-44.22,4.68Z"/><path class="b" d="M184.63,325.33c-13.84-12.78-27.51-25.4-41.18-38.02l.94-1.39c22.3,8.11,44.61,16.22,66.91,24.32l.41,1.53c-8.95,4.48-17.9,8.96-27.09,13.55Z"/><path class="d" d="M268.86,291.62c-6.06,8.81-12.13,17.61-18.36,26.66-6.81-2.58-13.39-5.08-19.97-7.57l-.28-1.32c12.59-6.3,25.18-12.6,37.78-18.91l.83,1.14Z"/><path class="f" d="M308.25,196.93c4.66,5.65,9.32,11.29,14.31,17.35-3.05,4.46-6.01,8.8-8.98,13.14l-1.42-.48c-1.85-9.76-3.7-19.52-5.55-29.28l1.63-.73Z"/><path class="e" d="M309.53,246.62c.97,4.76,1.93,9.53,2.99,14.74-7.02,3.6-13.87,7.11-20.73,10.62l-1.12-.89c5.75-8.29,11.51-16.58,17.26-24.87l1.6,.4Z"/><path class="g" d="M203.81,322.49c5.66-2.86,11.32-5.73,17.29-8.75,4.68,1.82,9.45,3.68,14.22,5.53-.07,.68-.15,1.36-.22,2.03-10.24,1.01-20.48,2.02-30.73,3.03l-.56-1.85Z"/><path class="i" d="M320.37,231.21c-.94,4.83-1.89,9.65-2.83,14.48l-1.39,.04c-.71-2.71-1.42-5.42-2.21-8.43,1.61-2.26,3.25-4.56,4.88-6.86l1.54,.77Z"/></svg>