<?xml version="1.0" encoding="utf-8"?>
<!-- Generator: Adobe Illustrator 27.0.0, SVG Export Plug-In . SVG Version: 6.00 Build 0)  -->
<svg version="1.1" id="a" xmlns="http://www.w3.org/2000/svg" xmlns:xlink="http://www.w3.org/1999/xlink" x="0px" y="0px"
	 viewBox="0 0 400 400" style="enable-background:new 0 0 400 400;" xml:space="preserve">
<style type="text/css">
	.st0{display:none;}
	.st1{display:inline;}
	.st2{display:inline;fill:#FFFFFF;}
	.st3{fill:#FFFFFF;}
</style>
<g class="st0">
	<path class="st1" d="M400,400c-133.3,0-266.7,0-400,0C0,266.7,0,133.3,0,0c133.3,0,266.7,0,400,0C400,133.3,400,266.7,400,400z
		 M272.2,105.6c1.3-31.3-17.2-57.4-46.2-65.8c-14.9-4.3-29.9-4.5-45.1-1.2c-27.3,6-48,26-51.6,53.5c-2.2,16.7-1.9,34.1,0,50.9
		c2.3,19.8,13.1,35.7,31.8,44.2c24,10.9,48.9,11.6,73.4,1.6c24.4-10,41.6-38.6,38.4-62.7c-18.5-2.4-37.1-4.8-55.4-7.2
		c-1.3,6.4-2.1,11.9-3.6,17.3c-1.3,4.8-4.4,8.1-10,7.5c-5.5-0.5-8.4-4.6-8.6-9.3c-0.5-12.5-0.4-25,0-37.4c0.2-4.9,3.3-8.7,8.7-9.2
		c5.5-0.5,8.4,2.9,10,7.7c0.9,2.8,1.5,5.6,2,8.5c0.5,2.8,0.6,5.6,1,8.8C235.8,110.4,253.9,108,272.2,105.6z M196.8,218.8
		c0,43.8,0,86.7,0,129.9c-12.4,1-24.4,2-36.4,3c0,0.2,0,0.4,0,0.6c26.2,0,52.4,0,78.6,0c0-0.2,0-0.4,0-0.6c-12.2-1-24.3-2-36.6-3
		c0-43.5,0-86.4,0-129.9c14.5,0,28.4,0.2,42.3-0.1c4.2-0.1,5.6,1.6,6.8,5.3c4,13.1,8.3,26,12.6,39c0.4-0.1,0.9-0.2,1.3-0.3
		c-4.4-19-8.8-37.9-13.2-56.9c-0.4,0-0.9,0-1.3,0.1c-0.5,3.8-1,7.5-1.6,11.6c-2.9,0-5.4,0-7.9,0c-27.3,0-54.6,0-81.8,0
		c-9.8,0-9.8,0-11.1-9.9c-0.1-0.6-0.7-1.2-1.6-2.6c-4.9,21-9.5,41-14.1,61c1.7-2.1,2.6-4.4,3.4-6.7c3.9-12.1,7.6-24.2,11.7-36.2
		c0.6-1.8,3.1-4.1,4.8-4.2C167.2,218.6,181.7,218.8,196.8,218.8z"/>
	<path class="st2" d="M272.2,105.6c-18.4,2.4-36.4,4.8-55.3,7.3c-0.4-3.3-0.5-6.1-1-8.8c-0.5-2.9-1.1-5.7-2-8.5
		c-1.6-4.7-4.5-8.2-10-7.7c-5.4,0.5-8.5,4.3-8.7,9.2c-0.5,12.5-0.5,25,0,37.4c0.2,4.7,3,8.7,8.6,9.3c5.5,0.5,8.7-2.7,10-7.5
		c1.5-5.4,2.3-10.9,3.6-17.3c18.3,2.4,36.9,4.8,55.4,7.2c3.2,24.1-13.9,52.7-38.4,62.7c-24.5,10-49.4,9.3-73.4-1.6
		c-18.7-8.5-29.5-24.4-31.8-44.2c-1.9-16.8-2.2-34.2,0-50.9c3.6-27.6,24.3-47.6,51.6-53.5c15.1-3.3,30.2-3.1,45.1,1.2
		C255,48.2,273.5,74.3,272.2,105.6z"/>
	<path class="st2" d="M196.8,218.8c-15.1,0-29.7-0.1-44.2,0.2c-1.7,0-4.1,2.4-4.8,4.2c-4.1,12-7.8,24.1-11.7,36.2
		c-0.8,2.3-1.7,4.7-3.4,6.7c4.6-20,9.3-40,14.1-61c0.9,1.4,1.5,2,1.6,2.6c1.3,9.9,1.3,9.9,11.1,9.9c27.3,0,54.6,0,81.8,0
		c2.5,0,4.9,0,7.9,0c0.6-4.1,1.1-7.9,1.6-11.6c0.4,0,0.9,0,1.3-0.1c4.4,19,8.8,37.9,13.2,56.9c-0.4,0.1-0.9,0.2-1.3,0.3
		c-4.2-13-8.6-26-12.6-39c-1.1-3.7-2.6-5.4-6.8-5.3c-13.9,0.3-27.8,0.1-42.3,0.1c0,43.4,0,86.4,0,129.9c12.3,1,24.4,2,36.6,3
		c0,0.2,0,0.4,0,0.6c-26.2,0-52.4,0-78.6,0c0-0.2,0-0.4,0-0.6c12-1,23.9-2,36.4-3C196.8,305.5,196.8,262.5,196.8,218.8z"/>
</g>
<image style="display:none;overflow:visible;" width="320" height="320" xlink:href="charactertype.jpg"  transform="matrix(1.25 0 0 1.25 0 0)">
</image>
<rect width="400" height="400"/>
<path class="st3" d="M200,36.6c41.6,0,69.8,20.5,72,69.2l-55.9,7.1c-0.7-17.7-3.5-25.4-10.9-25.4c-9.6,0-11.1,9-11.1,28.2
	s2.4,28.2,10.2,28.2c7.8,0,11.7-7.3,12.2-24.5l56.8,7.2c-3.6,44.1-28.6,68.2-72.3,68.2s-74.3-19.6-74.3-76.9
	C126.7,58.5,159.4,36.6,200,36.6z"/>
<polygon class="st3" points="252.5,205.5 250.6,205.5 250.1,217.6 200,217.6 149.9,217.6 149.4,205.5 147.5,205.5 133.1,267.4 
	134.9,267.8 149.8,218.9 198,218.9 198,348.8 159.1,351.3 159.1,352.9 200,352.9 240.9,352.9 240.9,351.3 202,348.8 202,218.9 
	250.2,218.9 265.1,267.8 266.9,267.4 "/>
</svg>
