<?xml version="1.0" encoding="utf-8"?>
<!-- Generator: Adobe Illustrator 27.0.0, SVG Export Plug-In . SVG Version: 6.00 Build 0)  -->
<svg version="1.1" id="Layer_1" xmlns="http://www.w3.org/2000/svg" xmlns:xlink="http://www.w3.org/1999/xlink" x="0px" y="0px"
	 viewBox="0 0 1000 1000" style="enable-background:new 0 0 1000 1000;" xml:space="preserve">
<style type="text/css">
	.st0{display:none;}
	.st1{fill:#FFFFFF;}
</style>
<rect class="st0" width="1000" height="1000"/>
<circle cx="500" cy="500" r="500"/>
<path class="st1" d="M504.97,764.52c113.36,0,197.89-56.68,258.55-182.97c-39.78,32.82-80.55,46.74-133.25,46.74
	c-133.25,0-191.92-91.49-191.92-184.96c0-86.52,49.72-175.02,136.24-193.91l-55.69,5.97l86.52,201.87
	c72.59,0,122.31-45.74,122.31-106.4c0-67.62-62.65-115.35-186.95-115.35c-188.94,0-304.29,111.38-304.29,260.54
	C236.48,639.22,335.92,764.52,504.97,764.52z"/>
</svg>
