<?xml version="1.0" encoding="UTF-8"?><svg id="a" xmlns="http://www.w3.org/2000/svg" viewBox="0 0 400 400"><defs><style>.b{fill:#fbfbfb;}.c{fill:#262626;}</style></defs><rect class="c" width="400" height="400"/><path class="b" d="M91.37,313.83c-1.51-12.34-2.95-24.2-4.45-36.5,13.3-3.11,26.46-6.18,39.73-9.28V120.16c-12.96-3.06-26.2-6.19-39.44-9.32,1.4-12.72,2.75-24.92,4.14-37.45H231.01c1.47,12.1,2.94,24.27,4.53,37.35-13.51,3.08-26.93,6.14-40.43,9.22v148.21c21.45,1.42,42.77,2.84,64.46,4.28,12.49-23.53,24.9-46.93,37.61-70.87,9.5,2.32,18.93,4.63,29.02,7.1-4.13,35.06-8.24,69.95-12.39,105.16H91.37Z"/></svg>