<?xml version="1.0" encoding="UTF-8"?><svg id="a" xmlns="http://www.w3.org/2000/svg" viewBox="0 0 400 400"><defs><style>.b{fill:#fefefe;}.c{fill:#143755;}</style></defs><path class="b" d="M400,400H0V0H400V400ZM25.85,172.98v42.55h10.38v-31.32h11.45v31.67h10.97v-31.65h10.73v31.58h10.32v-42.82H25.85Zm207.43,10.67v54.08h31.44v-10.94h-20.31v-10.41h20.33v-32.74h-31.47Zm129.41,33.57v9.57c-3.38,.25-6.46,.48-9.66,.72v10.22h20.85v-32.16c-3.4-.3-6.47-.58-9.36-.84v-9.92c3.35-.17,6.41-.33,9.46-.49v-10.85h-21.02v32.39c3.22,.45,6.33,.89,9.73,1.36ZM91.43,183.75v32.04h31.51v-32.04h-31.51Zm206.34-.11v21.12h-10.32v-20.94h-10.68v32.08h31.97v-32.26h-10.97Zm-141.61,32.21h10.53v-32.04h-31.36v31.93h10.6v-20.5h10.24v20.61Zm185.16-32.1h-21.01v32.09h11.05v-21.03c3.45-.17,6.67-.33,9.96-.49v-10.57Zm-141.15-10.65v31.9h11.06v-10.31h10.56v-11.28h-10.89v-10.31h-10.73Zm-11.61,31.87v-21.24h-10.22v21.24h10.22Zm-.36-32.62v-10.06h-9.89v10.06h9.89Z"/><path class="c" d="M25.85,172.98h53.85v42.82h-10.32v-31.58h-10.73v31.65h-10.97v-31.67h-11.45v31.32h-10.38v-42.55Z"/><path class="c" d="M233.28,183.64h31.47v32.74h-20.33v10.41h20.31v10.94h-31.44v-54.08Zm20.58,20.85v-10.11h-9.6v10.11h9.6Z"/><path class="c" d="M362.68,217.21c-3.41-.48-6.51-.91-9.73-1.36v-32.39h21.02v10.85c-3.05,.16-6.11,.32-9.46,.49v9.92c2.89,.26,5.96,.53,9.36,.84v32.16h-20.85v-10.22c3.2-.24,6.29-.47,9.66-.72v-9.57Z"/><path class="c" d="M91.43,183.75h31.51v32.04h-31.51v-32.04Zm10.99,11.49v10.43h9.88v-10.43h-9.88Z"/><path class="c" d="M297.77,183.64h10.97v32.26h-31.97v-32.08h10.68v20.94h10.32v-21.12Z"/><path class="c" d="M156.17,215.85v-20.61h-10.24v20.5h-10.6v-31.93h31.36v32.04h-10.53Z"/><path class="c" d="M341.33,183.75v10.57c-3.29,.16-6.51,.32-9.96,.49v21.03h-11.05v-32.09h21.01Z"/><path class="c" d="M200.18,173.1h10.73v10.31h10.89v11.28h-10.56v10.31h-11.06v-31.9Z"/><path class="c" d="M188.56,204.98h-10.22v-21.24h10.22v21.24Z"/><path class="c" d="M188.2,172.36h-9.89v-10.06h9.89v10.06Z"/><path class="b" d="M253.85,204.5h-9.6v-10.11h9.6v10.11Z"/><path class="b" d="M102.42,195.24h9.88v10.43h-9.88v-10.43Z"/></svg>