<?xml version="1.0" encoding="UTF-8"?><svg id="a" xmlns="http://www.w3.org/2000/svg" xmlns:xlink="http://www.w3.org/1999/xlink" viewBox="0 0 400 400"><defs><style>.c{fill:none;}.d{fill:#fff;}.e{fill:#1d1d1b;}.f{clip-path:url(#b);}</style><clipPath id="b"><rect class="c" x="25" y="118.66" width="350" height="164.68"/></clipPath></defs><rect class="d" x="0" y="0" width="400" height="400"/><g class="f"><path class="e" d="M60.46,283.34c1.63,0,2.72-.73,3.99-2.54l19.25-26.69,3.09,2.72c4.72,4.18,12.53,6.9,19.43,6.9,17.43,0,31.77-9.08,41.03-23.78,6.72,15.98,15.07,23.78,32.14,23.78,13.07,0,28.87-8.53,37.04-19.06,4.36,11.98,15.25,19.79,29.41,19.79,11.44,0,23.06-5.63,32.5-13.8,5.27,8.53,15.07,13.07,27.6,13.07,18.16,0,37.22-9.62,52.84-24.69,3.99-3.99,4.54-5.45,3.63-7.44l-8.9-21.97c-.54-1.27-1.09-2.18-2-3.09l-2.9-2.72c20.15-15.98,30.5-33.95,24.87-47.39l-8.9-21.61c-4.36-10.71-12.35-16.16-22.7-16.16-18.34,0-40.13,19.25-52.84,35.59l-3.63-7.99c-.54-1.27-1.63-2.72-3.27-4.36l-13.25-13.25c-1.45-1.45-2.72-1.82-3.81-1.82-1.27,0-2.54,.36-3.99,1.82l-18.16,19.06-11.44-9.99c-1.09-.91-2-1.27-2.91-1.27-1.27,0-2.72,.54-3.81,1.82l-11.62,13.25-2.72-6.72c-.54-1.45-.91-2-2.36-3.45l-15.8-14.71c-.91-.91-1.82-1.27-2.9-1.27s-2.36,.54-3.09,1.45l-32.68,40.13h.55l-9.62-22.88c-.54-1.27-1.45-2.36-2.54-3.45l-15.07-13.98c-.73-.73-1.82-1.09-2.72-1.09-1.27,0-2.36,.54-3.27,1.45l-9.44,10.35c-4.18-.91-8.35-1.45-12.53-1.45-26.33,0-50.29,19.43-64.27,44.85-.91,1.82-.73,3.27,0,5.27l8.9,21.79,4.72,3.99-22.51,28.14c-.91,1.27-1.09,3.09-.18,5.27l7.99,19.97c.91,2.36,1.82,2.91,3.63,4.18l19.97,12.71c1.63,1.09,2.72,1.27,3.27,1.27h0Zm36.49-62.46c14.53,0,25.24-14.53,27.96-29.78-19.97,2.36-37.77,10.71-37.77,21.06,0,5.63,5.27,8.72,9.8,8.72h0Zm-46.84,29.78l-15.07-9.44c21.42-26.87,47.75-58.1,69.36-82.98-1.63-.18-3.27-.36-4.72-.36-17.97,0-36.49,13.62-45.75,32.5l-10.35-7.99c14.34-25.96,37.04-37.95,55.56-37.95,5.81,0,10.89,.73,14.89,2.36l10.53-11.26,9.62,9.26-8.35,8.9c7.08,6.54,11.08,15.61,11.98,25.78,15.43,.36,31.05,3.27,41.58,6.72l-1.63,11.08c-14.53-3.27-18.88,6.36-18.88,10.89,0,6.72,4.72,12.71,12.53,12.71,12.71,0,23.24-14.53,23.24-29.41,0-8.71-4.54-17.79-15.8-23.42l-10.71,11.44-8.35-6.9,30.14-37.04,10.53,9.8-12.16,13.25c13.98,8.72,19.79,21.61,19.79,34.13,0,20.7-15.98,39.94-37.95,39.94-15.98,0-24.51-10.53-24.51-23.06,0-5.45,2-12.53,8.53-17.61-4.9-.91-10.35-1.27-16.34-1.63-2.36,21.42-17.25,42.3-40.85,42.3-10.71,0-19.61-7.08-20.88-17.97-4.72,6.72-13.8,18.7-25.96,35.95h0Zm45.21-63.18c8.72-4.36,19.06-6.72,29.96-7.63-.55-6.54-3.45-12.71-8.35-16.52-10.35,11.26-15.8,18.34-21.61,24.15h0Zm141.62,31.96c15.25,0,36.68-25.96,43.21-37.4,21.42-36.86,54.83-65,71.17-52.11,21.06,16.89-18.88,55.01-64.64,69.72-6.9,19.06,14.89,31.41,47.75,1.82l8.9,8.9c-26.15,26.51-67.18,33.04-70.99,2.54-30.32,33.95-59.19,19.79-59.19-1.63,0-13.98,8.9-28.51,21.06-41.94l-15.07-12.35,9.8-10.71,14.34,13.25c6.9-7.44,16.7-17.79,21.97-22.7l9.99,9.99-21.42,22.15,12.53,11.8-7.63,8.72-13.98-11.44c-19.43,21.61-20.52,41.4-7.81,41.4h0Zm53.02-31.05c33.41-16.52,55.01-38.13,54.65-46.66,0-2.91-2-3.27-3.27-3.27-8.9-.18-30.32,19.61-51.38,49.93h0Z"/></g></svg>