<?xml version="1.0" encoding="utf-8"?>
<!-- Generator: Adobe Illustrator 27.0.0, SVG Export Plug-In . SVG Version: 6.00 Build 0)  -->
<svg version="1.1" id="a" xmlns="http://www.w3.org/2000/svg" xmlns:xlink="http://www.w3.org/1999/xlink" x="0px" y="0px"
	 viewBox="0 0 400 400" style="enable-background:new 0 0 400 400;" xml:space="preserve">
<style type="text/css">
	.st0{fill:#FFFFFF;}
	.st1{fill:#404040;}
</style>
<rect class="st0" width="400" height="400"/>
<g id="oxmUrQ.tif">
	<g>
		<path class="st1" d="M378.1,196.8c0-1.7,0-3.3-0.2-5c-0.2-2.2-0.7-4.4-1.6-6.4c-1-2.2-2.4-4-4.4-5.3c-2.7-1.7-5.7-2.2-8.9-2.2
			c-1.3,0-2.7,0.2-4,0.5c-4.5,1-7.9,3.4-10.1,7.6c-1.6,3.1-2.1,6.5-2.3,10c-0.1,2.1,0,4.1,0.3,6.2c0.3,2.2,0.8,4.3,1.7,6.2
			c1.8,4.1,5,6.8,9.4,8c3,0.8,6,0.8,9,0.6c2.7-0.2,5.4-0.7,8-1.5c0.5-0.2,1.1-0.3,1.6-0.5c-0.2-2.4-0.5-4.7-0.7-7
			c-0.3,0.1-0.5,0.1-0.7,0.2c-2.5,0.9-5,1.7-7.6,1.9c-1.7,0.1-3.5,0.2-5.2-0.3c-2.2-0.5-4-1.7-5.2-3.6c-0.9-1.4-1.4-3.1-1.6-4.8
			c-0.1-0.5-0.1-1-0.1-1.6c7.5,0,14.9,0,22.4,0C378,198.8,378.1,197.8,378.1,196.8z M369.4,194c-4.6,0-9.1,0-13.7,0
			c0-0.9,0.2-1.7,0.3-2.6c0.3-1.5,0.8-2.8,1.7-4.1c1-1.4,2.3-2.3,4-2.6c1.2-0.2,2.4-0.3,3.6,0.1c1.7,0.5,2.7,1.7,3.3,3.3
			c0.8,1.8,0.9,3.7,0.9,5.7C369.4,193.9,369.4,193.9,369.4,194z"/>
		<path class="st1" d="M339.8,191.3c-0.6-3.2-1.7-6.2-3.9-8.8c-2.6-3-5.8-4.9-9.9-4.5c-1.5,0.1-2.9,0.5-4.2,1.2
			c-1.7,0.9-3.2,2.1-4.6,3.4c-0.2,0.1-0.3,0.3-0.5,0.5c-0.4-1.5-0.9-2.9-1.3-4.3c-2.2,0-4.4,0-6.6,0c0,17.4,0,34.6,0,51.9
			c2.9,0,5.7,0,8.6,0c0-5.6,0-11.2,0-16.9c0.2,0.1,0.4,0.2,0.5,0.3c0.6,0.4,1.2,0.7,1.8,1.1c2.3,1.3,4.8,2.1,7.5,1.9
			c1.8-0.2,3.4-0.6,4.9-1.5c2.8-1.6,4.6-3.9,5.9-6.8c1.3-2.9,1.8-5.9,2.1-9C340.4,196.9,340.4,194.1,339.8,191.3z M331.5,198
			c-0.1,1.9-0.3,3.7-0.7,5.5c-0.4,1.6-1.1,3.2-2.2,4.5c-1.4,1.7-3.3,2.3-5.5,2.1c-2.1-0.2-3.9-1.2-5.6-2.4c0-6.4,0-12.7,0-19.1
			c1.5-1.4,3-2.8,5.1-3.5c2.6-0.8,4.8,0,6.4,2.1c1.2,1.5,1.8,3.4,2.2,5.3C331.5,194.3,331.6,196.1,331.5,198z"/>
		<path class="st1" d="M286,208.4c2.6-9.9,5.2-19.8,7.8-29.7c3,0,5.9,0,9,0c-0.1,0.2-0.1,0.4-0.2,0.6c-2.7,8.8-5.4,17.5-8.1,26.3
			c-1.7,5.4-3.3,10.7-5,16.1c-0.6,1.9-1.4,3.8-2.7,5.4c-1.6,2.1-3.8,3.3-6.4,3.8c-1.7,0.4-3.5,0.4-5.2,0.2c-0.9-0.1-1.8-0.2-2.7-0.3
			c-0.2,0-0.3-0.1-0.5-0.1c0.2-2.3,0.5-4.5,0.7-6.7c0.8,0.1,1.5,0.3,2.3,0.3c1.5,0.1,3,0,4.3-0.9c0.9-0.6,1.5-1.3,1.9-2.3
			c0.6-1.5,1.1-3.1,1.6-4.6c0,0,0-0.1,0-0.2c-0.9-0.1-1.8,0-2.8-0.1c-3.9-12.5-7.7-25-11.6-37.5c3,0,6,0,9,0
			c2.8,9.9,5.7,19.8,8.5,29.7C285.9,208.4,286,208.4,286,208.4z"/>
		<path class="st1" d="M265.1,209.5c0.2,2.3,0.5,4.5,0.7,6.8c-0.5,0.1-0.9,0.2-1.3,0.3c-2.2,0.3-4.4,0.4-6.6,0.1
			c-2.6-0.4-5-1.3-6.9-3.1c-1.5-1.4-2.4-3.1-2.7-5.1c-0.1-1.1-0.2-2.2-0.2-3.2c0-6.4,0-12.7,0-19.1c0-0.2,0-0.5,0-0.8
			c-2,0-3.9,0-5.9,0c0-2.2,0-4.4,0-6.7c2,0,4,0,6,0c0-2.7,0-5.2,0-7.9c2.9-0.6,5.7-1.1,8.6-1.7c0,0.3,0.1,0.5,0.1,0.7
			c0,2.7,0,5.3,0,8c0,0.2,0,0.5,0,0.8c2.6,0,5.2,0,7.8,0c0,2.2,0,4.4,0,6.7c-2.6,0-5.2,0-7.8,0c0,0.3-0.1,0.5-0.1,0.7
			c0,6.4,0,12.7,0,19.1c0,0.5,0,1,0.1,1.5c0.3,1.7,1.4,2.7,3.1,3.1c1.5,0.4,3,0.2,4.5-0.1c0.1,0,0.2-0.1,0.3-0.1
			C264.9,209.5,265,209.5,265.1,209.5z"/>
		<path class="st1" d="M236.5,216.2c-3,0-5.8,0-8.7,0c0-0.3,0-0.5,0-0.7c0-8.3,0-16.5,0-24.8c0-0.9-0.1-1.7-0.3-2.6
			c-0.6-2.1-2.1-3.2-4.2-3.3c-1.8-0.1-3.5,0.4-5.1,1.3c-1.4,0.7-2.6,1.6-3.9,2.5c0,9.2,0,18.4,0,27.6c-2.9,0-5.8,0-8.7,0
			c0-12.5,0-25,0-37.5c2.3,0,4.5,0,6.8,0c0.4,1.5,0.9,2.9,1.3,4.5c0.2-0.1,0.4-0.2,0.6-0.4c1.9-1.3,3.8-2.5,5.8-3.5
			c1.9-0.9,3.9-1.4,6-1.4c2.3,0,4.5,0.5,6.4,1.9c2,1.5,3.2,3.5,3.8,5.9c0.3,1.3,0.4,2.6,0.4,4c0,8.6,0,17.3,0,25.9
			C236.5,215.7,236.5,215.9,236.5,216.2z"/>
		<g>
			<g>
				<path class="st1" d="M197.6,193.3c-0.1-2.4-0.5-4.7-1.3-6.9c-0.6-1.8-1.6-3.4-2.9-4.7c-2.3-2.3-5.2-3.4-8.4-3.7
					c-2.1-0.2-4.3,0-6.4,0.4c-4.6,0.9-8,3.5-10.2,7.7c-1.2,2.5-1.8,5.2-2.1,7.9c-0.2,2.1-0.2,4.3,0,6.4c0.1,2.1,0.5,4.1,1.1,6.1
					c0.8,2.5,2,4.7,3.9,6.4c2.7,2.7,6.2,3.8,9.9,4.1c2.3,0.2,4.5,0.1,6.7-0.2c2.7-0.3,5.3-0.9,7.9-1.7c0.1,0,0.2-0.1,0.3-0.1
					c-0.2-2.3-0.5-4.6-0.7-7c-0.3,0.1-0.5,0.1-0.7,0.2c-2.5,0.9-4.9,1.7-7.5,1.9c-2,0.2-4,0.2-5.9-0.5c-2.1-0.7-3.7-2-4.8-4
					c-0.7-1.2-1-2.6-1.2-3.9c-0.1-0.6-0.1-1.1-0.2-1.8c7.5,0,14.9,0,22.3,0c0.1-0.5,0.1-1,0.2-1.5
					C197.6,196.6,197.6,194.9,197.6,193.3z M188.9,194c-4.6,0-9.1,0-13.7,0c0.2-2.3,0.6-4.4,1.8-6.3c1.4-2.2,3.5-3.2,6.1-3.1
					c1.2,0,2.3,0.3,3.2,1.1c0.7,0.5,1.2,1.2,1.6,1.9c0.7,1.3,1,2.8,1.1,4.3c0,0.5,0.1,1.1,0.1,1.6C189,193.7,188.9,193.8,188.9,194z
					"/>
			</g>
		</g>
		<path class="st1" d="M159.6,192.7c-0.3-2.2-0.8-4.3-1.7-6.3c-1.2-2.8-3-5.1-5.6-6.7c-2-1.3-4.1-1.9-6.5-1.7
			c-2.1,0.1-3.9,0.8-5.6,1.9c-1.2,0.8-2.2,1.7-3.3,2.6c-0.2,0.1-0.4,0.3-0.6,0.4c-0.4-1.5-0.8-2.9-1.3-4.2c-2.2,0-4.4,0-6.6,0
			c0,17.4,0,34.6,0,51.9c2.9,0,5.7,0,8.6,0c0-5.6,0-11.2,0-16.9c0.2,0.1,0.4,0.2,0.6,0.3c0.6,0.4,1.2,0.7,1.8,1.1
			c2.3,1.3,4.8,2.1,7.5,1.8c2.7-0.2,5-1.2,7.1-3c2-1.7,3.2-3.9,4.2-6.3c1.1-2.7,1.5-5.5,1.7-8.4
			C159.9,197.1,159.9,194.9,159.6,192.7z M150.9,199.7c-0.2,2.1-0.6,4.1-1.4,6c-0.4,1-1,1.9-1.7,2.7c-1.4,1.5-3.2,1.9-5.2,1.7
			c-2.1-0.2-3.9-1.2-5.6-2.4c0-6.4,0-12.8,0-19.1c1.5-1.4,2.9-2.8,5-3.4c2.7-0.8,4.8,0,6.5,2.1c1.1,1.4,1.7,3.1,2.1,4.8
			C151.1,194.6,151.1,197.2,150.9,199.7z"/>
		<path class="st1" d="M110.8,183.6c0.2-0.2,0.3-0.4,0.5-0.5c1.4-1.7,2.9-3.2,5-4.1c2.1-0.9,4.2-1.1,6.4-0.5c0.1,0,0.2,0.1,0.3,0.1
			c-0.3,2.5-0.5,5.1-0.8,7.7c-0.3,0-0.5,0-0.7,0c-2.3-0.3-4.5,0-6.7,0.9c-1.3,0.6-2.4,1.3-3.6,2.1c0,9,0,18,0,26.9
			c-0.4,0.2-8.1,0.2-8.6,0.1c-0.1-0.4-0.2-36.9,0-37.5c2.2,0,4.4,0,6.7,0C109.8,180.3,110.3,181.9,110.8,183.6z"/>
		<path class="st1" d="M94.5,191.4c-0.3-2.3-0.8-4.6-1.9-6.6c-1.2-2.3-2.8-4.1-5.1-5.3c-2.5-1.3-5.1-1.6-7.9-1.6
			c-1.4,0-2.7,0.2-4.1,0.5c-4.2,0.9-7.4,3.1-9.6,6.8c-1.7,3-2.4,6.3-2.6,9.7c-0.2,2.3-0.1,4.6,0.2,6.8c0.3,2.3,0.8,4.5,1.7,6.5
			c1.5,3.4,3.9,5.9,7.4,7.4c2.5,1.1,5.2,1.4,7.9,1.4c3.2,0,6.5-0.4,9.6-1.2c1-0.3,2-0.6,3-0.9c-0.2-2.4-0.5-4.7-0.7-7
			c-0.3,0.1-0.4,0.1-0.6,0.2c-1.5,0.5-3,1-4.6,1.4c-2.7,0.7-5.4,0.8-8.1,0.3c-2.1-0.5-3.9-1.5-5.1-3.3c-1.1-1.6-1.6-3.5-1.8-5.4
			c0-0.4-0.1-0.7-0.1-1.2c7.5,0,14.8,0,22.3,0c0.1-0.7,0.2-1.3,0.2-1.9C94.7,195.7,94.7,193.5,94.5,191.4z M86,194
			c-4.6,0-9.2,0-13.8,0c0-0.4,0.1-0.7,0.1-1.1c0.2-1.8,0.7-3.6,1.7-5.1c1.4-2.3,3.6-3.3,6.2-3.2c0.6,0,1.2,0.1,1.8,0.3
			c1.7,0.6,2.7,1.9,3.3,3.4c0.5,1.3,0.7,2.6,0.7,3.9C86,192.8,86,193.4,86,194z"/>
		<path class="st1" d="M54.7,166.2c-0.2,2.4-0.5,4.8-0.7,7.2c-0.2,0-0.3-0.1-0.4-0.1c-2-0.7-4.1-1.3-6.2-1.4
			c-2.6-0.2-5.2-0.1-7.7,0.9c-1.6,0.6-3,1.6-3.7,3.2c-1.2,2.4-0.8,5,1.6,6.9c1,0.8,2.2,1.5,3.4,2c2.4,1.1,4.9,2.2,7.4,3.4
			c1.9,0.9,3.6,2,5.1,3.4c2,1.9,3.4,4.2,3.9,7c0.4,1.9,0.4,3.9,0.1,5.9c-0.3,1.9-0.8,3.6-1.8,5.3c-1.4,2.4-3.4,4.1-5.9,5.3
			c-1.9,0.9-3.9,1.4-6,1.7c-2.2,0.3-4.4,0.3-6.5,0.2c-3.1-0.2-6.2-0.9-9.1-1.8c-0.4-0.1-0.7-0.2-1.1-0.4c0.2-2.4,0.5-4.8,0.7-7.3
			c0.2,0.1,0.4,0.1,0.6,0.2c1.7,0.7,3.5,1.3,5.3,1.7c2,0.5,4.1,0.7,6.1,0.6c2.1-0.1,4.2-0.6,6-1.8c2.6-1.8,3.6-4.9,2.4-7.8
			c-0.5-1.2-1.4-2.1-2.4-3c-1.4-1.1-2.9-1.8-4.5-2.6c-2.2-1-4.3-2-6.5-3.1c-1.8-0.9-3.4-2-4.8-3.4c-2-1.9-3.2-4.3-3.5-7
			c-0.2-2.1-0.2-4.2,0.4-6.2c0.9-3.2,2.7-5.7,5.5-7.4c2.4-1.5,5-2.3,7.7-2.6c2-0.3,3.9-0.4,5.9-0.3c2.9,0.1,5.7,0.6,8.5,1.4
			C54.4,166.1,54.5,166.2,54.7,166.2z"/>
	</g>
</g>
</svg>
