<?xml version="1.0" encoding="UTF-8"?><svg id="a" xmlns="http://www.w3.org/2000/svg" viewBox="0 0 1000 1000"><defs><style>.b{font-family:SunwookSans-Regular, Sunwook Sans;font-size:158.12px;}.b,.c{fill:#fdfbf8;}.d{letter-spacing:0em;}.e{letter-spacing:0em;}.f{letter-spacing:0em;}.g,.h{fill:#d4a243;}.i{fill:#151517;}.j{letter-spacing:0em;}.h{font-family:SunwookSans-Bold, Sunwook Sans;font-size:92.14px;}.k{letter-spacing:0em;}.l{letter-spacing:.02em;}.m{letter-spacing:.02em;}</style></defs><rect class="i" width="1000" height="1000"/><text class="b" transform="translate(101.94 543.07)"><tspan x="0" y="0">P</tspan><tspan class="j" x="82.69" y="0">r</tspan><tspan class="k" x="141.51" y="0">e</tspan><tspan class="e" x="232.27" y="0">s</tspan><tspan x="302.47" y="0">tigious</tspan></text><g><path class="c" d="M115.15,744.06h17.91v102.37h-17.91v-102.37Zm7.23,0h50.73v15.51h-50.73v-15.51Zm0,43.2h44.71v15.35h-44.71v-15.35Zm0,43.66h51.18v15.5h-51.18v-15.5Z"/><path class="c" d="M188.76,771.61h17.31c0,4.12-.3,8.41-.9,12.87-.6,4.47-1.41,8.66-2.41,12.57h3.91v49.38h-17.91v-74.82Zm49.23,17.84c-2.01-2.66-5.17-3.99-9.48-3.99-4.02,0-7.7,1.05-11.06,3.16-3.36,2.11-6,5.12-7.9,9.03-1.91,3.91-2.86,8.38-2.86,13.4h-6.62c0-8.03,1.38-15.2,4.14-21.53,2.76-6.32,6.7-11.26,11.82-14.83,5.12-3.56,11.04-5.34,17.76-5.34,8.03,0,14.23,2.71,18.59,8.13,4.37,5.42,6.55,13,6.55,22.73v46.21h-17.91v-44.11c0-5.92-1-10.21-3.01-12.87Z"/><path class="c" d="M270.8,771.61h46.37v15.35h-46.37v-15.35Zm24.84,72.11c-4.42-1.81-7.65-4.64-9.71-8.5-2.06-3.86-3.09-9.06-3.09-15.58v-44.56l3.31-22.73h14.6v66.39c0,4.22,.98,7.15,2.94,8.81,1.96,1.66,5.44,2.48,10.46,2.48h3.91v16.41h-4.67c-7.43,0-13.35-.9-17.76-2.71Z"/><path class="c" d="M348.93,736.53h2.56v30.26c0,5.42-.28,10.64-.83,15.66-.55,5.02-1.28,9.74-2.18,14.15h3.01v49.83h-17.91v-105.53c6.12-.6,11.24-2.06,15.35-4.37Zm34.02,52.91c-2.01-2.66-5.17-3.99-9.48-3.99s-7.83,1.05-11.14,3.16c-3.31,2.11-5.92,5.12-7.83,9.03-1.91,3.91-2.86,8.38-2.86,13.4h-6.62c0-8.03,1.38-15.2,4.14-21.53,2.76-6.32,6.7-11.26,11.82-14.83,5.12-3.56,11.04-5.34,17.76-5.34,7.93,0,14.1,2.71,18.52,8.13,4.42,5.42,6.62,13,6.62,22.73v46.21h-17.91v-44.11c0-5.92-1-10.21-3.01-12.87Z"/><path class="c" d="M428.86,841.08c-4.42-4.97-6.62-12.22-6.62-21.75v-47.72h17.91v45.46c0,5.42,1,9.33,3.01,11.74,2.01,2.41,5.17,3.61,9.48,3.61,4.01,0,7.68-1.03,10.99-3.09,3.31-2.06,5.95-5.04,7.9-8.96,1.96-3.91,2.94-8.43,2.94-13.55h6.02c0,8.13-1.33,15.35-3.99,21.68-2.66,6.32-6.5,11.24-11.52,14.75-5.02,3.51-10.89,5.27-17.61,5.27-7.93,0-14.1-2.48-18.52-7.45Zm46.97-7.15c.6-4.22,1.45-8.53,2.56-12.95h-3.91v-49.38h17.91v74.82h-17.46c0-4.11,.3-8.28,.9-12.49Z"/><path class="c" d="M506.84,834.98l12.5-10.24c4.92,5.62,10.89,8.43,17.91,8.43,3.61,0,6.37-.68,8.28-2.03,1.91-1.36,2.86-3.09,2.86-5.19,0-1.71-.6-3.16-1.81-4.37-1.21-1.2-2.71-2.18-4.52-2.94-1.81-.75-4.42-1.63-7.83-2.63-5.12-1.4-9.33-2.86-12.64-4.37-3.31-1.5-6.17-3.74-8.58-6.7-2.41-2.96-3.61-6.9-3.61-11.82s1.2-9.01,3.61-12.57c2.41-3.56,5.77-6.32,10.09-8.28,4.31-1.96,9.28-2.94,14.9-2.94s10.56,1,15.13,3.01c4.57,2.01,8.66,5.07,12.27,9.18l-12.34,10.09c-1.91-2.31-4.04-4.06-6.4-5.27-2.36-1.2-5.09-1.81-8.2-1.81-3.51,0-6.25,.75-8.21,2.26-1.96,1.5-2.93,3.31-2.93,5.42,0,1.71,.6,3.11,1.81,4.21,1.21,1.11,2.86,2.06,4.97,2.86,2.11,.8,4.57,1.66,7.38,2.56,5.12,1.5,9.33,2.96,12.64,4.37,3.31,1.41,6.17,3.61,8.58,6.62,2.41,3.01,3.61,6.98,3.61,11.89,0,7.13-2.66,12.87-7.98,17.24-5.32,4.37-12.55,6.55-21.68,6.55-12.45,0-22.38-4.52-29.81-13.55Z"/><path class="c" d="M582.78,755.57c-2.26-2.26-3.39-4.89-3.39-7.9s1.1-5.77,3.31-7.98c2.21-2.21,4.87-3.31,7.98-3.31s5.89,1.11,8.05,3.31c2.16,2.21,3.24,4.87,3.24,7.98s-1.08,5.9-3.24,8.05-4.84,3.24-8.05,3.24c-3.01,0-5.64-1.13-7.9-3.39Zm14.23,16.03h2.56v74.82h-17.91v-70.45c6.02-.6,11.14-2.06,15.35-4.37Z"/><path class="c" d="M621.47,842.58c-4.77-4.06-7.15-9.51-7.15-16.33,0-7.23,2.68-12.97,8.05-17.24,5.37-4.26,12.47-6.4,21.3-6.4,5.82,0,11.21,1,16.18,3.01,4.97,2.01,9.16,4.87,12.57,8.58l-6.62,7.53c-2.41-2.01-5.29-3.64-8.66-4.89-3.36-1.25-6.75-1.88-10.16-1.88-4.32,0-7.68,.9-10.09,2.71-2.41,1.81-3.61,4.27-3.61,7.38s1.13,5.42,3.39,7.23c2.26,1.81,5.04,2.71,8.35,2.71,3.01,0,5.89-.73,8.66-2.18,2.76-1.45,4.97-3.41,6.62-5.87,1.66-2.46,2.48-5.09,2.48-7.9l6.47-.3c0,5.52-1.2,10.56-3.61,15.13-2.41,4.57-5.85,8.18-10.31,10.84-4.47,2.66-9.61,3.99-15.43,3.99-7.53,0-13.68-2.03-18.44-6.1Zm43.88-10.61h-2.56v-28c0-5.82-1.56-10.26-4.67-13.32-3.11-3.06-7.83-4.59-14.15-4.59-2.91,0-5.95,.35-9.11,1.05-3.16,.7-6.6,1.76-10.31,3.16l-5.12-15.35c4.92-1.81,9.56-3.14,13.92-3.99,4.37-.85,8.66-1.28,12.87-1.28,10.64,0,19.04,2.89,25.21,8.66,6.17,5.77,9.26,14.08,9.26,24.91v43.2h-17.01c0-4.62,.55-9.43,1.66-14.45Z"/><path class="c" d="M693.8,834.98l12.5-10.24c4.92,5.62,10.89,8.43,17.91,8.43,3.61,0,6.37-.68,8.28-2.03,1.91-1.36,2.86-3.09,2.86-5.19,0-1.71-.6-3.16-1.81-4.37-1.21-1.2-2.71-2.18-4.52-2.94-1.81-.75-4.42-1.63-7.83-2.63-5.12-1.4-9.33-2.86-12.64-4.37-3.31-1.5-6.17-3.74-8.58-6.7-2.41-2.96-3.61-6.9-3.61-11.82s1.2-9.01,3.61-12.57c2.41-3.56,5.77-6.32,10.09-8.28,4.31-1.96,9.28-2.94,14.9-2.94s10.56,1,15.13,3.01c4.57,2.01,8.66,5.07,12.27,9.18l-12.34,10.09c-1.91-2.31-4.04-4.06-6.4-5.27-2.36-1.2-5.09-1.81-8.2-1.81-3.51,0-6.25,.75-8.21,2.26-1.96,1.5-2.93,3.31-2.93,5.42,0,1.71,.6,3.11,1.81,4.21,1.21,1.11,2.86,2.06,4.97,2.86,2.11,.8,4.57,1.66,7.38,2.56,5.12,1.5,9.33,2.96,12.64,4.37,3.31,1.41,6.17,3.61,8.58,6.62,2.41,3.01,3.61,6.98,3.61,11.89,0,7.13-2.66,12.87-7.98,17.24-5.32,4.37-12.55,6.55-21.68,6.55-12.45,0-22.38-4.52-29.81-13.55Z"/><path class="c" d="M768.62,771.61h17.31c0,4.12-.3,8.41-.9,12.87-.6,4.47-1.41,8.66-2.41,12.57h3.91v49.38h-17.91v-74.82Zm46.97,18.06c-1.81-2.81-4.67-4.22-8.58-4.22s-7.13,1.05-10.24,3.16c-3.11,2.11-5.6,5.09-7.45,8.96-1.86,3.87-2.79,8.36-2.79,13.47h-6.02c0-8.73,1.35-16.23,4.06-22.51,2.71-6.27,6.45-11.04,11.21-14.3,4.77-3.26,10.26-4.89,16.48-4.89,7.93,0,13.9,2.63,17.91,7.9,4.01,5.27,6.02,12.92,6.02,22.96v46.21h-17.91v-43.35c0-6.12-.9-10.59-2.71-13.4Zm49.68,0c-1.81-2.81-4.67-4.22-8.58-4.22s-7.25,1.05-10.31,3.16c-3.06,2.11-5.52,5.09-7.38,8.96-1.86,3.87-2.79,8.36-2.79,13.47h-6.02c0-8.73,1.33-16.23,3.99-22.51,2.66-6.27,6.4-11.04,11.21-14.3,4.82-3.26,10.34-4.89,16.56-4.89,7.93,0,13.9,2.63,17.91,7.9,4.01,5.27,6.02,12.92,6.02,22.96v46.21h-17.91v-43.35c0-6.12-.9-10.59-2.71-13.4Z"/></g><text class="h" transform="translate(113.65 682.79)"><tspan x="0" y="0">2</tspan><tspan class="l" x="51.23" y="0">00</tspan><tspan x="174.51" y="0">6 </tspan><tspan class="f" x="251.08" y="0">c</tspan><tspan x="295.03" y="0">om</tspan><tspan class="m" x="433.7" y="0">p</tspan><tspan class="d" x="494.23" y="0">e</tspan><tspan x="546.11" y="0">tition</tspan></text><g><path class="c" d="M124.68,133.92h8.94l34.03,84.49,32.83-84.49h9.08l12.81,90.76h-6.27l-12.01-84.75-32.83,84.75h-7.74l-33.9-84.75-9.88,84.75h-6.27l11.21-90.76Z"/><path class="c" d="M246.67,221c-3.56-4.14-5.34-10.12-5.34-17.95v-43.51h6.14v43.24c0,6.23,1.29,10.88,3.87,13.95,2.58,3.07,6.54,4.6,11.88,4.6,4.72,0,9.14-1.18,13.28-3.54,4.14-2.36,7.5-5.89,10.08-10.61,2.58-4.72,3.87-10.36,3.87-16.95h3.07c0,7.47-1.27,13.99-3.8,19.55-2.54,5.56-6.16,9.86-10.88,12.88-4.72,3.02-10.14,4.54-16.28,4.54-7.03,0-12.32-2.07-15.88-6.21Zm43.98-6.74c.22-3.02,.6-7.07,1.13-12.15h-1.33v-42.58h6.14v65.13h-6.27c0-3.91,.11-7.38,.33-10.41Z"/><path class="c" d="M314.07,216.8l4.14-4.14c6.05,5.87,12.5,8.81,19.35,8.81,4.54,0,8.1-1.2,10.68-3.6,2.58-2.4,3.87-5.34,3.87-8.81,0-2.58-.71-4.78-2.14-6.61-1.42-1.82-3.18-3.31-5.27-4.47-2.09-1.16-5.01-2.54-8.74-4.14-4-1.6-7.23-3.11-9.68-4.54-2.45-1.42-4.52-3.27-6.21-5.54-1.69-2.27-2.54-5.05-2.54-8.34s.87-6.47,2.6-9.28c1.74-2.8,4.11-5,7.14-6.61,3.02-1.6,6.41-2.4,10.14-2.4,3.38,0,6.52,.62,9.41,1.87,2.89,1.25,5.85,3.07,8.88,5.47l-3.87,4.81c-2.23-1.96-4.63-3.51-7.21-4.67-2.58-1.16-5.25-1.74-8.01-1.74-4.18,0-7.36,1.22-9.54,3.67-2.18,2.45-3.27,5.18-3.27,8.21,0,2.31,.67,4.29,2,5.94,1.33,1.65,3.02,3.03,5.07,4.14,2.05,1.11,4.8,2.38,8.27,3.8,4.18,1.78,7.54,3.38,10.08,4.8,2.54,1.42,4.69,3.36,6.47,5.81,1.78,2.45,2.67,5.5,2.67,9.14,0,5.52-1.96,10.03-5.87,13.55-3.92,3.51-9.03,5.27-15.35,5.27-8.45,0-16.15-3.47-23.09-10.41Z"/><path class="c" d="M376.33,141.99c-1.02-1.02-1.53-2.25-1.53-3.67s.51-2.67,1.53-3.74c1.02-1.07,2.25-1.6,3.67-1.6s2.67,.53,3.74,1.6,1.6,2.31,1.6,3.74-.53,2.65-1.6,3.67c-1.07,1.02-2.31,1.53-3.74,1.53s-2.65-.51-3.67-1.53Zm5.14,17.55h1.47v65.13h-6.14v-63.67c1.33,0,2.89-.49,4.67-1.47Z"/><path class="c" d="M418.7,223.01c-5.07-2.98-9.01-7.16-11.81-12.55-2.8-5.38-4.2-11.5-4.2-18.35s1.47-12.97,4.4-18.35c2.94-5.38,7.03-9.56,12.28-12.55,5.25-2.98,11.21-4.47,17.88-4.47,8.54,0,16.06,2.63,22.56,7.88l-4,4.27c-5.78-4.27-12.15-6.41-19.09-6.41-5.52,0-10.39,1.22-14.61,3.67-4.23,2.45-7.5,5.92-9.81,10.41-2.31,4.49-3.47,9.63-3.47,15.42s1.16,11.06,3.47,15.55c2.31,4.49,5.58,7.99,9.81,10.48,4.23,2.49,9.05,3.74,14.48,3.74,3.91,0,7.78-.71,11.61-2.14,3.82-1.42,7.43-3.6,10.81-6.54l3.74,4.27c-3.83,3.38-8.05,5.92-12.68,7.61-4.63,1.69-9.26,2.54-13.88,2.54-6.59,0-12.41-1.49-17.48-4.47Z"/><path class="c" d="M478.56,141.99c-1.02-1.02-1.53-2.25-1.53-3.67s.51-2.67,1.53-3.74c1.02-1.07,2.25-1.6,3.67-1.6s2.67,.53,3.74,1.6,1.6,2.31,1.6,3.74-.53,2.65-1.6,3.67c-1.07,1.02-2.31,1.53-3.74,1.53s-2.65-.51-3.67-1.53Zm5.14,17.55h1.47v65.13h-6.14v-63.67c1.33,0,2.89-.49,4.67-1.47Z"/><path class="c" d="M509.66,221.47c-4.14-3.47-6.21-8.14-6.21-14.01s2.25-10.88,6.74-14.48c4.49-3.6,10.39-5.41,17.69-5.41,4.27,0,8.76,.76,13.48,2.27,4.71,1.51,8.9,3.52,12.54,6.01l-2.67,4.94c-3.03-2.31-6.61-4.14-10.74-5.47-4.14-1.33-8.16-2-12.08-2-5.79,0-10.34,1.2-13.68,3.6-3.34,2.4-5,5.74-5,10.01s1.51,7.56,4.54,10.14c3.03,2.58,6.76,3.87,11.21,3.87,4.09,0,7.92-1.07,11.48-3.2,3.56-2.14,6.38-4.98,8.48-8.54,2.09-3.56,3.14-7.34,3.14-11.34h3.87c0,5.61-1.2,10.59-3.6,14.95-2.4,4.36-5.67,7.76-9.81,10.21-4.14,2.45-8.7,3.67-13.68,3.67-6.32,0-11.54-1.73-15.68-5.21Zm39.57-9.61h-.67v-28.7c0-6.49-1.62-11.52-4.87-15.08-3.25-3.56-7.9-5.34-13.95-5.34-2.94,0-6.12,.38-9.54,1.13-3.43,.76-6.79,1.8-10.08,3.14l-2.14-5.74c3.83-1.33,7.68-2.38,11.55-3.14,3.87-.75,7.41-1.13,10.61-1.13,7.47,0,13.44,2.38,17.88,7.14,4.45,4.76,6.67,11.06,6.67,18.89v41.64h-6.41c0-4.45,.31-8.72,.93-12.81Z"/><path class="c" d="M577.66,159.54h6.27c0,4-.11,7.76-.33,11.28-.22,3.52-.51,7.27-.87,11.28h1.07v42.58h-6.14v-65.13Zm45.25,7.94c-2.58-3.07-6.54-4.6-11.88-4.6-4.72,0-9.14,1.18-13.28,3.54-4.14,2.36-7.5,5.9-10.08,10.61-2.58,4.72-3.87,10.37-3.87,16.95h-3.07c0-7.47,1.27-13.99,3.8-19.55,2.54-5.56,6.16-9.85,10.88-12.88,4.71-3.02,10.14-4.54,16.28-4.54,7.03,0,12.32,2.07,15.88,6.21,3.56,4.14,5.34,10.12,5.34,17.95v43.51h-6.14v-43.24c0-6.23-1.29-10.88-3.87-13.95Z"/><path class="c" d="M649.74,216.8l4.14-4.14c6.05,5.87,12.5,8.81,19.35,8.81,4.54,0,8.1-1.2,10.68-3.6,2.58-2.4,3.87-5.34,3.87-8.81,0-2.58-.71-4.78-2.13-6.61-1.42-1.82-3.18-3.31-5.27-4.47-2.09-1.16-5-2.54-8.74-4.14-4-1.6-7.23-3.11-9.68-4.54-2.45-1.42-4.52-3.27-6.21-5.54-1.69-2.27-2.54-5.05-2.54-8.34s.87-6.47,2.6-9.28,4.12-5,7.14-6.61c3.02-1.6,6.41-2.4,10.14-2.4,3.38,0,6.52,.62,9.41,1.87,2.89,1.25,5.85,3.07,8.88,5.47l-3.87,4.81c-2.23-1.96-4.63-3.51-7.21-4.67-2.58-1.16-5.25-1.74-8.01-1.74-4.18,0-7.36,1.22-9.54,3.67-2.18,2.45-3.27,5.18-3.27,8.21,0,2.31,.67,4.29,2,5.94,1.33,1.65,3.02,3.03,5.07,4.14,2.05,1.11,4.81,2.38,8.28,3.8,4.18,1.78,7.54,3.38,10.08,4.8,2.54,1.42,4.69,3.36,6.47,5.81,1.78,2.45,2.67,5.5,2.67,9.14,0,5.52-1.96,10.03-5.87,13.55-3.92,3.51-9.03,5.27-15.35,5.27-8.45,0-16.15-3.47-23.09-10.41Z"/><path class="c" d="M717.14,127.24h1.47v31.63c0,3.92-.09,7.36-.27,10.34-.18,2.98-.53,6.74-1.07,11.28h1.33v44.18h-6.14v-95.83c1.78-.18,3.34-.71,4.67-1.6Zm40.58,40.24c-2.58-3.07-6.54-4.6-11.88-4.6-4.72,0-9.14,1.18-13.28,3.54-4.14,2.36-7.5,5.9-10.08,10.61-2.58,4.72-3.87,10.37-3.87,16.95h-3.07c0-7.47,1.27-13.99,3.8-19.55,2.54-5.56,6.16-9.85,10.88-12.88,4.71-3.02,10.14-4.54,16.28-4.54,7.03,0,12.32,2.07,15.88,6.21,3.56,4.14,5.34,10.12,5.34,17.95v43.51h-6.14v-43.24c0-6.23-1.29-10.88-3.87-13.95Z"/><path class="c" d="M790.61,141.99c-1.02-1.02-1.54-2.25-1.54-3.67s.51-2.67,1.54-3.74c1.02-1.07,2.25-1.6,3.67-1.6s2.67,.53,3.74,1.6c1.07,1.07,1.6,2.31,1.6,3.74s-.53,2.65-1.6,3.67c-1.07,1.02-2.32,1.53-3.74,1.53s-2.65-.51-3.67-1.53Zm5.14,17.55h1.47v65.13h-6.14v-63.67c1.33,0,2.89-.49,4.67-1.47Z"/><path class="c" d="M821.24,159.54h6.27c0,3.12-.11,6.61-.33,10.48-.22,3.87-.51,7.36-.87,10.48h1.07v22.96h-1.2c.35,3.38,.64,6.85,.87,10.41,.22,3.56,.33,6.9,.33,10.01v30.16h-6.14v-94.5Zm16.82,63.6c-4.8-2.89-8.54-6.94-11.21-12.15-2.67-5.21-4-11.14-4-17.82s1.38-12.92,4.14-18.49c2.76-5.56,6.58-9.94,11.48-13.15,4.89-3.2,10.37-4.81,16.42-4.81s11.77,1.47,16.62,4.4c4.85,2.94,8.61,7.07,11.28,12.41,2.67,5.34,4,11.48,4,18.42s-1.4,12.84-4.2,18.22c-2.8,5.38-6.65,9.61-11.55,12.68-4.89,3.07-10.41,4.6-16.55,4.6s-11.61-1.45-16.42-4.34Zm35.3-9.41c4.76-5.34,7.14-12.5,7.14-21.49s-2.36-16.3-7.07-21.69c-4.72-5.38-11.03-8.07-18.95-8.07-5.25,0-9.94,1.33-14.08,4-4.14,2.67-7.34,6.32-9.61,10.94-2.27,4.63-3.4,9.79-3.4,15.48s1.13,10.61,3.4,15.02c2.27,4.4,5.45,7.81,9.54,10.21,4.09,2.4,8.81,3.6,14.15,3.6,7.83,0,14.12-2.67,18.89-8.01Z"/></g><g><path class="g" d="M130.69,369.68c-5.8-3.08-10.38-7.5-13.75-13.26-3.37-5.76-5.05-12.48-5.05-20.16s1.85-14.98,5.54-20.81c3.7-5.83,8.55-10.23,14.56-13.21,6.01-2.97,12.43-4.46,19.24-4.46,3.91,0,7.77,.54,11.58,1.63s7.45,2.72,10.92,4.89l-7.93,13.04c-2.17-1.38-4.46-2.43-6.85-3.15-2.39-.72-4.89-1.09-7.5-1.09-3.77,0-7.3,.91-10.6,2.72-3.3,1.81-5.94,4.44-7.93,7.88-1.99,3.44-2.99,7.48-2.99,12.12s.98,8.93,2.93,12.45c1.96,3.52,4.55,6.18,7.77,7.99,3.22,1.81,6.76,2.72,10.6,2.72,2.9,0,5.74-.45,8.53-1.36,2.79-.91,5.42-2.23,7.88-3.97l8.04,12.5c-3.91,2.68-8.06,4.71-12.44,6.09-4.38,1.38-8.82,2.06-13.31,2.06-7.03,0-13.44-1.54-19.24-4.62Z"/><path class="g" d="M193.46,370.71c-4.39-2.39-7.83-5.72-10.33-10-2.5-4.27-3.75-9.09-3.75-14.46s1.29-10.47,3.86-14.89c2.57-4.42,6.14-7.9,10.71-10.43,4.56-2.54,9.67-3.8,15.33-3.8s10.45,1.2,14.84,3.59c4.38,2.39,7.83,5.74,10.33,10.05,2.5,4.31,3.75,9.15,3.75,14.51s-1.29,10.47-3.86,14.89c-2.57,4.42-6.14,7.88-10.71,10.38-4.56,2.5-9.67,3.75-15.33,3.75s-10.45-1.2-14.84-3.59Zm21.3-13.53c1.7-1.05,3.01-2.55,3.91-4.51,.91-1.96,1.36-4.27,1.36-6.96s-.45-5-1.36-6.96c-.91-1.96-2.21-3.46-3.91-4.51-1.7-1.05-3.68-1.58-5.92-1.58s-4.33,.53-6.03,1.58c-1.7,1.05-3.01,2.55-3.91,4.51-.91,1.96-1.36,4.28-1.36,6.96s.45,5,1.36,6.96c.91,1.96,2.21,3.46,3.91,4.51,1.7,1.05,3.68,1.58,5.92,1.58s4.33-.52,6.03-1.58Z"/><path class="g" d="M247.21,318.44h16.3c0,2.9-.29,6.03-.87,9.4-.58,3.37-1.34,6.36-2.28,8.97h3.8v36.19h-16.96v-54.56Zm32.99,16.41c-.91-1.74-2.45-2.61-4.62-2.61s-4.22,.65-5.92,1.96c-1.7,1.3-3.04,3.08-4.02,5.33-.98,2.25-1.47,4.82-1.47,7.72h-5.22c0-5.8,.83-10.98,2.5-15.54,1.67-4.56,4.17-8.13,7.5-10.71,3.33-2.57,7.35-3.86,12.06-3.86,5.8,0,10.16,1.99,13.1,5.98,2.93,3.99,4.4,9.85,4.4,17.61v32.28h-16.96v-29.24c0-4.2-.45-7.17-1.36-8.91Zm34.35,0c-.91-1.74-2.45-2.61-4.62-2.61s-4.22,.65-5.92,1.96c-1.7,1.3-3.04,3.08-4.02,5.33-.98,2.25-1.47,4.82-1.47,7.72h-5.22c0-5.8,.83-10.98,2.5-15.54,1.67-4.56,4.17-8.13,7.5-10.71,3.33-2.57,7.35-3.86,12.06-3.86,5.8,0,10.16,1.99,13.1,5.98,2.93,3.99,4.4,9.85,4.4,17.61v32.28h-16.96v-29.24c0-4.2-.45-7.17-1.36-8.91Z"/><path class="g" d="M344.37,318.44h16.63c0,3.26-.33,6.5-.98,9.73-.65,3.23-1.52,6.18-2.61,8.86h3.91v17.17h-3.48c1.09,3.91,1.94,7.93,2.55,12.06,.61,4.13,.92,7.97,.92,11.52v19.13h-16.96v-78.47Zm21.52,52.5c-3.48-2.25-6.18-5.51-8.1-9.78-1.92-4.27-2.88-9.35-2.88-15.22s1-11.18,2.99-15.49c1.99-4.31,4.78-7.61,8.37-9.89,3.59-2.28,7.81-3.42,12.66-3.42s9.46,1.21,13.37,3.64c3.91,2.43,6.96,5.78,9.13,10.05,2.17,4.28,3.26,9.09,3.26,14.46s-1.12,10.47-3.37,14.89c-2.25,4.42-5.4,7.88-9.46,10.38-4.06,2.5-8.62,3.75-13.69,3.75-4.71,0-8.8-1.12-12.28-3.37Zm17.23-15.81c2.21-2.28,3.31-5.38,3.31-9.29s-1.12-6.96-3.37-9.35c-2.25-2.39-5.25-3.59-9.02-3.59-2.46,0-4.66,.51-6.58,1.52-1.92,1.02-3.42,2.48-4.51,4.4-1.09,1.92-1.63,4.15-1.63,6.68s.52,4.89,1.58,6.85c1.05,1.96,2.55,3.48,4.51,4.56s4.2,1.63,6.74,1.63c3.77,0,6.76-1.14,8.97-3.42Z"/><path class="g" d="M416.7,370.12c-3.52-3.01-5.27-7.01-5.27-12.01,0-5.29,2.01-9.53,6.03-12.72,4.02-3.19,9.29-4.78,15.81-4.78,4.56,0,8.59,.8,12.06,2.39,3.48,1.59,6.3,3.88,8.48,6.85l-5.98,6.09c-1.38-1.23-3.04-2.25-5-3.04-1.96-.8-3.99-1.2-6.09-1.2-2.32,0-4.09,.49-5.33,1.47-1.23,.98-1.85,2.27-1.85,3.86s.6,2.84,1.79,3.75c1.2,.91,2.66,1.36,4.4,1.36,1.59,0,3.15-.36,4.67-1.09,1.52-.72,2.75-1.69,3.7-2.88,.94-1.2,1.41-2.52,1.41-3.97l5.43-.33c0,3.77-.8,7.23-2.39,10.38-1.59,3.15-3.97,5.67-7.12,7.55-3.15,1.88-6.9,2.83-11.25,2.83-5.51,0-10.02-1.5-13.53-4.51Zm31.47-7.55h-2.61v-18.59c0-3.62-1.02-6.38-3.04-8.26-2.03-1.88-5.25-2.83-9.67-2.83-1.89,0-3.86,.22-5.92,.65-2.06,.43-4.4,1.16-7.01,2.17l-4.78-14.35c3.84-1.38,7.34-2.39,10.49-3.04,3.15-.65,6.32-.98,9.51-.98,8.48,0,15.16,2.16,20.05,6.47,4.89,4.31,7.34,10.74,7.34,19.29v29.89h-15.76c0-3.19,.47-6.67,1.41-10.43Z"/><path class="g" d="M470.02,363.76l11.96-9.46c2.83,3.77,6.67,5.65,11.52,5.65,2.03,0,3.55-.25,4.56-.76,1.01-.51,1.52-1.2,1.52-2.06,0-.8-.36-1.47-1.09-2.01-.73-.54-1.65-1-2.77-1.36-1.12-.36-2.74-.76-4.84-1.2-3.91-.87-7.17-1.81-9.78-2.83-2.61-1.01-4.87-2.68-6.79-5-1.92-2.32-2.88-5.43-2.88-9.35s.96-7.14,2.88-9.89c1.92-2.75,4.6-4.85,8.04-6.3,3.44-1.45,7.45-2.17,12.01-2.17s8.73,.83,12.5,2.5c3.77,1.67,6.99,4.24,9.67,7.72l-11.85,9.02c-1.16-1.67-2.48-2.92-3.97-3.75-1.49-.83-3.35-1.25-5.6-1.25-2.1,0-3.75,.31-4.95,.92-1.2,.62-1.79,1.43-1.79,2.45,0,.87,.38,1.58,1.14,2.12,.76,.54,1.85,1.03,3.26,1.47,1.41,.44,2.92,.83,4.51,1.2,3.84,.87,7.05,1.79,9.62,2.77,2.57,.98,4.82,2.59,6.74,4.84,1.92,2.25,2.88,5.29,2.88,9.13,0,5.43-2.1,9.8-6.3,13.1-4.2,3.3-9.96,4.95-17.28,4.95-10.07,0-17.72-3.48-22.93-10.43Z"/><path class="g" d="M522.73,363.76l11.96-9.46c2.83,3.77,6.67,5.65,11.52,5.65,2.03,0,3.55-.25,4.56-.76,1.01-.51,1.52-1.2,1.52-2.06,0-.8-.36-1.47-1.09-2.01-.72-.54-1.65-1-2.77-1.36-1.12-.36-2.74-.76-4.84-1.2-3.91-.87-7.17-1.81-9.78-2.83-2.61-1.01-4.87-2.68-6.79-5-1.92-2.32-2.88-5.43-2.88-9.35s.96-7.14,2.88-9.89c1.92-2.75,4.6-4.85,8.04-6.3,3.44-1.45,7.44-2.17,12.01-2.17s8.73,.83,12.5,2.5c3.77,1.67,6.99,4.24,9.67,7.72l-11.85,9.02c-1.16-1.67-2.48-2.92-3.97-3.75-1.49-.83-3.35-1.25-5.6-1.25-2.1,0-3.75,.31-4.95,.92-1.2,.62-1.79,1.43-1.79,2.45,0,.87,.38,1.58,1.14,2.12s1.85,1.03,3.26,1.47c1.41,.44,2.92,.83,4.51,1.2,3.84,.87,7.05,1.79,9.62,2.77,2.57,.98,4.82,2.59,6.74,4.84,1.92,2.25,2.88,5.29,2.88,9.13,0,5.43-2.1,9.8-6.3,13.1-4.2,3.3-9.96,4.95-17.28,4.95-10.07,0-17.72-3.48-22.93-10.43Z"/><path class="g" d="M579.73,308.33c-1.99-2.03-2.99-4.38-2.99-7.06,0-2.83,.98-5.22,2.93-7.17,1.96-1.96,4.35-2.93,7.17-2.93s5.2,.98,7.12,2.93c1.92,1.96,2.88,4.35,2.88,7.17s-.96,5.31-2.88,7.23c-1.92,1.92-4.29,2.88-7.12,2.88s-5.13-1.01-7.12-3.04Zm13.31,10.11h2.17v54.56h-16.96v-50.43c5.94-.58,10.87-1.96,14.78-4.13Z"/><path class="g" d="M618.32,370.71c-4.38-2.39-7.83-5.72-10.33-10-2.5-4.27-3.75-9.09-3.75-14.46s1.29-10.47,3.86-14.89c2.57-4.42,6.14-7.9,10.71-10.43,4.56-2.54,9.67-3.8,15.33-3.8s10.45,1.2,14.84,3.59c4.38,2.39,7.83,5.74,10.33,10.05,2.5,4.31,3.75,9.15,3.75,14.51s-1.29,10.47-3.86,14.89c-2.57,4.42-6.14,7.88-10.71,10.38-4.57,2.5-9.67,3.75-15.33,3.75s-10.45-1.2-14.84-3.59Zm21.3-13.53c1.7-1.05,3.01-2.55,3.91-4.51,.91-1.96,1.36-4.27,1.36-6.96s-.45-5-1.36-6.96c-.91-1.96-2.21-3.46-3.91-4.51-1.7-1.05-3.68-1.58-5.92-1.58s-4.33,.53-6.03,1.58c-1.7,1.05-3.01,2.55-3.91,4.51-.91,1.96-1.36,4.28-1.36,6.96s.45,5,1.36,6.96c.91,1.96,2.21,3.46,3.91,4.51,1.7,1.05,3.68,1.58,5.92,1.58s4.33-.52,6.03-1.58Z"/><path class="g" d="M672.06,318.44h16.3c0,2.9-.29,6.03-.87,9.4-.58,3.37-1.34,6.36-2.28,8.97h3.8v36.19h-16.96v-54.56Zm34.89,16.25c-1.09-1.63-2.9-2.45-5.43-2.45s-4.66,.65-6.58,1.96c-1.92,1.3-3.39,3.1-4.4,5.38-1.02,2.28-1.52,4.84-1.52,7.66h-5.98c0-5.72,.98-10.87,2.93-15.43s4.75-8.15,8.37-10.76c3.62-2.61,7.83-3.91,12.61-3.91,5.8,0,10.34,2.08,13.64,6.25,3.3,4.17,4.95,9.95,4.95,17.34v32.28h-16.96v-30.11c0-3.84-.54-6.58-1.63-8.21Z"/><path class="g" d="M738.96,370.12c-3.52-3.01-5.27-7.01-5.27-12.01,0-5.29,2.01-9.53,6.03-12.72,4.02-3.19,9.29-4.78,15.81-4.78,4.57,0,8.59,.8,12.06,2.39,3.48,1.59,6.3,3.88,8.48,6.85l-5.98,6.09c-1.38-1.23-3.04-2.25-5-3.04-1.96-.8-3.99-1.2-6.09-1.2-2.32,0-4.09,.49-5.33,1.47-1.23,.98-1.85,2.27-1.85,3.86s.6,2.84,1.79,3.75c1.2,.91,2.66,1.36,4.4,1.36,1.59,0,3.15-.36,4.67-1.09,1.52-.72,2.75-1.69,3.7-2.88,.94-1.2,1.41-2.52,1.41-3.97l5.43-.33c0,3.77-.8,7.23-2.39,10.38-1.59,3.15-3.97,5.67-7.12,7.55-3.15,1.88-6.9,2.83-11.25,2.83-5.51,0-10.02-1.5-13.53-4.51Zm31.47-7.55h-2.61v-18.59c0-3.62-1.02-6.38-3.04-8.26-2.03-1.88-5.25-2.83-9.67-2.83-1.88,0-3.86,.22-5.92,.65-2.06,.43-4.4,1.16-7.01,2.17l-4.78-14.35c3.84-1.38,7.34-2.39,10.49-3.04,3.15-.65,6.32-.98,9.51-.98,8.48,0,15.16,2.16,20.05,6.47,4.89,4.31,7.34,10.74,7.34,19.29v29.89h-15.76c0-3.19,.47-6.67,1.41-10.43Z"/><path class="g" d="M791.51,318.44h35.22v14.46h-35.22v-14.46Zm17.93,52.44c-3.62-1.41-6.25-3.68-7.88-6.79-1.63-3.11-2.45-7.39-2.45-12.83v-30l3.04-16.52h13.91v45.76c0,2.68,.62,4.51,1.85,5.49,1.23,.98,3.59,1.47,7.07,1.47h2.06v15.54h-2.72c-6.3,0-11.27-.71-14.89-2.12Z"/><path class="g" d="M847.32,371.1c-4.31-2.14-7.59-5.25-9.84-9.35-2.25-4.09-3.37-9.04-3.37-14.84s1.16-11.27,3.48-15.76c2.32-4.49,5.61-7.95,9.89-10.38,4.27-2.43,9.2-3.64,14.78-3.64,6.74,0,12.12,1.52,16.14,4.56s6.7,7.16,8.04,12.34c1.34,5.18,1.5,10.92,.49,17.23h-41.95v-11.52h30l-3.8,1.74c0-3.4-.72-5.99-2.17-7.77-1.45-1.77-3.73-2.66-6.85-2.66-2.25,0-4.18,.42-5.81,1.25-1.63,.83-2.86,2.12-3.7,3.86-.83,1.74-1.25,3.91-1.25,6.52v5.54c0,2.54,.52,4.67,1.58,6.41,1.05,1.74,2.57,3.04,4.56,3.91,1.99,.87,4.37,1.3,7.12,1.3,2.54,0,5.09-.33,7.66-.98,2.57-.65,4.84-1.52,6.79-2.61l6.2,12.72c-3.12,1.67-6.59,2.97-10.43,3.91-3.84,.94-7.83,1.41-11.96,1.41-6.09,0-11.29-1.07-15.6-3.21Z"/></g></svg>