<?xml version="1.0" encoding="utf-8"?>
<!-- Generator: Adobe Illustrator 27.0.0, SVG Export Plug-In . SVG Version: 6.00 Build 0)  -->
<svg version="1.1" id="a" xmlns="http://www.w3.org/2000/svg" xmlns:xlink="http://www.w3.org/1999/xlink" x="0px" y="0px"
	 viewBox="0 0 1000 1000" style="enable-background:new 0 0 1000 1000;" xml:space="preserve">
<style type="text/css">
	.st0{fill:#151517;}
	.st1{enable-background:new    ;}
	.st2{fill:#FDFBF8;}
	.st3{fill:#D4A243;}
</style>
<rect class="st0" width="1000" height="1000"/>
<g class="st1">
	<path class="st2" d="M114.6,435.5h24.8c26.2,0,40.2,12,40.2,33.4c0,22.5-14.7,34.8-40,34.8h-12.5v39.4h-12.5V435.5z M140.4,492.5
		c16.8,0,25.9-7,25.9-22.9c0-15-8.5-22.8-27.4-22.8h-11.9v45.7H140.4z"/>
</g>
<g class="st1">
	<path class="st2" d="M197.3,465.3h12.3c0,6.3-0.3,11.9-0.9,17.6c4.9-12.7,14.4-20.2,27.8-20.2c1.6,0,3.3,0,5.1,0.3l-0.9,12.6
		c-1.9-0.3-3.6-0.5-5.4-0.5c-15.5,0-25.5,12.8-25.5,31.3v36.7h-12.5V465.3z"/>
</g>
<g class="st1">
	<path class="st2" d="M251.4,504.5c0-24.8,15.3-42.2,38.7-42.2c25.6,0,37.5,19.3,34.8,45.4h-60.7c1.1,16.4,12.3,27,28.5,27
		c8.2,0,16.9-2.8,24.2-8.7l6,9.2c-9,7.3-20.2,10.9-31.5,10.9C267.5,546.1,251.4,529.3,251.4,504.5z M312.9,496.9
		c-0.8-14.9-9.3-23.6-22.9-23.6c-13.9,0-23.6,9.3-25.5,23.6H312.9z"/>
</g>
<g class="st1">
	<path class="st2" d="M339.7,532.5l8.7-7.6c6,6.5,13.1,9.8,21,9.8c9.8,0,14.7-5.5,14.7-11.5c0-17.4-41-11.4-41-37.3
		c0-13.6,11.1-23.2,26.6-23.2c9.6,0,17.7,3.8,24.8,10.6l-8.4,7.9c-4.4-4.3-10-7.4-16.8-7.4c-9.5,0-13.6,6-13.6,11.2
		c0,16.6,41,10.6,41,37.3c0,13.8-10.8,23.6-28,23.6C357.5,545.8,348,541.3,339.7,532.5z"/>
</g>
<g class="st1">
	<path class="st2" d="M422.4,518.7v-42.5H408v-10.9h14.7l2.1-20.6h10.1v20.6h19v10.9h-19v41.7c0,9.8,4.6,13.8,15.3,13.8h5.1v11.4
		h-5.7C431,543.1,422.4,535.6,422.4,518.7z"/>
	<path class="st2" d="M480.1,431.3c4.7,0,8.7,4.1,8.7,8.9c0,4.9-4,8.7-8.7,8.7c-4.9,0-8.9-4.1-8.9-8.7
		C471.3,435.4,475.2,431.3,480.1,431.3z M483.9,465.3h2.2v77.8h-12.5v-74.8C476.7,468.1,480.9,466.9,483.9,465.3z"/>
	<path class="st2" d="M509.7,564.3l8.4-8.2c8.5,8.2,18.5,12.3,29.1,12.3c17.7,0,27.8-11.4,27.8-31.2c0-2.4,0.2-5.7,0.6-9.8
		c-6.2,10.8-16.9,16.9-30.8,16.9c-22.9,0-38.1-16.8-38.1-40.5c0-24.5,15.7-41.4,38.7-41.4c13.9,0,24.4,6.3,30.4,16.9
		c-0.5-4.7-0.6-9.5-0.6-14.1h12.3v71.2c0,26.4-15.2,43.5-40.8,43.5C532.3,579.9,519.4,574.4,509.7,564.3z M547.5,532.6
		c16.8,0,27.5-11.1,27.5-28.8c0-17.6-10.8-29.9-27.8-29.9c-16.8,0-27.4,11.5-27.4,29.6C519.8,521.1,530.4,532.6,547.5,532.6z"/>
	<path class="st2" d="M619.3,431.3c4.7,0,8.7,4.1,8.7,8.9c0,4.9-4,8.7-8.7,8.7c-4.9,0-8.9-4.1-8.9-8.7
		C610.4,435.4,614.4,431.3,619.3,431.3z M623.1,465.3h2.2v77.8h-12.5v-74.8C615.8,468.1,620.1,466.9,623.1,465.3z"/>
	<path class="st2" d="M645.5,504.3c0-24.7,17.2-41.9,41.7-41.9c23.9,0,40.5,16.9,40.5,41.3c0,24.8-17.4,42.2-41.7,42.2
		C662.1,545.9,645.5,528.8,645.5,504.3z M686.5,534.4c16.8,0,28.1-12,28.1-30.2c0-18.2-11.1-30.4-27.8-30.4
		c-16.9,0-28.1,12-28.1,30.2C658.7,522.4,669.7,534.4,686.5,534.4z"/>
	<path class="st2" d="M747.2,516.2v-50.9h12.5v49.7c0,13.1,4.9,19.3,16.1,19.3c14.4,0,28-11.2,28-32.3v-36.7h12.5v77.8H804
		c0-7.9,0.6-14.4,1.7-21.8c-5.2,15.2-17.1,24.5-32.9,24.5C756.2,545.8,747.2,535.5,747.2,516.2z"/>
	<path class="st2" d="M834.5,532.5l8.7-7.6c6,6.5,13.1,9.8,21,9.8c9.8,0,14.7-5.5,14.7-11.5c0-17.4-41-11.4-41-37.3
		c0-13.6,11.1-23.2,26.6-23.2c9.6,0,17.7,3.8,24.8,10.6l-8.4,7.9c-4.4-4.3-10-7.4-16.8-7.4c-9.5,0-13.6,6-13.6,11.2
		c0,16.6,41,10.6,41,37.3c0,13.8-10.8,23.6-28,23.6C852.2,545.8,842.7,541.3,834.5,532.5z"/>
</g>
<g>
	<path class="st2" d="M115.2,744.1h17.9v102.4h-17.9C115.1,846.4,115.1,744.1,115.2,744.1z M122.4,744.1h50.7v15.5h-50.7V744.1z
		 M122.4,787.3h44.7v15.3h-44.7C122.4,802.6,122.4,787.3,122.4,787.3z M122.4,830.9h51.2v15.5h-51.2
		C122.4,846.4,122.4,830.9,122.4,830.9z"/>
	<path class="st2" d="M188.8,771.6h17.3c0,4.1-0.3,8.4-0.9,12.9c-0.6,4.5-1.4,8.7-2.4,12.6h3.9v49.4h-17.9V771.6z M238,789.5
		c-2-2.7-5.2-4-9.5-4c-4,0-7.7,1-11.1,3.2s-6,5.1-7.9,9c-1.9,3.9-2.9,8.4-2.9,13.4h-6.6c0-8,1.4-15.2,4.1-21.5
		c2.8-6.3,6.7-11.3,11.8-14.8c5.1-3.6,11-5.3,17.8-5.3c8,0,14.2,2.7,18.6,8.1c4.4,5.4,6.6,13,6.6,22.7v46.2H241v-44.1
		C241,796.4,240,792.1,238,789.5L238,789.5z"/>
	<path class="st2" d="M270.8,771.6h46.4V787h-46.4V771.6z M295.6,843.7c-4.4-1.8-7.6-4.6-9.7-8.5s-3.1-9.1-3.1-15.6v-44.6l3.3-22.7
		h14.6v66.4c0,4.2,1,7.2,2.9,8.8s5.4,2.5,10.5,2.5h3.9v16.4h-4.7C306,846.4,300,845.5,295.6,843.7L295.6,843.7z"/>
	<path class="st2" d="M348.9,736.5h2.6v30.3c0,5.4-0.3,10.6-0.8,15.7c-0.5,5-1.3,9.7-2.2,14.2h3v49.8h-17.9V740.9
		C339.7,740.3,344.8,738.8,348.9,736.5L348.9,736.5z M382.9,789.4c-2-2.7-5.2-4-9.5-4s-7.8,1-11.1,3.2c-3.3,2.1-5.9,5.1-7.8,9
		c-1.9,3.9-2.9,8.4-2.9,13.4H345c0-8,1.4-15.2,4.1-21.5c2.8-6.3,6.7-11.3,11.8-14.8c5.1-3.6,11-5.3,17.8-5.3
		c7.9,0,14.1,2.7,18.5,8.1c4.4,5.4,6.6,13,6.6,22.7v46.2H386v-44.1C386,796.4,385,792.1,382.9,789.4L382.9,789.4z"/>
	<path class="st2" d="M428.9,841.1c-4.4-5-6.6-12.2-6.6-21.8v-47.7h17.9v45.5c0,5.4,1,9.3,3,11.7s5.2,3.6,9.5,3.6c4,0,7.7-1,11-3.1
		s6-5,7.9-9c2-3.9,2.9-8.4,2.9-13.5h6c0,8.1-1.3,15.3-4,21.7c-2.7,6.3-6.5,11.2-11.5,14.8s-10.9,5.3-17.6,5.3
		C439.4,848.5,433.3,846,428.9,841.1L428.9,841.1z M475.8,833.9c0.6-4.2,1.5-8.5,2.6-13h-3.9v-49.4h17.9v74.8h-17.5
		C474.9,842.3,475.2,838.1,475.8,833.9z"/>
	<path class="st2" d="M506.8,835l12.5-10.2c4.9,5.6,10.9,8.4,17.9,8.4c3.6,0,6.4-0.7,8.3-2c1.9-1.4,2.9-3.1,2.9-5.2
		c0-1.7-0.6-3.2-1.8-4.4c-1.2-1.2-2.7-2.2-4.5-2.9c-1.8-0.8-4.4-1.6-7.8-2.6c-5.1-1.4-9.3-2.9-12.6-4.4c-3.3-1.5-6.2-3.7-8.6-6.7
		c-2.4-3-3.6-6.9-3.6-11.8s1.2-9,3.6-12.6s5.8-6.3,10.1-8.3c4.3-2,9.3-2.9,14.9-2.9s10.6,1,15.1,3s8.7,5.1,12.3,9.2l-12.3,10.1
		c-1.9-2.3-4-4.1-6.4-5.3c-2.4-1.2-5.1-1.8-8.2-1.8c-3.5,0-6.2,0.8-8.2,2.3c-2,1.5-2.9,3.3-2.9,5.4c0,1.7,0.6,3.1,1.8,4.2
		c1.2,1.1,2.9,2.1,5,2.9s4.6,1.7,7.4,2.6c5.1,1.5,9.3,3,12.6,4.4s6.2,3.6,8.6,6.6c2.4,3,3.6,7,3.6,11.9c0,7.1-2.7,12.9-8,17.2
		s-12.5,6.5-21.7,6.5C524.2,848.5,514.3,844,506.8,835L506.8,835z"/>
	<path class="st2" d="M582.8,755.6c-2.3-2.3-3.4-4.9-3.4-7.9s1.1-5.8,3.3-8c2.2-2.2,4.9-3.3,8-3.3s5.9,1.1,8,3.3
		c2.2,2.2,3.2,4.9,3.2,8s-1.1,5.9-3.2,8s-4.8,3.2-8,3.2C587.7,759,585,757.8,582.8,755.6L582.8,755.6z M597,771.6h2.6v74.8h-17.9
		V776C587.7,775.4,592.8,773.9,597,771.6z"/>
	<path class="st2" d="M621.5,842.6c-4.8-4.1-7.2-9.5-7.2-16.3c0-7.2,2.7-13,8-17.2c5.4-4.3,12.5-6.4,21.3-6.4c5.8,0,11.2,1,16.2,3
		s9.2,4.9,12.6,8.6l-6.6,7.5c-2.4-2-5.3-3.6-8.7-4.9c-3.4-1.2-6.8-1.9-10.2-1.9c-4.3,0-7.7,0.9-10.1,2.7c-2.4,1.8-3.6,4.3-3.6,7.4
		s1.1,5.4,3.4,7.2s5,2.7,8.3,2.7c3,0,5.9-0.7,8.7-2.2c2.8-1.5,5-3.4,6.6-5.9c1.7-2.5,2.5-5.1,2.5-7.9l6.5-0.3
		c0,5.5-1.2,10.6-3.6,15.1s-5.8,8.2-10.3,10.8c-4.5,2.7-9.6,4-15.4,4C632.4,848.7,626.2,846.7,621.5,842.6L621.5,842.6z M665.3,832
		h-2.6v-28c0-5.8-1.6-10.3-4.7-13.3s-7.8-4.6-14.2-4.6c-2.9,0-6,0.3-9.1,1s-6.6,1.8-10.3,3.2l-5.1-15.3c4.9-1.8,9.6-3.1,13.9-4
		c4.4-0.8,8.7-1.3,12.9-1.3c10.6,0,19,2.9,25.2,8.7c6.2,5.8,9.3,14.1,9.3,24.9v43.2h-17C663.7,841.8,664.2,837,665.3,832L665.3,832z
		"/>
	<path class="st2" d="M693.8,835l12.5-10.2c4.9,5.6,10.9,8.4,17.9,8.4c3.6,0,6.4-0.7,8.3-2c1.9-1.4,2.9-3.1,2.9-5.2
		c0-1.7-0.6-3.2-1.8-4.4c-1.2-1.2-2.7-2.2-4.5-2.9c-1.8-0.8-4.4-1.6-7.8-2.6c-5.1-1.4-9.3-2.9-12.6-4.4c-3.3-1.5-6.2-3.7-8.6-6.7
		c-2.4-3-3.6-6.9-3.6-11.8s1.2-9,3.6-12.6s5.8-6.3,10.1-8.3c4.3-2,9.3-2.9,14.9-2.9s10.6,1,15.1,3s8.7,5.1,12.3,9.2L740,791.6
		c-1.9-2.3-4-4.1-6.4-5.3c-2.4-1.2-5.1-1.8-8.2-1.8c-3.5,0-6.2,0.8-8.2,2.3c-2,1.5-2.9,3.3-2.9,5.4c0,1.7,0.6,3.1,1.8,4.2
		c1.2,1.1,2.9,2.1,5,2.9s4.6,1.7,7.4,2.6c5.1,1.5,9.3,3,12.6,4.4s6.2,3.6,8.6,6.6c2.4,3,3.6,7,3.6,11.9c0,7.1-2.7,12.9-8,17.2
		s-12.5,6.5-21.7,6.5C711.2,848.5,701.2,844,693.8,835L693.8,835z"/>
	<path class="st2" d="M768.6,771.6h17.3c0,4.1-0.3,8.4-0.9,12.9c-0.6,4.5-1.4,8.7-2.4,12.6h3.9v49.4h-17.9V771.6z M815.6,789.7
		c-1.8-2.8-4.7-4.2-8.6-4.2s-7.1,1-10.2,3.2s-5.6,5.1-7.5,9c-1.9,3.9-2.8,8.4-2.8,13.5h-6c0-8.7,1.3-16.2,4.1-22.5
		c2.7-6.3,6.5-11,11.2-14.3c4.8-3.3,10.3-4.9,16.5-4.9c7.9,0,13.9,2.6,17.9,7.9c4,5.3,6,12.9,6,23v46.2h-17.9v-43.3
		C818.3,796.9,817.4,792.5,815.6,789.7L815.6,789.7z M865.3,789.7c-1.8-2.8-4.7-4.2-8.6-4.2s-7.2,1-10.3,3.2s-5.5,5.1-7.4,9
		s-2.8,8.4-2.8,13.5h-6c0-8.7,1.3-16.2,4-22.5c2.7-6.3,6.4-11,11.2-14.3c4.8-3.3,10.3-4.9,16.6-4.9c7.9,0,13.9,2.6,17.9,7.9
		c4,5.3,6,12.9,6,23v46.2H868v-43.3C868,796.9,867.1,792.5,865.3,789.7L865.3,789.7z"/>
</g>
<g class="st1">
	<path class="st3" d="M117.7,676.8l24.5-23.4c5.7-5.4,8.6-10.3,8.6-15.8c0-7.5-4.7-12.1-12.3-12.1c-6.5,0-11.6,4.1-14.2,11.4
		l-6.7-1.8c2.8-9.2,10.8-16.4,21.4-16.4c11.4,0,19.4,7.4,19.4,18.5c0,6.8-3.2,13-10.4,19.8l-19.5,18.8h31v6.9h-41.8V676.8z"/>
</g>
<g class="st1">
	<path class="st3" d="M170.6,652.8c0-21.8,10-34.2,25.2-34.2c15.2,0,22.9,12.1,22.9,31.4c0,21.8-9.8,34.1-25.2,34.1
		C178.4,684.2,170.6,672.2,170.6,652.8z M193.8,677.4c10.9,0,17.1-8.9,17.1-27c0-15.8-4.8-24.9-15.4-24.9
		c-10.9,0-17.3,9.4-17.3,27.3C178.2,668.8,183.3,677.4,193.8,677.4z"/>
	<path class="st3" d="M233,652.8c0-21.8,10-34.2,25.2-34.2c15.2,0,22.9,12.1,22.9,31.4c0,21.8-9.8,34.1-25.2,34.1
		C240.8,684.2,233,672.2,233,652.8z M256.2,677.4c10.9,0,17.1-8.9,17.1-27c0-15.8-4.8-24.9-15.4-24.9c-10.9,0-17.3,9.4-17.3,27.3
		C240.6,668.8,245.7,677.4,256.2,677.4z"/>
</g>
<g class="st1">
	<path class="st3" d="M293.3,659.8c0-23.3,13-38.2,36.6-40.7l0.6,7c-15.6,1.3-27,9.4-29.6,26.3c3.5-5.2,9.4-8.2,16.6-8.2
		c11.3,0,19.3,7.8,19.3,19.2c0,12.3-9.4,20.9-22.3,20.9C301.5,684.2,293.3,675.2,293.3,659.8z M315,677.4c8.7,0,14.3-5.4,14.3-13.9
		c0-8-5.2-13-13.2-13c-9.1,0-14.9,5.4-14.9,14C301.2,672.4,306.5,677.4,315,677.4z"/>
</g>
<g class="st1">
	<path class="st3" d="M369.2,660.2c0-14.5,10-24.4,24.3-24.4c5.3,0,10.4,1.5,14.9,4.8l-4,5.6c-3.5-2.6-7.4-3.8-11.2-3.8
		c-9.7,0-16.4,6.8-16.4,17.6s6.4,17.7,16.2,17.7c4.4,0,9.2-1.6,13.2-5l3.9,5.4c-5.2,4.3-11.3,6.3-17.3,6.3
		C378.6,684.4,369.2,674.6,369.2,660.2z"/>
</g>
<g class="st1">
	<path class="st3" d="M413.1,660.2c0-14.4,10-24.4,24.3-24.4c13.9,0,23.6,9.9,23.6,24c0,14.5-10.1,24.6-24.3,24.6
		C422.8,684.4,413.1,674.5,413.1,660.2z M437,677.7c9.8,0,16.4-7,16.4-17.6c0-10.6-6.4-17.7-16.2-17.7c-9.9,0-16.4,7-16.4,17.6
		C420.7,670.7,427.2,677.7,437,677.7z"/>
	<path class="st3" d="M472.8,637.5h7.2c0,4.2-0.3,7.7-0.7,11.6c3.4-9.3,10.8-13.2,18.2-13.2c7.8,0,12.5,4.1,14,12
		c3.6-8.4,10.7-12,17.8-12c9.6,0,14.5,6.3,14.5,17.7v29.2h-7.3v-28.4c0-7.9-2.8-11.9-8.9-11.9c-7.8,0-15.6,6.6-15.6,18.9v21.4h-7.3
		v-28.4c0-7.9-2.8-11.9-8.8-11.9c-7.9,0-15.7,6.6-15.7,18.9v21.4h-7.3V637.5z"/>
</g>
<g class="st1">
	<path class="st3" d="M554.7,637.5h7.3c0,3-0.3,6.4-0.6,9.6c3.7-6.9,10.3-11.2,18.4-11.2c13.1,0,21.9,9.9,21.9,24.1
		c0,14.2-9.4,24.5-22.3,24.5c-8,0-14.4-3.9-18-10.3c0.4,3.4,0.6,6.6,0.6,9.5v19.4h-7.3V637.5z M578.4,677.7
		c9.4,0,15.7-6.7,15.7-17.5c0-10.7-6.1-17.7-15.8-17.7s-16.3,7.6-16.3,17.9C562,670.7,568.5,677.7,578.4,677.7z"/>
</g>
<g class="st1">
	<path class="st3" d="M612.5,660.3c0-14.5,8.9-24.6,22.6-24.6c14.9,0,21.8,11.2,20.3,26.4h-35.4c0.6,9.6,7.2,15.8,16.6,15.8
		c4.8,0,9.9-1.7,14.1-5.1l3.5,5.3c-5.3,4.2-11.8,6.4-18.3,6.4C621.9,684.5,612.5,674.8,612.5,660.3z M648.3,655.9
		c-0.5-8.7-5.4-13.7-13.4-13.7c-8.1,0-13.7,5.4-14.8,13.7H648.3z"/>
</g>
<g class="st1">
	<path class="st3" d="M670.3,668.6v-24.8h-8.4v-6.4h8.6l1.2-12h5.9v12h11.1v6.4h-11.1v24.3c0,5.7,2.7,8,8.9,8h2.9v6.6h-3.3
		C675.2,682.8,670.3,678.5,670.3,668.6z"/>
	<path class="st3" d="M703.9,617.7c2.8,0,5.1,2.4,5.1,5.2c0,2.9-2.3,5.1-5.1,5.1c-2.9,0-5.2-2.4-5.2-5.1
		C698.7,620,701,617.7,703.9,617.7z M706.1,637.5h1.3v45.3h-7.3v-43.6C701.9,639.1,704.4,638.4,706.1,637.5z"/>
	<path class="st3" d="M725.3,668.6v-24.8h-8.4v-6.4h8.6l1.2-12h5.9v12h11.1v6.4h-11.1v24.3c0,5.7,2.7,8,8.9,8h2.9v6.6h-3.3
		C730.2,682.8,725.3,678.5,725.3,668.6z"/>
	<path class="st3" d="M758.9,617.7c2.8,0,5.1,2.4,5.1,5.2c0,2.9-2.3,5.1-5.1,5.1c-2.9,0-5.2-2.4-5.2-5.1
		C753.7,620,756,617.7,758.9,617.7z M761.1,637.5h1.3v45.3h-7.3v-43.6C756.9,639.1,759.4,638.4,761.1,637.5z"/>
	<path class="st3" d="M774.2,660.2c0-14.4,10-24.4,24.3-24.4c13.9,0,23.6,9.9,23.6,24c0,14.5-10.1,24.6-24.3,24.6
		C783.9,684.4,774.2,674.5,774.2,660.2z M798.1,677.7c9.8,0,16.4-7,16.4-17.6c0-10.6-6.4-17.7-16.2-17.7c-9.9,0-16.4,7-16.4,17.6
		C781.8,670.7,788.3,677.7,798.1,677.7z"/>
	<path class="st3" d="M833.9,637.5h7.2c0,4.3-0.3,8-0.8,12c3.2-8.4,10-13.5,19-13.5c9.9,0,15,6.4,15,17.7v29.2H867v-28.6
		c0-7.8-2.9-11.7-9.5-11.7c-8.4,0-16.3,6.6-16.3,18.9v21.4h-7.3V637.5z"/>
</g>
<g>
	<path class="st2" d="M124.7,133.9h8.9l34,84.5l32.8-84.5h9.1l12.8,90.8h-6.3l-12-84.8l-32.8,84.8h-7.7l-33.9-84.8l-9.9,84.8h-6.3
		L124.7,133.9L124.7,133.9z"/>
	<path class="st2" d="M246.7,221c-3.6-4.1-5.3-10.1-5.3-17.9v-43.5h6.1v43.2c0,6.2,1.3,10.9,3.9,13.9c2.6,3.1,6.5,4.6,11.9,4.6
		c4.7,0,9.1-1.2,13.3-3.5c4.1-2.4,7.5-5.9,10.1-10.6s3.9-10.4,3.9-16.9h3.1c0,7.5-1.3,14-3.8,19.6c-2.5,5.6-6.2,9.9-10.9,12.9
		s-10.1,4.5-16.3,4.5C255.5,227.2,250.2,225.1,246.7,221L246.7,221z M290.6,214.3c0.2-3,0.6-7.1,1.1-12.1h-1.3v-42.6h6.1v65.1h-6.3
		C290.3,220.8,290.4,217.3,290.6,214.3L290.6,214.3z"/>
	<path class="st2" d="M314.1,216.8l4.1-4.1c6,5.9,12.5,8.8,19.4,8.8c4.5,0,8.1-1.2,10.7-3.6c2.6-2.4,3.9-5.3,3.9-8.8
		c0-2.6-0.7-4.8-2.1-6.6c-1.4-1.8-3.2-3.3-5.3-4.5s-5-2.5-8.7-4.1c-4-1.6-7.2-3.1-9.7-4.5c-2.5-1.4-4.5-3.3-6.2-5.5
		c-1.7-2.3-2.5-5.1-2.5-8.3s0.9-6.5,2.6-9.3c1.7-2.8,4.1-5,7.1-6.6c3-1.6,6.4-2.4,10.1-2.4c3.4,0,6.5,0.6,9.4,1.9s5.9,3.1,8.9,5.5
		l-3.9,4.8c-2.2-2-4.6-3.5-7.2-4.7s-5.2-1.7-8-1.7c-4.2,0-7.4,1.2-9.5,3.7c-2.2,2.4-3.3,5.2-3.3,8.2c0,2.3,0.7,4.3,2,5.9
		c1.3,1.6,3,3,5.1,4.1c2,1.1,4.8,2.4,8.3,3.8c4.2,1.8,7.5,3.4,10.1,4.8c2.5,1.4,4.7,3.4,6.5,5.8s2.7,5.5,2.7,9.1
		c0,5.5-2,10-5.9,13.6c-3.9,3.5-9,5.3-15.4,5.3C328.7,227.2,321,223.7,314.1,216.8L314.1,216.8z"/>
	<path class="st2" d="M376.3,142c-1-1-1.5-2.2-1.5-3.7s0.5-2.7,1.5-3.7s2.2-1.6,3.7-1.6s2.7,0.5,3.7,1.6s1.6,2.3,1.6,3.7
		s-0.5,2.6-1.6,3.7s-2.3,1.5-3.7,1.5S377.4,143,376.3,142z M381.5,159.5h1.5v65.1h-6.1V161C378.1,161,379.7,160.5,381.5,159.5
		L381.5,159.5z"/>
	<path class="st2" d="M418.7,223c-5.1-3-9-7.2-11.8-12.6c-2.8-5.4-4.2-11.5-4.2-18.4s1.5-13,4.4-18.4c2.9-5.4,7-9.6,12.3-12.6
		c5.2-3,11.2-4.5,17.9-4.5c8.5,0,16.1,2.6,22.6,7.9l-4,4.3c-5.8-4.3-12.1-6.4-19.1-6.4c-5.5,0-10.4,1.2-14.6,3.7
		c-4.2,2.4-7.5,5.9-9.8,10.4s-3.5,9.6-3.5,15.4s1.2,11.1,3.5,15.6s5.6,8,9.8,10.5c4.2,2.5,9,3.7,14.5,3.7c3.9,0,7.8-0.7,11.6-2.1
		c3.8-1.4,7.4-3.6,10.8-6.5l3.7,4.3c-3.8,3.4-8,5.9-12.7,7.6s-9.3,2.5-13.9,2.5C429.6,227.5,423.8,226,418.7,223L418.7,223z"/>
	<path class="st2" d="M478.6,142c-1-1-1.5-2.2-1.5-3.7s0.5-2.7,1.5-3.7s2.2-1.6,3.7-1.6s2.7,0.5,3.7,1.6s1.6,2.3,1.6,3.7
		S487,141,486,142s-2.3,1.5-3.7,1.5S479.6,143,478.6,142z M483.7,159.5h1.5v65.1H479V161C480.4,161,481.9,160.5,483.7,159.5
		L483.7,159.5z"/>
	<path class="st2" d="M509.7,221.5c-4.1-3.5-6.2-8.1-6.2-14s2.2-10.9,6.7-14.5c4.5-3.6,10.4-5.4,17.7-5.4c4.3,0,8.8,0.8,13.5,2.3
		c4.7,1.5,8.9,3.5,12.5,6l-2.7,4.9c-3-2.3-6.6-4.1-10.7-5.5c-4.1-1.3-8.2-2-12.1-2c-5.8,0-10.3,1.2-13.7,3.6c-3.3,2.4-5,5.7-5,10
		s1.5,7.6,4.5,10.1c3,2.6,6.8,3.9,11.2,3.9c4.1,0,7.9-1.1,11.5-3.2c3.6-2.1,6.4-5,8.5-8.5c2.1-3.6,3.1-7.3,3.1-11.3h3.9
		c0,5.6-1.2,10.6-3.6,14.9c-2.4,4.4-5.7,7.8-9.8,10.2c-4.1,2.4-8.7,3.7-13.7,3.7C519,226.7,513.8,225,509.7,221.5L509.7,221.5z
		 M549.2,211.9h-0.7v-28.7c0-6.5-1.6-11.5-4.9-15.1s-7.9-5.3-14-5.3c-2.9,0-6.1,0.4-9.5,1.1c-3.4,0.8-6.8,1.8-10.1,3.1l-2.1-5.7
		c3.8-1.3,7.7-2.4,11.6-3.1c3.9-0.8,7.4-1.1,10.6-1.1c7.5,0,13.4,2.4,17.9,7.1c4.5,4.8,6.7,11.1,6.7,18.9v41.6h-6.4
		C548.3,220.2,548.6,215.9,549.2,211.9L549.2,211.9z"/>
	<path class="st2" d="M577.7,159.5h6.3c0,4-0.1,7.8-0.3,11.3c-0.2,3.5-0.5,7.3-0.9,11.3h1.1v42.6h-6.1V159.5L577.7,159.5z
		 M622.9,167.5c-2.6-3.1-6.5-4.6-11.9-4.6c-4.7,0-9.1,1.2-13.3,3.5s-7.5,5.9-10.1,10.6c-2.6,4.7-3.9,10.4-3.9,16.9h-3.1
		c0-7.5,1.3-14,3.8-19.6c2.5-5.6,6.2-9.9,10.9-12.9c4.7-3,10.1-4.5,16.3-4.5c7,0,12.3,2.1,15.9,6.2s5.3,10.1,5.3,17.9v43.5h-6.1
		v-43.2C626.8,175.2,625.5,170.6,622.9,167.5L622.9,167.5z"/>
	<path class="st2" d="M649.7,216.8l4.1-4.1c6,5.9,12.5,8.8,19.3,8.8c4.5,0,8.1-1.2,10.7-3.6c2.6-2.4,3.9-5.3,3.9-8.8
		c0-2.6-0.7-4.8-2.1-6.6c-1.4-1.8-3.2-3.3-5.3-4.5s-5-2.5-8.7-4.1c-4-1.6-7.2-3.1-9.7-4.5c-2.5-1.4-4.5-3.3-6.2-5.5
		c-1.7-2.3-2.5-5.1-2.5-8.3s0.9-6.5,2.6-9.3s4.1-5,7.1-6.6c3-1.6,6.4-2.4,10.1-2.4c3.4,0,6.5,0.6,9.4,1.9c2.9,1.2,5.8,3.1,8.9,5.5
		l-3.9,4.8c-2.2-2-4.6-3.5-7.2-4.7s-5.2-1.7-8-1.7c-4.2,0-7.4,1.2-9.5,3.7s-3.3,5.2-3.3,8.2c0,2.3,0.7,4.3,2,5.9
		c1.3,1.6,3,3,5.1,4.1s4.8,2.4,8.3,3.8c4.2,1.8,7.5,3.4,10.1,4.8c2.5,1.4,4.7,3.4,6.5,5.8c1.8,2.4,2.7,5.5,2.7,9.1
		c0,5.5-2,10-5.9,13.6c-3.9,3.5-9,5.3-15.3,5.3C664.4,227.2,656.7,223.7,649.7,216.8L649.7,216.8z"/>
	<path class="st2" d="M717.1,127.2h1.5v31.6c0,3.9-0.1,7.4-0.3,10.3s-0.5,6.7-1.1,11.3h1.3v44.2h-6.1v-95.8
		C714.2,128.7,715.8,128.1,717.1,127.2L717.1,127.2z M757.7,167.5c-2.6-3.1-6.5-4.6-11.9-4.6c-4.7,0-9.1,1.2-13.3,3.5
		s-7.5,5.9-10.1,10.6c-2.6,4.7-3.9,10.4-3.9,16.9h-3.1c0-7.5,1.3-14,3.8-19.6c2.5-5.6,6.2-9.9,10.9-12.9c4.7-3,10.1-4.5,16.3-4.5
		c7,0,12.3,2.1,15.9,6.2s5.3,10.1,5.3,17.9v43.5h-6.1v-43.2C761.6,175.2,760.3,170.6,757.7,167.5L757.7,167.5z"/>
	<path class="st2" d="M790.6,142c-1-1-1.5-2.2-1.5-3.7s0.5-2.7,1.5-3.7c1-1.1,2.2-1.6,3.7-1.6s2.7,0.5,3.7,1.6s1.6,2.3,1.6,3.7
		s-0.5,2.6-1.6,3.7c-1.1,1-2.3,1.5-3.7,1.5S791.6,143,790.6,142z M795.8,159.5h1.5v65.1h-6.1V161C792.4,161,794,160.5,795.8,159.5
		L795.8,159.5z"/>
	<path class="st2" d="M821.2,159.5h6.3c0,3.1-0.1,6.6-0.3,10.5c-0.2,3.9-0.5,7.4-0.9,10.5h1.1v23h-1.2c0.3,3.4,0.6,6.9,0.9,10.4
		c0.2,3.6,0.3,6.9,0.3,10V254h-6.1V159.5z M838.1,223.1c-4.8-2.9-8.5-6.9-11.2-12.1c-2.7-5.2-4-11.1-4-17.8s1.4-12.9,4.1-18.5
		c2.8-5.6,6.6-9.9,11.5-13.1c4.9-3.2,10.4-4.8,16.4-4.8s11.8,1.5,16.6,4.4c4.8,2.9,8.6,7.1,11.3,12.4c2.7,5.3,4,11.5,4,18.4
		s-1.4,12.8-4.2,18.2s-6.7,9.6-11.5,12.7c-4.9,3.1-10.4,4.6-16.5,4.6S842.9,226,838.1,223.1L838.1,223.1z M873.4,213.7
		c4.8-5.3,7.1-12.5,7.1-21.5s-2.4-16.3-7.1-21.7c-4.7-5.4-11-8.1-19-8.1c-5.2,0-9.9,1.3-14.1,4s-7.3,6.3-9.6,10.9
		c-2.3,4.6-3.4,9.8-3.4,15.5s1.1,10.6,3.4,15c2.3,4.4,5.5,7.8,9.5,10.2c4.1,2.4,8.8,3.6,14.2,3.6
		C862.3,221.7,868.6,219.1,873.4,213.7L873.4,213.7z"/>
</g>
<g>
	<path class="st3" d="M130.7,369.7c-5.8-3.1-10.4-7.5-13.8-13.3s-5.1-12.5-5.1-20.2s1.8-15,5.5-20.8c3.7-5.8,8.6-10.2,14.6-13.2
		c6-3,12.4-4.5,19.2-4.5c3.9,0,7.8,0.5,11.6,1.6s7.4,2.7,10.9,4.9l-7.9,13c-2.2-1.4-4.5-2.4-6.9-3.1s-4.9-1.1-7.5-1.1
		c-3.8,0-7.3,0.9-10.6,2.7s-5.9,4.4-7.9,7.9c-2,3.4-3,7.5-3,12.1s1,8.9,2.9,12.5c2,3.5,4.6,6.2,7.8,8s6.8,2.7,10.6,2.7
		c2.9,0,5.7-0.5,8.5-1.4c2.8-0.9,5.4-2.2,7.9-4l8,12.5c-3.9,2.7-8.1,4.7-12.4,6.1s-8.8,2.1-13.3,2.1
		C142.9,374.3,136.5,372.8,130.7,369.7L130.7,369.7z"/>
	<path class="st3" d="M193.5,370.7c-4.4-2.4-7.8-5.7-10.3-10c-2.5-4.3-3.8-9.1-3.8-14.5s1.3-10.5,3.9-14.9s6.1-7.9,10.7-10.4
		c4.6-2.5,9.7-3.8,15.3-3.8s10.4,1.2,14.8,3.6c4.4,2.4,7.8,5.7,10.3,10s3.8,9.1,3.8,14.5s-1.3,10.5-3.9,14.9s-6.1,7.9-10.7,10.4
		c-4.6,2.5-9.7,3.8-15.3,3.8S197.9,373.1,193.5,370.7L193.5,370.7z M214.8,357.2c1.7-1,3-2.5,3.9-4.5c0.9-2,1.4-4.3,1.4-7
		s-0.4-5-1.4-7s-2.2-3.5-3.9-4.5c-1.7-1-3.7-1.6-5.9-1.6s-4.3,0.5-6,1.6s-3,2.5-3.9,4.5c-0.9,2-1.4,4.3-1.4,7s0.4,5,1.4,7
		s2.2,3.5,3.9,4.5c1.7,1,3.7,1.6,5.9,1.6S213.1,358.2,214.8,357.2z"/>
	<path class="st3" d="M247.2,318.4h16.3c0,2.9-0.3,6-0.9,9.4s-1.3,6.4-2.3,9h3.8V373h-17L247.2,318.4L247.2,318.4z M280.2,334.9
		c-0.9-1.7-2.5-2.6-4.6-2.6s-4.2,0.6-5.9,2c-1.7,1.3-3,3.1-4,5.3c-1,2.2-1.5,4.8-1.5,7.7H259c0-5.8,0.8-11,2.5-15.5
		s4.2-8.1,7.5-10.7c3.3-2.6,7.4-3.9,12.1-3.9c5.8,0,10.2,2,13.1,6c2.9,4,4.4,9.9,4.4,17.6V373h-17v-29.2
		C281.6,339.6,281.1,336.6,280.2,334.9L280.2,334.9z M314.6,334.9c-0.9-1.7-2.5-2.6-4.6-2.6s-4.2,0.6-5.9,2c-1.7,1.3-3,3.1-4,5.3
		c-1,2.2-1.5,4.8-1.5,7.7h-5.2c0-5.8,0.8-11,2.5-15.5s4.2-8.1,7.5-10.7c3.3-2.6,7.4-3.9,12.1-3.9c5.8,0,10.2,2,13.1,6
		c2.9,4,4.4,9.9,4.4,17.6V373h-17v-29.2C315.9,339.6,315.5,336.6,314.6,334.9L314.6,334.9z"/>
	<path class="st3" d="M344.4,318.4H361c0,3.3-0.3,6.5-1,9.7c-0.6,3.2-1.5,6.2-2.6,8.9h3.9v17.2h-3.5c1.1,3.9,1.9,7.9,2.5,12.1
		s0.9,8,0.9,11.5v19.1h-17L344.4,318.4L344.4,318.4z M365.9,370.9c-3.5-2.2-6.2-5.5-8.1-9.8s-2.9-9.4-2.9-15.2s1-11.2,3-15.5
		s4.8-7.6,8.4-9.9c3.6-2.3,7.8-3.4,12.7-3.4s9.5,1.2,13.4,3.6c3.9,2.4,7,5.8,9.1,10c2.2,4.3,3.3,9.1,3.3,14.5s-1.1,10.5-3.4,14.9
		s-5.4,7.9-9.5,10.4s-8.6,3.8-13.7,3.8C373.5,374.3,369.4,373.2,365.9,370.9z M383.1,355.1c2.2-2.3,3.3-5.4,3.3-9.3s-1.1-7-3.4-9.4
		s-5.2-3.6-9-3.6c-2.5,0-4.7,0.5-6.6,1.5c-1.9,1-3.4,2.5-4.5,4.4c-1.1,1.9-1.6,4.1-1.6,6.7s0.5,4.9,1.6,6.9c1,2,2.5,3.5,4.5,4.6
		s4.2,1.6,6.7,1.6C377.9,358.5,380.9,357.4,383.1,355.1L383.1,355.1z"/>
	<path class="st3" d="M416.7,370.1c-3.5-3-5.3-7-5.3-12c0-5.3,2-9.5,6-12.7s9.3-4.8,15.8-4.8c4.6,0,8.6,0.8,12.1,2.4
		c3.5,1.6,6.3,3.9,8.5,6.9l-6,6.1c-1.4-1.2-3-2.2-5-3c-2-0.8-4-1.2-6.1-1.2c-2.3,0-4.1,0.5-5.3,1.5c-1.2,1-1.9,2.3-1.9,3.9
		s0.6,2.8,1.8,3.8c1.2,0.9,2.7,1.4,4.4,1.4c1.6,0,3.1-0.4,4.7-1.1c1.5-0.7,2.8-1.7,3.7-2.9c0.9-1.2,1.4-2.5,1.4-4l5.4-0.3
		c0,3.8-0.8,7.2-2.4,10.4c-1.6,3.1-4,5.7-7.1,7.5c-3.1,1.9-6.9,2.8-11.2,2.8C424.7,374.6,420.2,373.1,416.7,370.1L416.7,370.1z
		 M448.2,362.6h-2.6V344c0-3.6-1-6.4-3-8.3c-2-1.9-5.2-2.8-9.7-2.8c-1.9,0-3.9,0.2-5.9,0.6c-2.1,0.4-4.4,1.2-7,2.2l-4.8-14.4
		c3.8-1.4,7.3-2.4,10.5-3s6.3-1,9.5-1c8.5,0,15.2,2.2,20,6.5c4.9,4.3,7.3,10.7,7.3,19.3V373h-15.8
		C446.8,369.8,447.2,366.3,448.2,362.6L448.2,362.6z"/>
	<path class="st3" d="M470,363.8l12-9.5c2.8,3.8,6.7,5.6,11.5,5.6c2,0,3.5-0.2,4.6-0.8s1.5-1.2,1.5-2.1c0-0.8-0.4-1.5-1.1-2
		s-1.6-1-2.8-1.4s-2.7-0.8-4.8-1.2c-3.9-0.9-7.2-1.8-9.8-2.8c-2.6-1-4.9-2.7-6.8-5s-2.9-5.4-2.9-9.4s1-7.1,2.9-9.9s4.6-4.9,8-6.3
		c3.4-1.5,7.5-2.2,12-2.2s8.7,0.8,12.5,2.5s7,4.2,9.7,7.7l-11.9,9c-1.2-1.7-2.5-2.9-4-3.8s-3.4-1.2-5.6-1.2c-2.1,0-3.8,0.3-5,0.9
		c-1.2,0.6-1.8,1.4-1.8,2.5c0,0.9,0.4,1.6,1.1,2.1s1.9,1,3.3,1.5s2.9,0.8,4.5,1.2c3.8,0.9,7,1.8,9.6,2.8c2.6,1,4.8,2.6,6.7,4.8
		s2.9,5.3,2.9,9.1c0,5.4-2.1,9.8-6.3,13.1c-4.2,3.3-10,5-17.3,5C482.9,374.2,475.2,370.7,470,363.8L470,363.8z"/>
	<path class="st3" d="M522.7,363.8l12-9.5c2.8,3.8,6.7,5.6,11.5,5.6c2,0,3.5-0.2,4.6-0.8s1.5-1.2,1.5-2.1c0-0.8-0.4-1.5-1.1-2
		c-0.7-0.5-1.7-1-2.8-1.4s-2.7-0.8-4.8-1.2c-3.9-0.9-7.2-1.8-9.8-2.8c-2.6-1-4.9-2.7-6.8-5s-2.9-5.4-2.9-9.4s1-7.1,2.9-9.9
		s4.6-4.9,8-6.3c3.4-1.5,7.4-2.2,12-2.2s8.7,0.8,12.5,2.5s7,4.2,9.7,7.7l-11.8,9c-1.2-1.7-2.5-2.9-4-3.8s-3.3-1.2-5.6-1.2
		c-2.1,0-3.8,0.3-5,0.9c-1.2,0.6-1.8,1.4-1.8,2.5c0,0.9,0.4,1.6,1.1,2.1s1.8,1,3.3,1.5c1.4,0.4,2.9,0.8,4.5,1.2
		c3.8,0.9,7,1.8,9.6,2.8c2.6,1,4.8,2.6,6.7,4.8s2.9,5.3,2.9,9.1c0,5.4-2.1,9.8-6.3,13.1c-4.2,3.3-10,5-17.3,5
		C535.6,374.2,527.9,370.7,522.7,363.8L522.7,363.8z"/>
	<path class="st3" d="M579.7,308.3c-2-2-3-4.4-3-7.1c0-2.8,1-5.2,2.9-7.2c2-2,4.3-2.9,7.2-2.9s5.2,1,7.1,2.9c1.9,2,2.9,4.4,2.9,7.2
		s-1,5.3-2.9,7.2s-4.3,2.9-7.1,2.9S581.7,310.4,579.7,308.3L579.7,308.3z M593,318.4h2.2V373h-17v-50.4
		C584.2,322,589.1,320.6,593,318.4L593,318.4z"/>
	<path class="st3" d="M618.3,370.7c-4.4-2.4-7.8-5.7-10.3-10c-2.5-4.3-3.8-9.1-3.8-14.5s1.3-10.5,3.9-14.9s6.1-7.9,10.7-10.4
		c4.6-2.5,9.7-3.8,15.3-3.8s10.5,1.2,14.8,3.6c4.4,2.4,7.8,5.7,10.3,10s3.8,9.1,3.8,14.5s-1.3,10.5-3.9,14.9s-6.1,7.9-10.7,10.4
		s-9.7,3.8-15.3,3.8S622.7,373.1,618.3,370.7L618.3,370.7z M639.6,357.2c1.7-1,3-2.5,3.9-4.5c0.9-2,1.4-4.3,1.4-7s-0.5-5-1.4-7
		s-2.2-3.5-3.9-4.5c-1.7-1-3.7-1.6-5.9-1.6s-4.3,0.5-6,1.6s-3,2.5-3.9,4.5c-0.9,2-1.4,4.3-1.4,7s0.5,5,1.4,7s2.2,3.5,3.9,4.5
		c1.7,1,3.7,1.6,5.9,1.6S637.9,358.2,639.6,357.2z"/>
	<path class="st3" d="M672.1,318.4h16.3c0,2.9-0.3,6-0.9,9.4s-1.3,6.4-2.3,9h3.8V373h-17L672.1,318.4L672.1,318.4z M707,334.7
		c-1.1-1.6-2.9-2.5-5.4-2.5s-4.7,0.6-6.6,2c-1.9,1.3-3.4,3.1-4.4,5.4c-1,2.3-1.5,4.8-1.5,7.7h-6c0-5.7,1-10.9,2.9-15.4
		s4.8-8.1,8.4-10.8c3.6-2.6,7.8-3.9,12.6-3.9c5.8,0,10.3,2.1,13.6,6.2s5,10,5,17.3V373h-17v-30.1C708.6,339.1,708,336.3,707,334.7
		L707,334.7z"/>
	<path class="st3" d="M739,370.1c-3.5-3-5.3-7-5.3-12c0-5.3,2-9.5,6-12.7s9.3-4.8,15.8-4.8c4.6,0,8.6,0.8,12.1,2.4
		c3.5,1.6,6.3,3.9,8.5,6.9l-6,6.1c-1.4-1.2-3-2.2-5-3c-2-0.8-4-1.2-6.1-1.2c-2.3,0-4.1,0.5-5.3,1.5c-1.2,1-1.8,2.3-1.8,3.9
		s0.6,2.8,1.8,3.8c1.2,0.9,2.7,1.4,4.4,1.4c1.6,0,3.2-0.4,4.7-1.1c1.5-0.7,2.8-1.7,3.7-2.9c0.9-1.2,1.4-2.5,1.4-4l5.4-0.3
		c0,3.8-0.8,7.2-2.4,10.4s-4,5.7-7.1,7.5c-3.2,1.9-6.9,2.8-11.2,2.8C746.9,374.6,742.4,373.1,739,370.1L739,370.1z M770.4,362.6
		h-2.6V344c0-3.6-1-6.4-3-8.3c-2-1.9-5.2-2.8-9.7-2.8c-1.9,0-3.9,0.2-5.9,0.6s-4.4,1.2-7,2.2l-4.8-14.4c3.8-1.4,7.3-2.4,10.5-3
		c3.2-0.6,6.3-1,9.5-1c8.5,0,15.2,2.2,20,6.5s7.3,10.7,7.3,19.3V373H769C769,369.8,769.5,366.3,770.4,362.6L770.4,362.6z"/>
	<path class="st3" d="M791.5,318.4h35.2v14.5h-35.2V318.4z M809.4,370.9c-3.6-1.4-6.2-3.7-7.9-6.8c-1.6-3.1-2.5-7.4-2.5-12.8v-30
		l3-16.5h13.9v45.8c0,2.7,0.6,4.5,1.8,5.5c1.2,1,3.6,1.5,7.1,1.5h2.1V373h-2.7C818,373,813,372.3,809.4,370.9L809.4,370.9z"/>
	<path class="st3" d="M847.3,371.1c-4.3-2.1-7.6-5.2-9.8-9.4c-2.2-4.1-3.4-9-3.4-14.8s1.2-11.3,3.5-15.8c2.3-4.5,5.6-8,9.9-10.4
		c4.3-2.4,9.2-3.6,14.8-3.6c6.7,0,12.1,1.5,16.1,4.6s6.7,7.2,8,12.3c1.3,5.2,1.5,10.9,0.5,17.2h-42v-11.5h30l-3.8,1.7
		c0-3.4-0.7-6-2.2-7.8c-1.5-1.8-3.7-2.7-6.8-2.7c-2.2,0-4.2,0.4-5.8,1.2s-2.9,2.1-3.7,3.9c-0.8,1.7-1.2,3.9-1.2,6.5v5.5
		c0,2.5,0.5,4.7,1.6,6.4c1,1.7,2.6,3,4.6,3.9s4.4,1.3,7.1,1.3c2.5,0,5.1-0.3,7.7-1c2.6-0.6,4.8-1.5,6.8-2.6l6.2,12.7
		c-3.1,1.7-6.6,3-10.4,3.9c-3.8,0.9-7.8,1.4-12,1.4C856.8,374.3,851.6,373.2,847.3,371.1L847.3,371.1z"/>
</g>
</svg>
