<?xml version="1.0" encoding="UTF-8"?><svg id="a" xmlns="http://www.w3.org/2000/svg" viewBox="0 0 1000 1000"><defs><style>.b{fill:#ca0038;}.c{fill:#62b58d;}</style></defs><rect class="c" width="1000" height="1000"/><g><path class="b" d="M704.09,430.81l-23.7-85.57c-13.32,3.75-27.21,6.06-41.5,6.93l-8.1-133.12c-4.66,.31-9.41,.09-14.17-.63l-19.77,131.98c-13.69-1.99-27.33-5.53-40.75-10.55l-31.09,83.08c19.31,7.22,38.98,12.2,58.7,15.2,20.39,3.05,40.67,3.84,60.57,2.67,20.58-1.25,40.58-4.7,59.81-9.98h0Zm171.32-128.89l-189.46-116.02c-2.42,4-5.32,7.76-8.64,11.26-3.19,3.41-6.82,6.48-10.79,9.22-3.83,2.67-8.02,4.93-12.47,6.78l17.04,41.09c7.37-3.06,14.3-6.8,20.64-11.22,3.3-2.27,6.44-4.7,9.42-7.27l29.25,33.51c-4.25,3.68-8.74,7.16-13.47,10.41-8.86,6.15-18.47,11.45-28.77,15.72l16.99,41.03c13.23-5.48,25.61-12.21,36.98-20.1,6.15-4.23,11.99-8.76,17.51-13.55l29.07,33.32c-6.79,5.9-13.97,11.47-21.53,16.67-13.87,9.62-28.98,17.83-45.11,24.51l17.04,41.09c19.05-7.9,36.82-17.69,53.28-28.96,16.99-11.68,32.34-24.95,46.09-39.39,14.19-14.96,26.45-31.13,36.9-48.12h0Zm-3.38-313.06l-186.05,121.5c2.58,3.9,4.77,8.11,6.51,12.61,1.71,4.34,2.94,8.94,3.7,13.7l131.68-21.2c2.25,13.65,3.1,27.71,2.39,42.01l-133.29-6.64c-.2,4.66-.95,9.36-2.18,14.02-1.17,4.52-2.87,8.96-5.05,13.26l198.21,100.35c9.32-18.4,16.43-37.4,21.59-56.66,5.28-19.93,8.29-40,9.32-59.91,1.03-20.59-.2-40.85-3.33-60.55l-44.01,7.09c-2.77-17.24-7.26-33.82-13.4-49.54l41.58-16.08c-7.44-19.23-16.79-37.24-27.67-53.96h0Zm-132.62-62.09c15.09,7.56,29.57,16.8,43.18,27.75l-27.73,34.45c-11.16-8.98-23.03-16.56-35.4-22.76l19.96-39.44Zm-36.54-61.36l-45.5,171.76c7.48,1.93,14.82,4.76,21.95,8.36l20.05-39.62c9.65,4.82,18.9,10.72,27.58,17.71l-27.9,34.65c6.05,4.81,11.62,10.37,16.66,16.56l137.77-112.21c-13.03-15.99-27.49-30.22-43-42.75-16.06-12.93-33.17-23.85-50.95-32.88-18.39-9.31-37.4-16.43-56.66-21.57h0Zm-208.11,20.5l80.32,158.49c6.87-3.53,14.23-6.31,21.95-8.36l.02,.07c7.45-2.03,15.22-3.29,23.19-3.69,7.72-.44,15.58,.01,23.46,1.28l7.05-44c-11.01-1.77-21.97-2.31-32.74-1.71l-6.68-133.02c-20.59,1.03-40.63,4.27-59.91,9.36-19.93,5.29-38.85,12.62-56.66,21.6h0ZM333.97,158.41l221.98-10.21c-.24-4.66,0-9.4,.79-14.16,.73-4.61,2.01-9.19,3.76-13.68,1.68-4.36,3.87-8.58,6.52-12.6l-74.3-48.93c-6.14,9.32-11.12,19.09-15.01,29.15l-82.59-32.32c6.09-15.74,13.9-31.04,23.51-45.63l74.09,48.79c5.89-9.04,12.8-17.56,20.74-25.39,7.64-7.62,16.33-14.35,25.71-20.37l-71.87-112.23c-17.36,11.12-33.15,23.88-47.36,37.86-14.67,14.49-27.46,30.25-38.46,46.88-11.34,17.22-20.57,35.29-27.87,53.85-7.52,19.2-12.79,38.8-16.07,58.47-3.36,20.35-4.44,40.61-3.56,60.53"/><path class="b" d="M394.12,1025.39c-8.23-15.96-14.89-32.99-19.72-50.94l136.88-36.81c2.21,8.21,5.27,16,9.05,23.3l-.07,.04-126.15,64.42Zm38.62,121.26l148.66-183.91c-3.89-3.1-7.49-6.64-10.72-10.64-3.15-3.84-5.9-8.09-8.23-12.66-2.29-4.42-4.09-9.14-5.42-14.1-1.32-4.79-2.11-9.79-2.38-14.91-.3-4.96-.02-10.01,.78-15.08l-233.56-36.78c-3.41,21.68-4.41,43.25-3.32,64.45,1.17,21.91,4.69,43.22,10.16,63.72,5.7,21.19,13.56,41.3,23.18,60.23,9.97,19.54,21.85,37.58,35.19,54.09,13.83,17.04,29.19,32.22,45.67,45.59h0Zm222.32,17.14c-17.82,2.26-36.1,2.66-54.61,1.04l12.4-141.21c8.47,.74,16.83,.55,24.99-.51v.08l17.23,140.6Zm127.14,5.34l-121.73-202.74c-4.24,2.58-8.81,4.75-13.67,6.42-4.69,1.64-9.62,2.77-14.71,3.39-4.93,.63-9.99,.7-15.1,.26-4.95-.4-9.92-1.38-14.82-2.88-4.76-1.42-9.42-3.42-13.9-5.9l-114.69,206.75c19.19,10.64,39.11,18.98,59.39,25.23,20.98,6.42,42.2,10.43,63.34,12.33,21.86,1.92,43.45,1.43,64.52-1.11,21.78-2.66,42.8-7.63,62.88-14.49,20.75-7.14,40.28-16.36,58.49-27.25h0Zm91.39-195.78c-4.62,17.36-11.12,34.44-19.6,50.99l-126.15-64.65c3.88-7.56,6.84-15.39,8.94-23.34l.07,.02,136.74,36.98Zm52.81-115.78l-233.65,36.45c.8,4.9,1.08,9.95,.8,15.08-.24,4.96-1.06,9.95-2.4,14.91-1.27,4.81-3.11,9.52-5.44,14.09-2.24,4.44-5.01,8.67-8.25,12.65-3.11,3.88-6.71,7.44-10.7,10.66l148.36,184.09c17.08-13.77,32.31-29.09,45.73-45.52,13.85-17.03,25.55-35.18,35.27-54.04,10.01-19.53,17.69-39.71,23.27-60.19,5.73-21.18,9.05-42.52,10.25-63.71,1.2-21.91,0-43.47-3.23-64.45h0Zm-238.41-47.18l-26.23,39.41c4.27,2.84,8.17,6.06,11.62,9.64,3.59,3.67,6.74,7.63,9.37,11.85,2.75,4.34,5.01,8.86,6.71,13.53l221.67-82.23c-7.42-19.88-16.9-39.28-28.65-57.82-11.39-17.91-24.7-34.91-40.04-50.6-14.87-15.15-31.42-29.02-49.69-41.18l-26.23,39.41c15.47,10.3,29.56,21.97,42.07,34.86,6.83,6.98,13.18,14.27,19.06,21.83l-37.21,28.82c-4.78-6.13-9.95-12.06-15.5-17.74-10.25-10.58-21.8-20.14-34.49-28.58l-26.17,39.35c9.88,6.57,18.83,14.08,26.81,22.32,4.26,4.36,8.24,8.92,11.92,13.63l-37.43,28.99c-2.58-3.3-5.37-6.47-8.34-9.52-5.71-5.92-12.17-11.24-19.25-15.96h0Z"/><path class="b" d="M499.04,289.8l21.93-49.75c-19.64-8.66-39.77-15.12-60.1-19.28-21.01-4.38-42.04-6.4-62.78-6.24-21.47,.07-42.45,2.36-62.72,6.82l46.18,213.37c5.6-1.25,11.42-1.86,17.34-1.88,5.74-.05,11.56,.55,17.36,1.76l33.51-160.6c16.67,3.4,33.16,8.7,49.27,15.8h0Zm-344.04,45.76c12.46-16.59,26.82-32.08,43.05-46.13l35.58,41.11c-13.31,11.52-25.09,24.22-35.3,37.82l-43.33-32.8Zm-53.25,113.56l212.66,49.6c1.27-5.6,3.15-11.13,5.67-16.5h-.01c2.4-5.2,5.43-10.18,9-14.88,3.44-4.6,7.45-8.85,11.93-12.74,4.32-3.79,9.12-7.11,14.31-9.98,5.01-2.8,10.4-5.06,16.07-6.78l-31.72-104.57c-13.11,3.98-25.65,9.05-37.23,15.51l26.47,47.96c-8.59,4.74-16.55,10.25-23.69,16.52-7.42,6.43-13.98,13.52-19.67,21.13l-.07-.05-43.53-32.95c7.95-10.61,17.12-20.5,27.48-29.47,9.99-8.73,21.01-16.51,33.02-23.12l-79-143.32c-22.2,12.25-42.59,26.62-61.15,42.63-19.17,16.59-36.13,34.89-50.96,54.4-15.3,20.21-28.08,41.63-38.54,63.8l49.63,23.29c-9.1,19.42-16.02,39.34-20.65,59.55h0Zm156.18,82.47c-.91-9.46-.73-19.13,.45-28.88l-54.38-6.57c-1.65,13.61-1.79,27.1-.55,40.3l54.47-4.85Zm-108.12-42.02l-53.97-6.54c-2.58,21.31-2.92,42.44-1,63.11l-54.47,4.85c2.25,25.25,7.18,49.71,14.34,73.15l52.38-16.11c6.3,20.53,14.58,39.94,24.74,58.03l47.49-26.42c-8.33-14.84-15.11-30.76-20.28-47.58l104.54-32.14c-2.85-9.07-4.77-18.54-5.64-28.31l-108.95,9.7c-1.58-16.94-1.3-34.26,.81-51.74h0Zm136.34,370.54l50.81-155.76c-12.63-4.05-24.93-9.56-36.79-16.43l27.35-47.25c8.5,4.92,17.32,8.89,26.37,11.78l16.96-51.99c-5.47-1.75-10.8-4.15-15.92-7.12-4.99-2.85-9.7-6.3-14.11-10.27-4.29-3.82-8.19-8.18-11.66-12.97l-132.84,96.28c10.33,14.25,21.9,27.14,34.58,38.49,13.07,11.8,27.12,21.91,41.87,30.38l-27.23,47.03c-18-10.32-35.13-22.67-51.07-37.05-15.46-13.84-29.58-29.57-42.18-46.95l-44.28,32.1c14.88,20.52,31.65,38.99,49.82,55.45,18.82,16.99,39.06,31.56,60.25,43.88,21.93,12.7,44.77,22.75,68.06,30.4h0Zm85.97-203.09l-31.45,160.69c21.07,4.12,42.12,6,62.87,5.58l-1.76-109.04c13.7-.22,27.09-1.93,40-4.95l24.38,106.27c20.93-4.8,40.9-11.64,59.68-20.45l-68.95-148.39c-8.59,4.05-17.75,7.16-27.32,9.36l-.02-.09c-9.25,2.18-18.83,3.41-28.65,3.57-9.5,.21-19.13-.67-28.77-2.55h0Zm205.68-61.51c-5.1,12.24-11.56,24.08-19.4,35.33l-44.85-31.3c5.62-8.05,10.23-16.54,13.88-25.32l.08,.04,50.29,21.25Zm100.43,42.44c-8,19.15-18.11,37.69-30.4,55.29l-44.59-31.11c10.07-14.43,18.36-29.63,24.92-45.33l50.06,21.15Zm78.54-124.26l-273.13,5.21c.14,5.74-.32,11.56-1.44,17.38-1.05,5.64-2.77,11.23-5.08,16.69-2.21,5.3-5.04,10.41-8.43,15.27-3.25,4.73-7.09,9.14-11.42,13.19-4.17,3.95-8.84,7.46-13.91,10.52l84.68,140.41c15.07-9.09,28.95-19.45,41.32-31.12l74.51,79.64c18.51-17.32,34.74-36.27,48.81-56.34,14.51-20.79,26.45-42.69,36.03-65.26,9.87-23.34,17-47.25,21.69-71.32,4.79-24.89,6.8-49.76,6.38-74.27h0Z"/></g></svg>